G04 #@! TF.FileFunction,Legend,Top*
%FSLAX46Y46*%
G04 Gerber Fmt 4.6, Leading zero omitted, Abs format (unit mm)*
G04 Created by KiCad (PCBNEW 4.0.6-e0-6349~53~ubuntu16.04.1) date Wed Jun 21 13:20:40 2017*
%MOMM*%
%LPD*%
G01*
G04 APERTURE LIST*
%ADD10C,0.101600*%
%ADD11C,0.200000*%
%ADD12C,0.152400*%
%ADD13C,0.063500*%
%ADD14C,0.150000*%
%ADD15C,0.100000*%
%ADD16C,0.002540*%
%ADD17C,0.127000*%
%ADD18C,2.000000*%
%ADD19C,3.600000*%
%ADD20C,2.200000*%
%ADD21C,2.127200*%
%ADD22O,2.127200X2.127200*%
%ADD23R,2.127200X2.127200*%
%ADD24C,1.720800*%
%ADD25R,1.720800X1.720800*%
%ADD26O,2.940000X1.974800*%
%ADD27O,2.686000X2.051000*%
%ADD28R,2.686000X2.051000*%
%ADD29C,2.432000*%
%ADD30C,3.400000*%
G04 APERTURE END LIST*
D10*
D11*
X72517000Y-31115000D02*
G75*
G03X72517000Y-31115000I-127000J0D01*
G01*
X72517000Y-32385000D02*
G75*
G03X72517000Y-32385000I-127000J0D01*
G01*
X72517000Y-33655000D02*
G75*
G03X72517000Y-33655000I-127000J0D01*
G01*
X72517000Y-34925000D02*
G75*
G03X72517000Y-34925000I-127000J0D01*
G01*
X72390000Y-32385000D02*
X71755000Y-31115000D01*
X72390000Y-33655000D02*
X71755000Y-34925000D01*
X72390000Y-35560000D02*
X72390000Y-34925000D01*
X73025000Y-35560000D02*
X72390000Y-35560000D01*
X72390000Y-33020000D02*
X73025000Y-33020000D01*
X72390000Y-32385000D02*
X72390000Y-33655000D01*
X72390000Y-30480000D02*
X72390000Y-31115000D01*
X73025000Y-30480000D02*
X72390000Y-30480000D01*
X40640000Y-26035000D02*
X45720000Y-26035000D01*
X40640000Y-38100000D02*
X40640000Y-26035000D01*
X45720000Y-26035000D02*
X45720000Y-38100000D01*
D10*
X43029414Y-33896906D02*
X43537414Y-33775953D01*
X43174557Y-33655001D01*
X43537414Y-33534049D01*
X43029414Y-33413096D01*
X43029414Y-33231668D02*
X43537414Y-33080477D01*
X43029414Y-32929287D02*
X43537414Y-33080477D01*
X43718843Y-33140953D01*
X43755129Y-33171192D01*
X43791414Y-33231668D01*
X43537414Y-32596667D02*
X43501129Y-32657143D01*
X43464843Y-32687382D01*
X43392271Y-32717620D01*
X43174557Y-32717620D01*
X43101986Y-32687382D01*
X43065700Y-32657143D01*
X43029414Y-32596667D01*
X43029414Y-32505953D01*
X43065700Y-32445477D01*
X43101986Y-32415239D01*
X43174557Y-32385001D01*
X43392271Y-32385001D01*
X43464843Y-32415239D01*
X43501129Y-32445477D01*
X43537414Y-32505953D01*
X43537414Y-32596667D01*
X43537414Y-32022143D02*
X43501129Y-32082619D01*
X43428557Y-32112858D01*
X42775414Y-32112858D01*
X43029414Y-31508096D02*
X43537414Y-31508096D01*
X43029414Y-31780239D02*
X43428557Y-31780239D01*
X43501129Y-31750000D01*
X43537414Y-31689524D01*
X43537414Y-31598810D01*
X43501129Y-31538334D01*
X43464843Y-31508096D01*
X43537414Y-31205715D02*
X43029414Y-31205715D01*
X43101986Y-31205715D02*
X43065700Y-31175476D01*
X43029414Y-31115000D01*
X43029414Y-31024286D01*
X43065700Y-30963810D01*
X43138271Y-30933572D01*
X43537414Y-30933572D01*
X43138271Y-30933572D02*
X43065700Y-30903334D01*
X43029414Y-30842857D01*
X43029414Y-30752143D01*
X43065700Y-30691667D01*
X43138271Y-30661429D01*
X43537414Y-30661429D01*
X43464843Y-30359048D02*
X43501129Y-30328809D01*
X43537414Y-30359048D01*
X43501129Y-30389286D01*
X43464843Y-30359048D01*
X43537414Y-30359048D01*
X43501129Y-29784524D02*
X43537414Y-29845000D01*
X43537414Y-29965952D01*
X43501129Y-30026428D01*
X43464843Y-30056667D01*
X43392271Y-30086905D01*
X43174557Y-30086905D01*
X43101986Y-30056667D01*
X43065700Y-30026428D01*
X43029414Y-29965952D01*
X43029414Y-29845000D01*
X43065700Y-29784524D01*
X43537414Y-29421666D02*
X43501129Y-29482142D01*
X43464843Y-29512381D01*
X43392271Y-29542619D01*
X43174557Y-29542619D01*
X43101986Y-29512381D01*
X43065700Y-29482142D01*
X43029414Y-29421666D01*
X43029414Y-29330952D01*
X43065700Y-29270476D01*
X43101986Y-29240238D01*
X43174557Y-29210000D01*
X43392271Y-29210000D01*
X43464843Y-29240238D01*
X43501129Y-29270476D01*
X43537414Y-29330952D01*
X43537414Y-29421666D01*
X43537414Y-28937857D02*
X43029414Y-28937857D01*
X43101986Y-28937857D02*
X43065700Y-28907618D01*
X43029414Y-28847142D01*
X43029414Y-28756428D01*
X43065700Y-28695952D01*
X43138271Y-28665714D01*
X43537414Y-28665714D01*
X43138271Y-28665714D02*
X43065700Y-28635476D01*
X43029414Y-28574999D01*
X43029414Y-28484285D01*
X43065700Y-28423809D01*
X43138271Y-28393571D01*
X43537414Y-28393571D01*
X44274014Y-35378573D02*
X44890871Y-35378573D01*
X44963443Y-35408811D01*
X44999729Y-35439049D01*
X45036014Y-35499525D01*
X45036014Y-35590239D01*
X44999729Y-35650716D01*
X44745729Y-35378573D02*
X44782014Y-35439049D01*
X44782014Y-35560001D01*
X44745729Y-35620477D01*
X44709443Y-35650716D01*
X44636871Y-35680954D01*
X44419157Y-35680954D01*
X44346586Y-35650716D01*
X44310300Y-35620477D01*
X44274014Y-35560001D01*
X44274014Y-35439049D01*
X44310300Y-35378573D01*
X44782014Y-35076192D02*
X44274014Y-35076192D01*
X44020014Y-35076192D02*
X44056300Y-35106430D01*
X44092586Y-35076192D01*
X44056300Y-35045953D01*
X44020014Y-35076192D01*
X44092586Y-35076192D01*
X44274014Y-34864525D02*
X44274014Y-34622620D01*
X44020014Y-34773811D02*
X44673157Y-34773811D01*
X44745729Y-34743572D01*
X44782014Y-34683096D01*
X44782014Y-34622620D01*
X44782014Y-34410954D02*
X44020014Y-34410954D01*
X44782014Y-34138811D02*
X44382871Y-34138811D01*
X44310300Y-34169049D01*
X44274014Y-34229525D01*
X44274014Y-34320239D01*
X44310300Y-34380715D01*
X44346586Y-34410954D01*
X44274014Y-33564287D02*
X44782014Y-33564287D01*
X44274014Y-33836430D02*
X44673157Y-33836430D01*
X44745729Y-33806191D01*
X44782014Y-33745715D01*
X44782014Y-33655001D01*
X44745729Y-33594525D01*
X44709443Y-33564287D01*
X44782014Y-33261906D02*
X44020014Y-33261906D01*
X44310300Y-33261906D02*
X44274014Y-33201429D01*
X44274014Y-33080477D01*
X44310300Y-33020001D01*
X44346586Y-32989763D01*
X44419157Y-32959525D01*
X44636871Y-32959525D01*
X44709443Y-32989763D01*
X44745729Y-33020001D01*
X44782014Y-33080477D01*
X44782014Y-33201429D01*
X44745729Y-33261906D01*
X44709443Y-32687382D02*
X44745729Y-32657143D01*
X44782014Y-32687382D01*
X44745729Y-32717620D01*
X44709443Y-32687382D01*
X44782014Y-32687382D01*
X44745729Y-32112858D02*
X44782014Y-32173334D01*
X44782014Y-32294286D01*
X44745729Y-32354762D01*
X44709443Y-32385001D01*
X44636871Y-32415239D01*
X44419157Y-32415239D01*
X44346586Y-32385001D01*
X44310300Y-32354762D01*
X44274014Y-32294286D01*
X44274014Y-32173334D01*
X44310300Y-32112858D01*
X44782014Y-31750000D02*
X44745729Y-31810476D01*
X44709443Y-31840715D01*
X44636871Y-31870953D01*
X44419157Y-31870953D01*
X44346586Y-31840715D01*
X44310300Y-31810476D01*
X44274014Y-31750000D01*
X44274014Y-31659286D01*
X44310300Y-31598810D01*
X44346586Y-31568572D01*
X44419157Y-31538334D01*
X44636871Y-31538334D01*
X44709443Y-31568572D01*
X44745729Y-31598810D01*
X44782014Y-31659286D01*
X44782014Y-31750000D01*
X44782014Y-31266191D02*
X44274014Y-31266191D01*
X44346586Y-31266191D02*
X44310300Y-31235952D01*
X44274014Y-31175476D01*
X44274014Y-31084762D01*
X44310300Y-31024286D01*
X44382871Y-30994048D01*
X44782014Y-30994048D01*
X44382871Y-30994048D02*
X44310300Y-30963810D01*
X44274014Y-30903333D01*
X44274014Y-30812619D01*
X44310300Y-30752143D01*
X44382871Y-30721905D01*
X44782014Y-30721905D01*
X43983729Y-29965952D02*
X44963443Y-30510238D01*
X44274014Y-29814762D02*
X44782014Y-29693809D01*
X44419157Y-29572857D01*
X44782014Y-29451905D01*
X44274014Y-29330952D01*
X44274014Y-29149524D02*
X44782014Y-28998333D01*
X44274014Y-28847143D02*
X44782014Y-28998333D01*
X44963443Y-29058809D01*
X44999729Y-29089048D01*
X45036014Y-29149524D01*
X44782014Y-28514523D02*
X44745729Y-28574999D01*
X44709443Y-28605238D01*
X44636871Y-28635476D01*
X44419157Y-28635476D01*
X44346586Y-28605238D01*
X44310300Y-28574999D01*
X44274014Y-28514523D01*
X44274014Y-28423809D01*
X44310300Y-28363333D01*
X44346586Y-28333095D01*
X44419157Y-28302857D01*
X44636871Y-28302857D01*
X44709443Y-28333095D01*
X44745729Y-28363333D01*
X44782014Y-28423809D01*
X44782014Y-28514523D01*
X44782014Y-27939999D02*
X44745729Y-28000475D01*
X44673157Y-28030714D01*
X44020014Y-28030714D01*
X44274014Y-27425952D02*
X44782014Y-27425952D01*
X44274014Y-27698095D02*
X44673157Y-27698095D01*
X44745729Y-27667856D01*
X44782014Y-27607380D01*
X44782014Y-27516666D01*
X44745729Y-27456190D01*
X44709443Y-27425952D01*
X44782014Y-27123571D02*
X44274014Y-27123571D01*
X44346586Y-27123571D02*
X44310300Y-27093332D01*
X44274014Y-27032856D01*
X44274014Y-26942142D01*
X44310300Y-26881666D01*
X44382871Y-26851428D01*
X44782014Y-26851428D01*
X44382871Y-26851428D02*
X44310300Y-26821190D01*
X44274014Y-26760713D01*
X44274014Y-26669999D01*
X44310300Y-26609523D01*
X44382871Y-26579285D01*
X44782014Y-26579285D01*
D12*
X42369619Y-33709428D02*
X41692286Y-33709428D01*
X41789048Y-33709428D02*
X41740667Y-33673143D01*
X41692286Y-33600571D01*
X41692286Y-33491714D01*
X41740667Y-33419143D01*
X41837429Y-33382857D01*
X42369619Y-33382857D01*
X41837429Y-33382857D02*
X41740667Y-33346571D01*
X41692286Y-33274000D01*
X41692286Y-33165143D01*
X41740667Y-33092571D01*
X41837429Y-33056286D01*
X42369619Y-33056286D01*
X42369619Y-32584571D02*
X42321238Y-32657143D01*
X42272857Y-32693428D01*
X42176095Y-32729714D01*
X41885810Y-32729714D01*
X41789048Y-32693428D01*
X41740667Y-32657143D01*
X41692286Y-32584571D01*
X41692286Y-32475714D01*
X41740667Y-32403143D01*
X41789048Y-32366857D01*
X41885810Y-32330571D01*
X42176095Y-32330571D01*
X42272857Y-32366857D01*
X42321238Y-32403143D01*
X42369619Y-32475714D01*
X42369619Y-32584571D01*
X42369619Y-32003999D02*
X41692286Y-32003999D01*
X41885810Y-32003999D02*
X41789048Y-31967714D01*
X41740667Y-31931428D01*
X41692286Y-31858857D01*
X41692286Y-31786285D01*
X42321238Y-31568571D02*
X42369619Y-31496000D01*
X42369619Y-31350857D01*
X42321238Y-31278285D01*
X42224476Y-31242000D01*
X42176095Y-31242000D01*
X42079333Y-31278285D01*
X42030952Y-31350857D01*
X42030952Y-31459714D01*
X41982571Y-31532285D01*
X41885810Y-31568571D01*
X41837429Y-31568571D01*
X41740667Y-31532285D01*
X41692286Y-31459714D01*
X41692286Y-31350857D01*
X41740667Y-31278285D01*
X42321238Y-30625143D02*
X42369619Y-30697714D01*
X42369619Y-30842857D01*
X42321238Y-30915428D01*
X42224476Y-30951714D01*
X41837429Y-30951714D01*
X41740667Y-30915428D01*
X41692286Y-30842857D01*
X41692286Y-30697714D01*
X41740667Y-30625143D01*
X41837429Y-30588857D01*
X41934190Y-30588857D01*
X42030952Y-30951714D01*
X42369619Y-30262285D02*
X41353619Y-30262285D01*
X42369619Y-29826857D02*
X41789048Y-30153428D01*
X41353619Y-29826857D02*
X41934190Y-30262285D01*
X41837429Y-29500285D02*
X41837429Y-29246285D01*
X42369619Y-29137428D02*
X42369619Y-29500285D01*
X41353619Y-29500285D01*
X41353619Y-29137428D01*
X41885810Y-28665714D02*
X42369619Y-28665714D01*
X41353619Y-28919714D02*
X41885810Y-28665714D01*
X41353619Y-28411714D01*
D13*
X66619060Y-39109953D02*
X66619060Y-39061572D01*
X66643250Y-39037381D01*
X66691631Y-39013191D01*
X66788393Y-39001096D01*
X66957726Y-39001096D01*
X67054488Y-39013191D01*
X67102869Y-39037381D01*
X67127060Y-39061572D01*
X67127060Y-39109953D01*
X67102869Y-39134143D01*
X67054488Y-39158334D01*
X66957726Y-39170429D01*
X66788393Y-39170429D01*
X66691631Y-39158334D01*
X66643250Y-39134143D01*
X66619060Y-39109953D01*
X66788393Y-38892239D02*
X67296393Y-38892239D01*
X66812583Y-38892239D02*
X66788393Y-38868048D01*
X66788393Y-38819667D01*
X66812583Y-38795477D01*
X66836774Y-38783382D01*
X66885155Y-38771286D01*
X67030298Y-38771286D01*
X67078679Y-38783382D01*
X67102869Y-38795477D01*
X67127060Y-38819667D01*
X67127060Y-38868048D01*
X67102869Y-38892239D01*
X67102869Y-38565667D02*
X67127060Y-38589857D01*
X67127060Y-38638238D01*
X67102869Y-38662429D01*
X67054488Y-38674524D01*
X66860964Y-38674524D01*
X66812583Y-38662429D01*
X66788393Y-38638238D01*
X66788393Y-38589857D01*
X66812583Y-38565667D01*
X66860964Y-38553572D01*
X66909345Y-38553572D01*
X66957726Y-38674524D01*
X66788393Y-38444715D02*
X67127060Y-38444715D01*
X66836774Y-38444715D02*
X66812583Y-38432620D01*
X66788393Y-38408429D01*
X66788393Y-38372143D01*
X66812583Y-38347953D01*
X66860964Y-38335858D01*
X67127060Y-38335858D01*
X67102869Y-38227000D02*
X67127060Y-38190714D01*
X67127060Y-38130238D01*
X67102869Y-38106048D01*
X67078679Y-38093952D01*
X67030298Y-38081857D01*
X66981917Y-38081857D01*
X66933536Y-38093952D01*
X66909345Y-38106048D01*
X66885155Y-38130238D01*
X66860964Y-38178619D01*
X66836774Y-38202810D01*
X66812583Y-38214905D01*
X66764202Y-38227000D01*
X66715821Y-38227000D01*
X66667440Y-38214905D01*
X66643250Y-38202810D01*
X66619060Y-38178619D01*
X66619060Y-38118143D01*
X66643250Y-38081857D01*
X67127060Y-37936714D02*
X67102869Y-37960905D01*
X67078679Y-37973000D01*
X67030298Y-37985095D01*
X66885155Y-37985095D01*
X66836774Y-37973000D01*
X66812583Y-37960905D01*
X66788393Y-37936714D01*
X66788393Y-37900428D01*
X66812583Y-37876238D01*
X66836774Y-37864143D01*
X66885155Y-37852047D01*
X67030298Y-37852047D01*
X67078679Y-37864143D01*
X67102869Y-37876238D01*
X67127060Y-37900428D01*
X67127060Y-37936714D01*
X66788393Y-37634333D02*
X67127060Y-37634333D01*
X66788393Y-37743190D02*
X67054488Y-37743190D01*
X67102869Y-37731095D01*
X67127060Y-37706904D01*
X67127060Y-37670618D01*
X67102869Y-37646428D01*
X67078679Y-37634333D01*
X67127060Y-37513380D02*
X66788393Y-37513380D01*
X66885155Y-37513380D02*
X66836774Y-37501285D01*
X66812583Y-37489189D01*
X66788393Y-37464999D01*
X66788393Y-37440808D01*
X67102869Y-37247285D02*
X67127060Y-37271475D01*
X67127060Y-37319856D01*
X67102869Y-37344047D01*
X67078679Y-37356142D01*
X67030298Y-37368237D01*
X66885155Y-37368237D01*
X66836774Y-37356142D01*
X66812583Y-37344047D01*
X66788393Y-37319856D01*
X66788393Y-37271475D01*
X66812583Y-37247285D01*
X67102869Y-37041666D02*
X67127060Y-37065856D01*
X67127060Y-37114237D01*
X67102869Y-37138428D01*
X67054488Y-37150523D01*
X66860964Y-37150523D01*
X66812583Y-37138428D01*
X66788393Y-37114237D01*
X66788393Y-37065856D01*
X66812583Y-37041666D01*
X66860964Y-37029571D01*
X66909345Y-37029571D01*
X66957726Y-37150523D01*
X67952560Y-38916429D02*
X67444560Y-38916429D01*
X67686464Y-38916429D02*
X67686464Y-38771286D01*
X67952560Y-38771286D02*
X67444560Y-38771286D01*
X67952560Y-38541477D02*
X67686464Y-38541477D01*
X67638083Y-38553572D01*
X67613893Y-38577762D01*
X67613893Y-38626143D01*
X67638083Y-38650334D01*
X67928369Y-38541477D02*
X67952560Y-38565667D01*
X67952560Y-38626143D01*
X67928369Y-38650334D01*
X67879988Y-38662429D01*
X67831607Y-38662429D01*
X67783226Y-38650334D01*
X67759036Y-38626143D01*
X67759036Y-38565667D01*
X67734845Y-38541477D01*
X67952560Y-38420524D02*
X67613893Y-38420524D01*
X67710655Y-38420524D02*
X67662274Y-38408429D01*
X67638083Y-38396333D01*
X67613893Y-38372143D01*
X67613893Y-38347952D01*
X67952560Y-38154429D02*
X67444560Y-38154429D01*
X67928369Y-38154429D02*
X67952560Y-38178619D01*
X67952560Y-38227000D01*
X67928369Y-38251191D01*
X67904179Y-38263286D01*
X67855798Y-38275381D01*
X67710655Y-38275381D01*
X67662274Y-38263286D01*
X67638083Y-38251191D01*
X67613893Y-38227000D01*
X67613893Y-38178619D01*
X67638083Y-38154429D01*
X67613893Y-38057666D02*
X67952560Y-38009285D01*
X67710655Y-37960904D01*
X67952560Y-37912523D01*
X67613893Y-37864142D01*
X67952560Y-37658524D02*
X67686464Y-37658524D01*
X67638083Y-37670619D01*
X67613893Y-37694809D01*
X67613893Y-37743190D01*
X67638083Y-37767381D01*
X67928369Y-37658524D02*
X67952560Y-37682714D01*
X67952560Y-37743190D01*
X67928369Y-37767381D01*
X67879988Y-37779476D01*
X67831607Y-37779476D01*
X67783226Y-37767381D01*
X67759036Y-37743190D01*
X67759036Y-37682714D01*
X67734845Y-37658524D01*
X67952560Y-37537571D02*
X67613893Y-37537571D01*
X67710655Y-37537571D02*
X67662274Y-37525476D01*
X67638083Y-37513380D01*
X67613893Y-37489190D01*
X67613893Y-37464999D01*
X67928369Y-37283571D02*
X67952560Y-37307761D01*
X67952560Y-37356142D01*
X67928369Y-37380333D01*
X67879988Y-37392428D01*
X67686464Y-37392428D01*
X67638083Y-37380333D01*
X67613893Y-37356142D01*
X67613893Y-37307761D01*
X67638083Y-37283571D01*
X67686464Y-37271476D01*
X67734845Y-37271476D01*
X67783226Y-37392428D01*
D11*
X25600000Y-33120000D02*
X25600000Y-32920000D01*
X25800000Y-32820000D02*
X25800000Y-33220000D01*
X26000000Y-33320000D02*
X26000000Y-32720000D01*
X26200000Y-32620000D02*
X26200000Y-33420000D01*
X26400000Y-33520000D02*
X26400000Y-32520000D01*
X26600000Y-33020000D02*
X27800000Y-33020000D01*
X25400000Y-33020000D02*
X26600000Y-32420000D01*
X26600000Y-32420000D02*
X26600000Y-33620000D01*
X26600000Y-33620000D02*
X25400000Y-33020000D01*
X25400000Y-39020000D02*
X25400000Y-27020000D01*
X28300000Y-27020000D02*
X10500000Y-27020000D01*
X10500000Y-27020000D02*
X10500000Y-39020000D01*
X10500000Y-39020000D02*
X28300000Y-39020000D01*
X28300000Y-39020000D02*
X29300000Y-39020000D01*
X29300000Y-39020000D02*
X29300000Y-27020000D01*
X29300000Y-27020000D02*
X28300000Y-27020000D01*
D14*
X67310000Y-31750000D02*
X67310000Y-26670000D01*
X67590000Y-34570000D02*
X66040000Y-34570000D01*
X64770000Y-34290000D02*
X64770000Y-31750000D01*
X64770000Y-31750000D02*
X67310000Y-31750000D01*
X67310000Y-26670000D02*
X62230000Y-26670000D01*
X62230000Y-26670000D02*
X62230000Y-31750000D01*
X67590000Y-34570000D02*
X67590000Y-33020000D01*
X62230000Y-34290000D02*
X64770000Y-34290000D01*
X62230000Y-31750000D02*
X62230000Y-34290000D01*
D11*
X42480000Y-38900000D02*
X42480000Y-40500000D01*
X42280000Y-38900000D02*
X42280000Y-40450000D01*
X42080000Y-38900000D02*
X42080000Y-40350000D01*
X41880000Y-38900000D02*
X41880000Y-40200000D01*
X41680000Y-38900000D02*
X41680000Y-40100000D01*
X41480000Y-38900000D02*
X41480000Y-39900000D01*
X41280000Y-38900000D02*
X41280000Y-39700000D01*
X40730000Y-37550000D02*
X40730000Y-38650000D01*
X40880000Y-39100000D02*
X40880000Y-37100000D01*
X41080000Y-36700000D02*
X41080000Y-39450000D01*
X41280000Y-37300000D02*
X41280000Y-36500000D01*
X41680000Y-36100000D02*
X41680000Y-37300000D01*
X41480000Y-36300000D02*
X41480000Y-37300000D01*
X41880000Y-37300000D02*
X41880000Y-35950000D01*
X42080000Y-35850000D02*
X42080000Y-37300000D01*
X42280000Y-37300000D02*
X42280000Y-35750000D01*
X42480000Y-35700000D02*
X42480000Y-37300000D01*
X42680000Y-40550000D02*
X42680000Y-35650000D01*
X42880000Y-35650000D02*
X42880000Y-40600000D01*
X43080000Y-40600000D02*
X43080000Y-35600000D01*
D15*
X42680000Y-38850000D02*
X41180000Y-38850000D01*
X41180000Y-38850000D02*
X41180000Y-37350000D01*
X41180000Y-37350000D02*
X42680000Y-37350000D01*
X42680000Y-37350000D02*
X42680000Y-38850000D01*
D14*
X45717500Y-38100000D02*
G75*
G03X45717500Y-38100000I-2537500J0D01*
G01*
X54475000Y-37855000D02*
X54475000Y-36585000D01*
X47125000Y-37855000D02*
X47125000Y-36585000D01*
X47125000Y-25645000D02*
X47125000Y-26915000D01*
X54475000Y-25645000D02*
X54475000Y-26915000D01*
X54475000Y-37855000D02*
X47125000Y-37855000D01*
X54475000Y-25645000D02*
X47125000Y-25645000D01*
X54475000Y-36585000D02*
X55760000Y-36585000D01*
X71120000Y-35560000D02*
X71120000Y-27940000D01*
X68580000Y-35560000D02*
X68580000Y-27940000D01*
X68580000Y-38100000D02*
X68580000Y-35560000D01*
X71120000Y-27940000D02*
X68580000Y-27940000D01*
X68580000Y-35560000D02*
X71120000Y-35560000D01*
X68580000Y-38100000D02*
X71120000Y-38100000D01*
X71120000Y-38100000D02*
X71120000Y-35560000D01*
X73025000Y-31750000D02*
X73025000Y-36830000D01*
X73025000Y-36830000D02*
X75565000Y-36830000D01*
X75565000Y-36830000D02*
X75565000Y-31750000D01*
X75845000Y-28930000D02*
X75845000Y-30480000D01*
X75565000Y-31750000D02*
X73025000Y-31750000D01*
X72745000Y-30480000D02*
X72745000Y-28930000D01*
X72745000Y-28930000D02*
X75845000Y-28930000D01*
X49300000Y-38120000D02*
X52300000Y-38120000D01*
X52300000Y-40620000D02*
X49300000Y-40620000D01*
X56515000Y-36322000D02*
X56515000Y-27178000D01*
X61595000Y-36322000D02*
X56515000Y-36322000D01*
X61595000Y-27178000D02*
X61595000Y-36322000D01*
X56515000Y-27178000D02*
X61595000Y-27178000D01*
X57785000Y-30480000D02*
X57785000Y-35560000D01*
X57785000Y-35560000D02*
X60325000Y-35560000D01*
X60325000Y-35560000D02*
X60325000Y-30480000D01*
X60605000Y-27660000D02*
X60605000Y-29210000D01*
X60325000Y-30480000D02*
X57785000Y-30480000D01*
X57505000Y-29210000D02*
X57505000Y-27660000D01*
X57505000Y-27660000D02*
X60605000Y-27660000D01*
D16*
G36*
X66565780Y-39311580D02*
X66555620Y-39291260D01*
X66525140Y-39243000D01*
X66481960Y-39176960D01*
X66428620Y-39098220D01*
X66375280Y-39019480D01*
X66332100Y-38953440D01*
X66301620Y-38907720D01*
X66291460Y-38889940D01*
X66294000Y-38879780D01*
X66314320Y-38841680D01*
X66342260Y-38785800D01*
X66357500Y-38755320D01*
X66380360Y-38704520D01*
X66385440Y-38679120D01*
X66377820Y-38676580D01*
X66339720Y-38656260D01*
X66273680Y-38628320D01*
X66187320Y-38590220D01*
X66085720Y-38547040D01*
X65976500Y-38501320D01*
X65864740Y-38455600D01*
X65758060Y-38409880D01*
X65661540Y-38371780D01*
X65585340Y-38338760D01*
X65529460Y-38318440D01*
X65506600Y-38310820D01*
X65501520Y-38313360D01*
X65478660Y-38338760D01*
X65445640Y-38381940D01*
X65366900Y-38478460D01*
X65250060Y-38569900D01*
X65117980Y-38628320D01*
X64970660Y-38646100D01*
X64836040Y-38630860D01*
X64706500Y-38577520D01*
X64587120Y-38486080D01*
X64500760Y-38374320D01*
X64444880Y-38244780D01*
X64427100Y-38100000D01*
X64442340Y-37960300D01*
X64495680Y-37828220D01*
X64584580Y-37708840D01*
X64643000Y-37660580D01*
X64762380Y-37592000D01*
X64889380Y-37551360D01*
X64919860Y-37548820D01*
X65062100Y-37553900D01*
X65196720Y-37594540D01*
X65316100Y-37668200D01*
X65415160Y-37772340D01*
X65425320Y-37785040D01*
X65460880Y-37833300D01*
X65483740Y-37863780D01*
X65504060Y-37889180D01*
X65935860Y-37711380D01*
X66004440Y-37683440D01*
X66121280Y-37632640D01*
X66222880Y-37589460D01*
X66304160Y-37556440D01*
X66357500Y-37531040D01*
X66380360Y-37520880D01*
X66380360Y-37520880D01*
X66382900Y-37505640D01*
X66370200Y-37472620D01*
X66342260Y-37411660D01*
X66321940Y-37371020D01*
X66299080Y-37325300D01*
X66291460Y-37304980D01*
X66301620Y-37287200D01*
X66329560Y-37244020D01*
X66372740Y-37180520D01*
X66423540Y-37104320D01*
X66474340Y-37030660D01*
X66520060Y-36962080D01*
X66550540Y-36913820D01*
X66563240Y-36888420D01*
X66563240Y-36885880D01*
X66550540Y-36865560D01*
X66520060Y-36824920D01*
X66464180Y-36766500D01*
X66382900Y-36685220D01*
X66370200Y-36672520D01*
X66299080Y-36603940D01*
X66240660Y-36548060D01*
X66200020Y-36509960D01*
X66182240Y-36497260D01*
X66182240Y-36497260D01*
X66156840Y-36509960D01*
X66108580Y-36540440D01*
X66040000Y-36586160D01*
X65961260Y-36639500D01*
X65752980Y-36781740D01*
X65557400Y-36703000D01*
X65498980Y-36680140D01*
X65425320Y-36649660D01*
X65374520Y-36626800D01*
X65351660Y-36614100D01*
X65344040Y-36593780D01*
X65331340Y-36540440D01*
X65313560Y-36461700D01*
X65298320Y-36370260D01*
X65280540Y-36281360D01*
X65265300Y-36202620D01*
X65255140Y-36144200D01*
X65250060Y-36118800D01*
X65244980Y-36113720D01*
X65232280Y-36108640D01*
X65206880Y-36103560D01*
X65158620Y-36103560D01*
X65082420Y-36101020D01*
X64970660Y-36101020D01*
X64960500Y-36101020D01*
X64853820Y-36103560D01*
X64770000Y-36103560D01*
X64716660Y-36106100D01*
X64696340Y-36111180D01*
X64696340Y-36111180D01*
X64688720Y-36136580D01*
X64678560Y-36192460D01*
X64660780Y-36271200D01*
X64643000Y-36367720D01*
X64643000Y-36372800D01*
X64625220Y-36466780D01*
X64607440Y-36545520D01*
X64594740Y-36601400D01*
X64587120Y-36624260D01*
X64582040Y-36629340D01*
X64543940Y-36649660D01*
X64485520Y-36677600D01*
X64414400Y-36708080D01*
X64340740Y-36738560D01*
X64272160Y-36766500D01*
X64223900Y-36784280D01*
X64201040Y-36789360D01*
X64201040Y-36789360D01*
X64178180Y-36774120D01*
X64127380Y-36741100D01*
X64061340Y-36695380D01*
X63980060Y-36639500D01*
X63972440Y-36636960D01*
X63893700Y-36581080D01*
X63825120Y-36537900D01*
X63776860Y-36507420D01*
X63756540Y-36497260D01*
X63754000Y-36497260D01*
X63731140Y-36515040D01*
X63685420Y-36555680D01*
X63624460Y-36614100D01*
X63553340Y-36685220D01*
X63533020Y-36708080D01*
X63456820Y-36784280D01*
X63406020Y-36837620D01*
X63380620Y-36873180D01*
X63373000Y-36888420D01*
X63375540Y-36888420D01*
X63388240Y-36913820D01*
X63421260Y-36964620D01*
X63469520Y-37033200D01*
X63522860Y-37114480D01*
X63527940Y-37119560D01*
X63581280Y-37198300D01*
X63627000Y-37264340D01*
X63657480Y-37312600D01*
X63670180Y-37332920D01*
X63670180Y-37338000D01*
X63660020Y-37368480D01*
X63642240Y-37426900D01*
X63614300Y-37495480D01*
X63583820Y-37569140D01*
X63555880Y-37637720D01*
X63533020Y-37688520D01*
X63520320Y-37711380D01*
X63517780Y-37711380D01*
X63489840Y-37721540D01*
X63428880Y-37734240D01*
X63347600Y-37752020D01*
X63248540Y-37769800D01*
X63233300Y-37772340D01*
X63139320Y-37790120D01*
X63060580Y-37805360D01*
X63004700Y-37818060D01*
X62981840Y-37823140D01*
X62979300Y-37835840D01*
X62976760Y-37884100D01*
X62974220Y-37955220D01*
X62974220Y-38041580D01*
X62974220Y-38130480D01*
X62976760Y-38216840D01*
X62979300Y-38293040D01*
X62981840Y-38346380D01*
X62986920Y-38369240D01*
X62989460Y-38371780D01*
X63017400Y-38379400D01*
X63078360Y-38392100D01*
X63159640Y-38409880D01*
X63258700Y-38427660D01*
X63276480Y-38430200D01*
X63370460Y-38447980D01*
X63449200Y-38465760D01*
X63502540Y-38475920D01*
X63522860Y-38483540D01*
X63527940Y-38491160D01*
X63545720Y-38529260D01*
X63571120Y-38592760D01*
X63604140Y-38674040D01*
X63677800Y-38856920D01*
X63522860Y-39080440D01*
X63510160Y-39100760D01*
X63454280Y-39182040D01*
X63411100Y-39248080D01*
X63380620Y-39293800D01*
X63370460Y-39314120D01*
X63370460Y-39314120D01*
X63390780Y-39336980D01*
X63431420Y-39382700D01*
X63492380Y-39443660D01*
X63560960Y-39512240D01*
X63614300Y-39565580D01*
X63677800Y-39626540D01*
X63718440Y-39667180D01*
X63746380Y-39687500D01*
X63764160Y-39695120D01*
X63774320Y-39692580D01*
X63797180Y-39679880D01*
X63845440Y-39646860D01*
X63914020Y-39601140D01*
X63992760Y-39545260D01*
X64061340Y-39499540D01*
X64135000Y-39451280D01*
X64188340Y-39420800D01*
X64216280Y-39408100D01*
X64226440Y-39410640D01*
X64269620Y-39428420D01*
X64338200Y-39453820D01*
X64416940Y-39486840D01*
X64594740Y-39565580D01*
X64615060Y-39682420D01*
X64630300Y-39753540D01*
X64648080Y-39852600D01*
X64665860Y-39946580D01*
X64696340Y-40093900D01*
X65234820Y-40098980D01*
X65244980Y-40076120D01*
X65252600Y-40053260D01*
X65262760Y-39999920D01*
X65278000Y-39921180D01*
X65295780Y-39829740D01*
X65311020Y-39751000D01*
X65326260Y-39672260D01*
X65336420Y-39616380D01*
X65341500Y-39590980D01*
X65351660Y-39583360D01*
X65389760Y-39563040D01*
X65450720Y-39535100D01*
X65524380Y-39504620D01*
X65598040Y-39474140D01*
X65669160Y-39446200D01*
X65722500Y-39425880D01*
X65750440Y-39418260D01*
X65770760Y-39428420D01*
X65816480Y-39458900D01*
X65882520Y-39502080D01*
X65961260Y-39555420D01*
X66040000Y-39611300D01*
X66108580Y-39654480D01*
X66156840Y-39687500D01*
X66177160Y-39700200D01*
X66192400Y-39692580D01*
X66230500Y-39662100D01*
X66291460Y-39603680D01*
X66380360Y-39514780D01*
X66393060Y-39499540D01*
X66461640Y-39430960D01*
X66514980Y-39370000D01*
X66553080Y-39329360D01*
X66565780Y-39311580D01*
X66565780Y-39311580D01*
G37*
X66565780Y-39311580D02*
X66555620Y-39291260D01*
X66525140Y-39243000D01*
X66481960Y-39176960D01*
X66428620Y-39098220D01*
X66375280Y-39019480D01*
X66332100Y-38953440D01*
X66301620Y-38907720D01*
X66291460Y-38889940D01*
X66294000Y-38879780D01*
X66314320Y-38841680D01*
X66342260Y-38785800D01*
X66357500Y-38755320D01*
X66380360Y-38704520D01*
X66385440Y-38679120D01*
X66377820Y-38676580D01*
X66339720Y-38656260D01*
X66273680Y-38628320D01*
X66187320Y-38590220D01*
X66085720Y-38547040D01*
X65976500Y-38501320D01*
X65864740Y-38455600D01*
X65758060Y-38409880D01*
X65661540Y-38371780D01*
X65585340Y-38338760D01*
X65529460Y-38318440D01*
X65506600Y-38310820D01*
X65501520Y-38313360D01*
X65478660Y-38338760D01*
X65445640Y-38381940D01*
X65366900Y-38478460D01*
X65250060Y-38569900D01*
X65117980Y-38628320D01*
X64970660Y-38646100D01*
X64836040Y-38630860D01*
X64706500Y-38577520D01*
X64587120Y-38486080D01*
X64500760Y-38374320D01*
X64444880Y-38244780D01*
X64427100Y-38100000D01*
X64442340Y-37960300D01*
X64495680Y-37828220D01*
X64584580Y-37708840D01*
X64643000Y-37660580D01*
X64762380Y-37592000D01*
X64889380Y-37551360D01*
X64919860Y-37548820D01*
X65062100Y-37553900D01*
X65196720Y-37594540D01*
X65316100Y-37668200D01*
X65415160Y-37772340D01*
X65425320Y-37785040D01*
X65460880Y-37833300D01*
X65483740Y-37863780D01*
X65504060Y-37889180D01*
X65935860Y-37711380D01*
X66004440Y-37683440D01*
X66121280Y-37632640D01*
X66222880Y-37589460D01*
X66304160Y-37556440D01*
X66357500Y-37531040D01*
X66380360Y-37520880D01*
X66380360Y-37520880D01*
X66382900Y-37505640D01*
X66370200Y-37472620D01*
X66342260Y-37411660D01*
X66321940Y-37371020D01*
X66299080Y-37325300D01*
X66291460Y-37304980D01*
X66301620Y-37287200D01*
X66329560Y-37244020D01*
X66372740Y-37180520D01*
X66423540Y-37104320D01*
X66474340Y-37030660D01*
X66520060Y-36962080D01*
X66550540Y-36913820D01*
X66563240Y-36888420D01*
X66563240Y-36885880D01*
X66550540Y-36865560D01*
X66520060Y-36824920D01*
X66464180Y-36766500D01*
X66382900Y-36685220D01*
X66370200Y-36672520D01*
X66299080Y-36603940D01*
X66240660Y-36548060D01*
X66200020Y-36509960D01*
X66182240Y-36497260D01*
X66182240Y-36497260D01*
X66156840Y-36509960D01*
X66108580Y-36540440D01*
X66040000Y-36586160D01*
X65961260Y-36639500D01*
X65752980Y-36781740D01*
X65557400Y-36703000D01*
X65498980Y-36680140D01*
X65425320Y-36649660D01*
X65374520Y-36626800D01*
X65351660Y-36614100D01*
X65344040Y-36593780D01*
X65331340Y-36540440D01*
X65313560Y-36461700D01*
X65298320Y-36370260D01*
X65280540Y-36281360D01*
X65265300Y-36202620D01*
X65255140Y-36144200D01*
X65250060Y-36118800D01*
X65244980Y-36113720D01*
X65232280Y-36108640D01*
X65206880Y-36103560D01*
X65158620Y-36103560D01*
X65082420Y-36101020D01*
X64970660Y-36101020D01*
X64960500Y-36101020D01*
X64853820Y-36103560D01*
X64770000Y-36103560D01*
X64716660Y-36106100D01*
X64696340Y-36111180D01*
X64696340Y-36111180D01*
X64688720Y-36136580D01*
X64678560Y-36192460D01*
X64660780Y-36271200D01*
X64643000Y-36367720D01*
X64643000Y-36372800D01*
X64625220Y-36466780D01*
X64607440Y-36545520D01*
X64594740Y-36601400D01*
X64587120Y-36624260D01*
X64582040Y-36629340D01*
X64543940Y-36649660D01*
X64485520Y-36677600D01*
X64414400Y-36708080D01*
X64340740Y-36738560D01*
X64272160Y-36766500D01*
X64223900Y-36784280D01*
X64201040Y-36789360D01*
X64201040Y-36789360D01*
X64178180Y-36774120D01*
X64127380Y-36741100D01*
X64061340Y-36695380D01*
X63980060Y-36639500D01*
X63972440Y-36636960D01*
X63893700Y-36581080D01*
X63825120Y-36537900D01*
X63776860Y-36507420D01*
X63756540Y-36497260D01*
X63754000Y-36497260D01*
X63731140Y-36515040D01*
X63685420Y-36555680D01*
X63624460Y-36614100D01*
X63553340Y-36685220D01*
X63533020Y-36708080D01*
X63456820Y-36784280D01*
X63406020Y-36837620D01*
X63380620Y-36873180D01*
X63373000Y-36888420D01*
X63375540Y-36888420D01*
X63388240Y-36913820D01*
X63421260Y-36964620D01*
X63469520Y-37033200D01*
X63522860Y-37114480D01*
X63527940Y-37119560D01*
X63581280Y-37198300D01*
X63627000Y-37264340D01*
X63657480Y-37312600D01*
X63670180Y-37332920D01*
X63670180Y-37338000D01*
X63660020Y-37368480D01*
X63642240Y-37426900D01*
X63614300Y-37495480D01*
X63583820Y-37569140D01*
X63555880Y-37637720D01*
X63533020Y-37688520D01*
X63520320Y-37711380D01*
X63517780Y-37711380D01*
X63489840Y-37721540D01*
X63428880Y-37734240D01*
X63347600Y-37752020D01*
X63248540Y-37769800D01*
X63233300Y-37772340D01*
X63139320Y-37790120D01*
X63060580Y-37805360D01*
X63004700Y-37818060D01*
X62981840Y-37823140D01*
X62979300Y-37835840D01*
X62976760Y-37884100D01*
X62974220Y-37955220D01*
X62974220Y-38041580D01*
X62974220Y-38130480D01*
X62976760Y-38216840D01*
X62979300Y-38293040D01*
X62981840Y-38346380D01*
X62986920Y-38369240D01*
X62989460Y-38371780D01*
X63017400Y-38379400D01*
X63078360Y-38392100D01*
X63159640Y-38409880D01*
X63258700Y-38427660D01*
X63276480Y-38430200D01*
X63370460Y-38447980D01*
X63449200Y-38465760D01*
X63502540Y-38475920D01*
X63522860Y-38483540D01*
X63527940Y-38491160D01*
X63545720Y-38529260D01*
X63571120Y-38592760D01*
X63604140Y-38674040D01*
X63677800Y-38856920D01*
X63522860Y-39080440D01*
X63510160Y-39100760D01*
X63454280Y-39182040D01*
X63411100Y-39248080D01*
X63380620Y-39293800D01*
X63370460Y-39314120D01*
X63370460Y-39314120D01*
X63390780Y-39336980D01*
X63431420Y-39382700D01*
X63492380Y-39443660D01*
X63560960Y-39512240D01*
X63614300Y-39565580D01*
X63677800Y-39626540D01*
X63718440Y-39667180D01*
X63746380Y-39687500D01*
X63764160Y-39695120D01*
X63774320Y-39692580D01*
X63797180Y-39679880D01*
X63845440Y-39646860D01*
X63914020Y-39601140D01*
X63992760Y-39545260D01*
X64061340Y-39499540D01*
X64135000Y-39451280D01*
X64188340Y-39420800D01*
X64216280Y-39408100D01*
X64226440Y-39410640D01*
X64269620Y-39428420D01*
X64338200Y-39453820D01*
X64416940Y-39486840D01*
X64594740Y-39565580D01*
X64615060Y-39682420D01*
X64630300Y-39753540D01*
X64648080Y-39852600D01*
X64665860Y-39946580D01*
X64696340Y-40093900D01*
X65234820Y-40098980D01*
X65244980Y-40076120D01*
X65252600Y-40053260D01*
X65262760Y-39999920D01*
X65278000Y-39921180D01*
X65295780Y-39829740D01*
X65311020Y-39751000D01*
X65326260Y-39672260D01*
X65336420Y-39616380D01*
X65341500Y-39590980D01*
X65351660Y-39583360D01*
X65389760Y-39563040D01*
X65450720Y-39535100D01*
X65524380Y-39504620D01*
X65598040Y-39474140D01*
X65669160Y-39446200D01*
X65722500Y-39425880D01*
X65750440Y-39418260D01*
X65770760Y-39428420D01*
X65816480Y-39458900D01*
X65882520Y-39502080D01*
X65961260Y-39555420D01*
X66040000Y-39611300D01*
X66108580Y-39654480D01*
X66156840Y-39687500D01*
X66177160Y-39700200D01*
X66192400Y-39692580D01*
X66230500Y-39662100D01*
X66291460Y-39603680D01*
X66380360Y-39514780D01*
X66393060Y-39499540D01*
X66461640Y-39430960D01*
X66514980Y-39370000D01*
X66553080Y-39329360D01*
X66565780Y-39311580D01*
D14*
X37597761Y-30480000D02*
G75*
G03X37597761Y-30480000I-1402761J0D01*
G01*
X37597761Y-35560000D02*
G75*
G03X37597761Y-35560000I-1402761J0D01*
G01*
D11*
X35052000Y-27940000D02*
G75*
G03X35052000Y-27940000I-1397000J0D01*
G01*
X35052000Y-33020000D02*
G75*
G03X35052000Y-33020000I-1397000J0D01*
G01*
X62357000Y-38100000D02*
G75*
G03X62357000Y-38100000I-1397000J0D01*
G01*
X35052000Y-38100000D02*
G75*
G03X35052000Y-38100000I-1397000J0D01*
G01*
D14*
X75823530Y-27559000D02*
G75*
G03X75823530Y-27559000I-1782530J0D01*
G01*
X75823530Y-38481000D02*
G75*
G03X75823530Y-38481000I-1782530J0D01*
G01*
D17*
X27014714Y-36122428D02*
X26252714Y-36122428D01*
X26252714Y-35832143D01*
X26289000Y-35759571D01*
X26325286Y-35723286D01*
X26397857Y-35687000D01*
X26506714Y-35687000D01*
X26579286Y-35723286D01*
X26615571Y-35759571D01*
X26651857Y-35832143D01*
X26651857Y-36122428D01*
X27014714Y-34961286D02*
X27014714Y-35396714D01*
X27014714Y-35179000D02*
X26252714Y-35179000D01*
X26361571Y-35251571D01*
X26434143Y-35324143D01*
X26470429Y-35396714D01*
X26252714Y-32058428D02*
X26869571Y-32058428D01*
X26942143Y-32022143D01*
X26978429Y-31985857D01*
X27014714Y-31913286D01*
X27014714Y-31768143D01*
X26978429Y-31695571D01*
X26942143Y-31659286D01*
X26869571Y-31623000D01*
X26252714Y-31623000D01*
X26978429Y-31296428D02*
X27014714Y-31187571D01*
X27014714Y-31006142D01*
X26978429Y-30933571D01*
X26942143Y-30897285D01*
X26869571Y-30861000D01*
X26797000Y-30861000D01*
X26724429Y-30897285D01*
X26688143Y-30933571D01*
X26651857Y-31006142D01*
X26615571Y-31151285D01*
X26579286Y-31223857D01*
X26543000Y-31260142D01*
X26470429Y-31296428D01*
X26397857Y-31296428D01*
X26325286Y-31260142D01*
X26289000Y-31223857D01*
X26252714Y-31151285D01*
X26252714Y-30969857D01*
X26289000Y-30861000D01*
X26615571Y-30280428D02*
X26651857Y-30171571D01*
X26688143Y-30135286D01*
X26760714Y-30099000D01*
X26869571Y-30099000D01*
X26942143Y-30135286D01*
X26978429Y-30171571D01*
X27014714Y-30244143D01*
X27014714Y-30534428D01*
X26252714Y-30534428D01*
X26252714Y-30280428D01*
X26289000Y-30207857D01*
X26325286Y-30171571D01*
X26397857Y-30135286D01*
X26470429Y-30135286D01*
X26543000Y-30171571D01*
X26579286Y-30207857D01*
X26615571Y-30280428D01*
X26615571Y-30534428D01*
X27087286Y-29953857D02*
X27087286Y-29373286D01*
X26797000Y-29228143D02*
X26797000Y-28865286D01*
X27014714Y-29300715D02*
X26252714Y-29046715D01*
X27014714Y-28792715D01*
X68289714Y-27413856D02*
X67527714Y-27413856D01*
X68253429Y-27087285D02*
X68289714Y-26978428D01*
X68289714Y-26796999D01*
X68253429Y-26724428D01*
X68217143Y-26688142D01*
X68144571Y-26651857D01*
X68072000Y-26651857D01*
X67999429Y-26688142D01*
X67963143Y-26724428D01*
X67926857Y-26796999D01*
X67890571Y-26942142D01*
X67854286Y-27014714D01*
X67818000Y-27050999D01*
X67745429Y-27087285D01*
X67672857Y-27087285D01*
X67600286Y-27050999D01*
X67564000Y-27014714D01*
X67527714Y-26942142D01*
X67527714Y-26760714D01*
X67564000Y-26651857D01*
X68289714Y-26325285D02*
X67527714Y-26325285D01*
X67527714Y-26035000D01*
X67564000Y-25962428D01*
X67600286Y-25926143D01*
X67672857Y-25889857D01*
X67781714Y-25889857D01*
X67854286Y-25926143D01*
X67890571Y-25962428D01*
X67926857Y-26035000D01*
X67926857Y-26325285D01*
X44087143Y-36703000D02*
X44123429Y-36739286D01*
X44159714Y-36848143D01*
X44159714Y-36920714D01*
X44123429Y-37029571D01*
X44050857Y-37102143D01*
X43978286Y-37138428D01*
X43833143Y-37174714D01*
X43724286Y-37174714D01*
X43579143Y-37138428D01*
X43506571Y-37102143D01*
X43434000Y-37029571D01*
X43397714Y-36920714D01*
X43397714Y-36848143D01*
X43434000Y-36739286D01*
X43470286Y-36703000D01*
X43470286Y-36412714D02*
X43434000Y-36376428D01*
X43397714Y-36303857D01*
X43397714Y-36122428D01*
X43434000Y-36049857D01*
X43470286Y-36013571D01*
X43542857Y-35977286D01*
X43615429Y-35977286D01*
X43724286Y-36013571D01*
X44159714Y-36449000D01*
X44159714Y-35977286D01*
X52287714Y-37410571D02*
X52904571Y-37410571D01*
X52977143Y-37374286D01*
X53013429Y-37338000D01*
X53049714Y-37265429D01*
X53049714Y-37120286D01*
X53013429Y-37047714D01*
X52977143Y-37011429D01*
X52904571Y-36975143D01*
X52287714Y-36975143D01*
X53049714Y-36213143D02*
X53049714Y-36648571D01*
X53049714Y-36430857D02*
X52287714Y-36430857D01*
X52396571Y-36503428D01*
X52469143Y-36576000D01*
X52505429Y-36648571D01*
X69795571Y-27377571D02*
X69831857Y-27268714D01*
X69868143Y-27232429D01*
X69940714Y-27196143D01*
X70049571Y-27196143D01*
X70122143Y-27232429D01*
X70158429Y-27268714D01*
X70194714Y-27341286D01*
X70194714Y-27631571D01*
X69432714Y-27631571D01*
X69432714Y-27377571D01*
X69469000Y-27305000D01*
X69505286Y-27268714D01*
X69577857Y-27232429D01*
X69650429Y-27232429D01*
X69723000Y-27268714D01*
X69759286Y-27305000D01*
X69795571Y-27377571D01*
X69795571Y-27631571D01*
X69432714Y-26869571D02*
X70049571Y-26869571D01*
X70122143Y-26833286D01*
X70158429Y-26797000D01*
X70194714Y-26724429D01*
X70194714Y-26579286D01*
X70158429Y-26506714D01*
X70122143Y-26470429D01*
X70049571Y-26434143D01*
X69432714Y-26434143D01*
X69432714Y-26143857D02*
X69432714Y-25635857D01*
X70194714Y-26143857D01*
X70194714Y-25635857D01*
X72099714Y-27540857D02*
X71337714Y-27540857D01*
X72099714Y-27105429D02*
X71664286Y-27432000D01*
X71337714Y-27105429D02*
X71773143Y-27540857D01*
X71700571Y-26778857D02*
X71700571Y-26524857D01*
X72099714Y-26416000D02*
X72099714Y-26778857D01*
X71337714Y-26778857D01*
X71337714Y-26416000D01*
X71736857Y-25944286D02*
X72099714Y-25944286D01*
X71337714Y-26198286D02*
X71736857Y-25944286D01*
X71337714Y-25690286D01*
X51072143Y-39497000D02*
X51108429Y-39533286D01*
X51144714Y-39642143D01*
X51144714Y-39714714D01*
X51108429Y-39823571D01*
X51035857Y-39896143D01*
X50963286Y-39932428D01*
X50818143Y-39968714D01*
X50709286Y-39968714D01*
X50564143Y-39932428D01*
X50491571Y-39896143D01*
X50419000Y-39823571D01*
X50382714Y-39714714D01*
X50382714Y-39642143D01*
X50419000Y-39533286D01*
X50455286Y-39497000D01*
X51144714Y-38771286D02*
X51144714Y-39206714D01*
X51144714Y-38989000D02*
X50382714Y-38989000D01*
X50491571Y-39061571D01*
X50564143Y-39134143D01*
X50600429Y-39206714D01*
X57494714Y-35687000D02*
X57131857Y-35941000D01*
X57494714Y-36122428D02*
X56732714Y-36122428D01*
X56732714Y-35832143D01*
X56769000Y-35759571D01*
X56805286Y-35723286D01*
X56877857Y-35687000D01*
X56986714Y-35687000D01*
X57059286Y-35723286D01*
X57095571Y-35759571D01*
X57131857Y-35832143D01*
X57131857Y-36122428D01*
X56986714Y-35033857D02*
X57494714Y-35033857D01*
X56696429Y-35215286D02*
X57240714Y-35396714D01*
X57240714Y-34925000D01*
X34634714Y-31042428D02*
X33872714Y-31042428D01*
X33872714Y-30861000D01*
X33909000Y-30752143D01*
X33981571Y-30679571D01*
X34054143Y-30643286D01*
X34199286Y-30607000D01*
X34308143Y-30607000D01*
X34453286Y-30643286D01*
X34525857Y-30679571D01*
X34598429Y-30752143D01*
X34634714Y-30861000D01*
X34634714Y-31042428D01*
X34634714Y-29881286D02*
X34634714Y-30316714D01*
X34634714Y-30099000D02*
X33872714Y-30099000D01*
X33981571Y-30171571D01*
X34054143Y-30244143D01*
X34090429Y-30316714D01*
X34634714Y-36122428D02*
X33872714Y-36122428D01*
X33872714Y-35941000D01*
X33909000Y-35832143D01*
X33981571Y-35759571D01*
X34054143Y-35723286D01*
X34199286Y-35687000D01*
X34308143Y-35687000D01*
X34453286Y-35723286D01*
X34525857Y-35759571D01*
X34598429Y-35832143D01*
X34634714Y-35941000D01*
X34634714Y-36122428D01*
X33945286Y-35396714D02*
X33909000Y-35360428D01*
X33872714Y-35287857D01*
X33872714Y-35106428D01*
X33909000Y-35033857D01*
X33945286Y-34997571D01*
X34017857Y-34961286D01*
X34090429Y-34961286D01*
X34199286Y-34997571D01*
X34634714Y-35433000D01*
X34634714Y-34961286D01*
X36539714Y-28067000D02*
X36176857Y-28321000D01*
X36539714Y-28502428D02*
X35777714Y-28502428D01*
X35777714Y-28212143D01*
X35814000Y-28139571D01*
X35850286Y-28103286D01*
X35922857Y-28067000D01*
X36031714Y-28067000D01*
X36104286Y-28103286D01*
X36140571Y-28139571D01*
X36176857Y-28212143D01*
X36176857Y-28502428D01*
X36539714Y-27341286D02*
X36539714Y-27776714D01*
X36539714Y-27559000D02*
X35777714Y-27559000D01*
X35886571Y-27631571D01*
X35959143Y-27704143D01*
X35995429Y-27776714D01*
X36539714Y-33147000D02*
X36176857Y-33401000D01*
X36539714Y-33582428D02*
X35777714Y-33582428D01*
X35777714Y-33292143D01*
X35814000Y-33219571D01*
X35850286Y-33183286D01*
X35922857Y-33147000D01*
X36031714Y-33147000D01*
X36104286Y-33183286D01*
X36140571Y-33219571D01*
X36176857Y-33292143D01*
X36176857Y-33582428D01*
X35850286Y-32856714D02*
X35814000Y-32820428D01*
X35777714Y-32747857D01*
X35777714Y-32566428D01*
X35814000Y-32493857D01*
X35850286Y-32457571D01*
X35922857Y-32421286D01*
X35995429Y-32421286D01*
X36104286Y-32457571D01*
X36539714Y-32893000D01*
X36539714Y-32421286D01*
X58764714Y-38227000D02*
X58401857Y-38481000D01*
X58764714Y-38662428D02*
X58002714Y-38662428D01*
X58002714Y-38372143D01*
X58039000Y-38299571D01*
X58075286Y-38263286D01*
X58147857Y-38227000D01*
X58256714Y-38227000D01*
X58329286Y-38263286D01*
X58365571Y-38299571D01*
X58401857Y-38372143D01*
X58401857Y-38662428D01*
X58002714Y-37537571D02*
X58002714Y-37900428D01*
X58365571Y-37936714D01*
X58329286Y-37900428D01*
X58293000Y-37827857D01*
X58293000Y-37646428D01*
X58329286Y-37573857D01*
X58365571Y-37537571D01*
X58438143Y-37501286D01*
X58619571Y-37501286D01*
X58692143Y-37537571D01*
X58728429Y-37573857D01*
X58764714Y-37646428D01*
X58764714Y-37827857D01*
X58728429Y-37900428D01*
X58692143Y-37936714D01*
X36539714Y-38227000D02*
X36176857Y-38481000D01*
X36539714Y-38662428D02*
X35777714Y-38662428D01*
X35777714Y-38372143D01*
X35814000Y-38299571D01*
X35850286Y-38263286D01*
X35922857Y-38227000D01*
X36031714Y-38227000D01*
X36104286Y-38263286D01*
X36140571Y-38299571D01*
X36176857Y-38372143D01*
X36176857Y-38662428D01*
X35777714Y-37973000D02*
X35777714Y-37501286D01*
X36068000Y-37755286D01*
X36068000Y-37646428D01*
X36104286Y-37573857D01*
X36140571Y-37537571D01*
X36213143Y-37501286D01*
X36394571Y-37501286D01*
X36467143Y-37537571D01*
X36503429Y-37573857D01*
X36539714Y-37646428D01*
X36539714Y-37864143D01*
X36503429Y-37936714D01*
X36467143Y-37973000D01*
%LPC*%
D18*
X30400000Y-36520000D03*
X30400000Y-34020000D03*
X30400000Y-32020000D03*
X30400000Y-29520000D03*
D19*
X28300000Y-38870000D03*
X28300000Y-27170000D03*
D20*
X28300000Y-30720000D03*
X28300000Y-35320000D03*
D21*
X66040000Y-33020000D03*
D22*
X63500000Y-33020000D03*
X66040000Y-30480000D03*
X63500000Y-30480000D03*
X66040000Y-27940000D03*
D23*
X63500000Y-27940000D03*
D24*
X44450000Y-38100000D03*
D25*
X41910000Y-38100000D03*
D26*
X54610000Y-35560000D03*
X54610000Y-33020000D03*
X54610000Y-30480000D03*
X54610000Y-27940000D03*
X46990000Y-27940000D03*
X46990000Y-30480000D03*
X46990000Y-33020000D03*
X46990000Y-35560000D03*
D27*
X69850000Y-36830000D03*
X69850000Y-34290000D03*
D28*
X69850000Y-31750000D03*
X69850000Y-29210000D03*
D27*
X74295000Y-30480000D03*
D28*
X74295000Y-33020000D03*
D27*
X74295000Y-35560000D03*
D24*
X49530000Y-39370000D03*
X52070000Y-39370000D03*
D27*
X59055000Y-29210000D03*
X59055000Y-31750000D03*
X59055000Y-34290000D03*
D29*
X36195000Y-30480000D03*
X38735000Y-30480000D03*
X36195000Y-35560000D03*
X38735000Y-35560000D03*
X33655000Y-27940000D03*
X38735000Y-27940000D03*
X33655000Y-33020000D03*
X38735000Y-33020000D03*
X60960000Y-38100000D03*
X55880000Y-38100000D03*
X33655000Y-38100000D03*
X38735000Y-38100000D03*
D30*
X74041000Y-27559000D03*
X74041000Y-38481000D03*
M02*
