G04 #@! TF.FileFunction,Copper,L2,Bot,Signal*
%FSLAX46Y46*%
G04 Gerber Fmt 4.6, Leading zero omitted, Abs format (unit mm)*
G04 Created by KiCad (PCBNEW 4.0.6-e0-6349~53~ubuntu16.04.1) date Wed Jun 21 13:20:40 2017*
%MOMM*%
%LPD*%
G01*
G04 APERTURE LIST*
%ADD10C,0.101600*%
%ADD11C,1.600000*%
%ADD12C,3.200000*%
%ADD13C,1.800000*%
%ADD14C,1.727200*%
%ADD15O,1.727200X1.727200*%
%ADD16R,1.727200X1.727200*%
%ADD17C,1.320800*%
%ADD18R,1.320800X1.320800*%
%ADD19O,2.540000X1.574800*%
%ADD20O,2.286000X1.651000*%
%ADD21R,2.286000X1.651000*%
%ADD22C,2.032000*%
%ADD23C,3.000000*%
%ADD24C,0.750000*%
%ADD25C,0.250000*%
%ADD26C,0.254000*%
G04 APERTURE END LIST*
D10*
D11*
X30400000Y-36520000D03*
X30400000Y-34020000D03*
X30400000Y-32020000D03*
X30400000Y-29520000D03*
D12*
X28300000Y-38870000D03*
X28300000Y-27170000D03*
D13*
X28300000Y-30720000D03*
X28300000Y-35320000D03*
D14*
X66040000Y-33020000D03*
D15*
X63500000Y-33020000D03*
X66040000Y-30480000D03*
X63500000Y-30480000D03*
X66040000Y-27940000D03*
D16*
X63500000Y-27940000D03*
D17*
X44450000Y-38100000D03*
D18*
X41910000Y-38100000D03*
D19*
X54610000Y-35560000D03*
X54610000Y-33020000D03*
X54610000Y-30480000D03*
X54610000Y-27940000D03*
X46990000Y-27940000D03*
X46990000Y-30480000D03*
X46990000Y-33020000D03*
X46990000Y-35560000D03*
D20*
X69850000Y-36830000D03*
X69850000Y-34290000D03*
D21*
X69850000Y-31750000D03*
X69850000Y-29210000D03*
D20*
X74295000Y-30480000D03*
D21*
X74295000Y-33020000D03*
D20*
X74295000Y-35560000D03*
D17*
X49530000Y-39370000D03*
X52070000Y-39370000D03*
D20*
X59055000Y-29210000D03*
X59055000Y-31750000D03*
X59055000Y-34290000D03*
D22*
X36195000Y-30480000D03*
X38735000Y-30480000D03*
X36195000Y-35560000D03*
X38735000Y-35560000D03*
X33655000Y-27940000D03*
X38735000Y-27940000D03*
X33655000Y-33020000D03*
X38735000Y-33020000D03*
X60960000Y-38100000D03*
X55880000Y-38100000D03*
X33655000Y-38100000D03*
X38735000Y-38100000D03*
D23*
X74041000Y-27559000D03*
X74041000Y-38481000D03*
D24*
X63500000Y-33020000D02*
X62230000Y-33020000D01*
X60960000Y-31750000D02*
X60960000Y-30797500D01*
X62230000Y-33020000D02*
X60960000Y-31750000D01*
X59372500Y-29210000D02*
X59055000Y-29210000D01*
X60960000Y-30797500D02*
X59372500Y-29210000D01*
X48895000Y-26035000D02*
X35560000Y-26035000D01*
X35560000Y-26035000D02*
X33655000Y-27940000D01*
X57785000Y-26035000D02*
X48895000Y-26035000D01*
X48895000Y-34925000D02*
X48895000Y-26035000D01*
X48260000Y-35560000D02*
X48895000Y-34925000D01*
X46990000Y-35560000D02*
X48260000Y-35560000D01*
X59055000Y-27305000D02*
X59055000Y-29210000D01*
X57785000Y-26035000D02*
X59055000Y-27305000D01*
X30400000Y-29520000D02*
X29500000Y-29520000D01*
X29500000Y-29520000D02*
X28300000Y-30720000D01*
X71755000Y-29210000D02*
X69850000Y-29210000D01*
X71755000Y-33020000D02*
X71755000Y-29210000D01*
X52070000Y-37465000D02*
X47879000Y-37465000D01*
X45720000Y-39624000D02*
X43434000Y-39624000D01*
X47879000Y-37465000D02*
X45720000Y-39624000D01*
X43434000Y-39624000D02*
X41910000Y-38100000D01*
X40640000Y-30480000D02*
X38735000Y-30480000D01*
X41910000Y-31750000D02*
X40640000Y-30480000D01*
X41910000Y-38100000D02*
X41910000Y-31750000D01*
X71755000Y-38100000D02*
X71120000Y-38735000D01*
X65405000Y-36195000D02*
X67945000Y-38735000D01*
X67945000Y-38735000D02*
X71120000Y-38735000D01*
X57785000Y-36195000D02*
X65405000Y-36195000D01*
X55880000Y-38100000D02*
X57785000Y-36195000D01*
X52070000Y-37465000D02*
X53340000Y-37465000D01*
X53975000Y-38100000D02*
X55880000Y-38100000D01*
X53340000Y-37465000D02*
X53975000Y-38100000D01*
X71755000Y-33020000D02*
X71755000Y-38100000D01*
X38735000Y-35560000D02*
X41910000Y-35560000D01*
X41910000Y-38100000D02*
X41910000Y-35560000D01*
X71755000Y-33020000D02*
X71755000Y-32385000D01*
X74295000Y-33020000D02*
X71755000Y-33020000D01*
X52070000Y-37465000D02*
X52070000Y-28575000D01*
X52070000Y-39370000D02*
X52070000Y-37465000D01*
X52070000Y-28575000D02*
X52705000Y-27940000D01*
X52705000Y-27940000D02*
X54610000Y-27940000D01*
X28300000Y-30720000D02*
X28300000Y-27170000D01*
X28300000Y-35320000D02*
X28300000Y-30720000D01*
X28300000Y-38870000D02*
X28300000Y-35320000D01*
X69850000Y-29210000D02*
X69850000Y-31750000D01*
D25*
X30400000Y-34020000D02*
X32655000Y-34020000D01*
X32655000Y-34020000D02*
X33655000Y-33020000D01*
X69850000Y-34290000D02*
X68580000Y-34290000D01*
X66040000Y-33020000D02*
X67261314Y-33020000D01*
X67261314Y-33020000D02*
X68531314Y-34290000D01*
X68531314Y-34290000D02*
X68580000Y-34290000D01*
X66040000Y-27940000D02*
X64770000Y-29210000D01*
X64770000Y-29210000D02*
X64770000Y-34290000D01*
X64770000Y-34290000D02*
X64135000Y-34925000D01*
X64135000Y-34925000D02*
X62230000Y-34925000D01*
X62230000Y-34925000D02*
X61595000Y-34290000D01*
X61595000Y-34290000D02*
X59055000Y-31750000D01*
D26*
G36*
X33930011Y-26416239D02*
X33353188Y-26415736D01*
X32792851Y-26647262D01*
X32363769Y-27075596D01*
X32131265Y-27635528D01*
X32130736Y-28241812D01*
X32362262Y-28802149D01*
X32790596Y-29231231D01*
X33350528Y-29463735D01*
X33956812Y-29464264D01*
X34517149Y-29232738D01*
X34946231Y-28804404D01*
X35178735Y-28244472D01*
X35179241Y-27664509D01*
X35925750Y-26918000D01*
X37601640Y-26918000D01*
X37443769Y-27075596D01*
X37211265Y-27635528D01*
X37210736Y-28241812D01*
X37442262Y-28802149D01*
X37806344Y-29166866D01*
X37750498Y-29315893D01*
X38735000Y-30300395D01*
X39719502Y-29315893D01*
X39663515Y-29166488D01*
X40026231Y-28804404D01*
X40258735Y-28244472D01*
X40259264Y-27638188D01*
X40027738Y-27077851D01*
X39868166Y-26918000D01*
X45715242Y-26918000D01*
X45556581Y-27024014D01*
X45275773Y-27444272D01*
X45177167Y-27940000D01*
X45275773Y-28435728D01*
X45556581Y-28855986D01*
X45976839Y-29136794D01*
X46344872Y-29210000D01*
X45976839Y-29283206D01*
X45556581Y-29564014D01*
X45275773Y-29984272D01*
X45177167Y-30480000D01*
X45275773Y-30975728D01*
X45556581Y-31395986D01*
X45976839Y-31676794D01*
X46344872Y-31750000D01*
X45976839Y-31823206D01*
X45556581Y-32104014D01*
X45275773Y-32524272D01*
X45177167Y-33020000D01*
X45275773Y-33515728D01*
X45556581Y-33935986D01*
X45976839Y-34216794D01*
X46344872Y-34290000D01*
X45976839Y-34363206D01*
X45556581Y-34644014D01*
X45275773Y-35064272D01*
X45177167Y-35560000D01*
X45275773Y-36055728D01*
X45556581Y-36475986D01*
X45976839Y-36756794D01*
X46472567Y-36855400D01*
X47507433Y-36855400D01*
X48003161Y-36756794D01*
X48423419Y-36475986D01*
X48473887Y-36400456D01*
X48597910Y-36375786D01*
X48884375Y-36184375D01*
X49519376Y-35549375D01*
X49710786Y-35262910D01*
X49778000Y-34925000D01*
X49778000Y-28287060D01*
X52747990Y-28287060D01*
X52764673Y-28366996D01*
X53031809Y-28855986D01*
X53465738Y-29205525D01*
X53676492Y-29267362D01*
X53596839Y-29283206D01*
X53176581Y-29564014D01*
X52895773Y-29984272D01*
X52797167Y-30480000D01*
X52895773Y-30975728D01*
X53176581Y-31395986D01*
X53596839Y-31676794D01*
X53964872Y-31750000D01*
X53596839Y-31823206D01*
X53176581Y-32104014D01*
X52895773Y-32524272D01*
X52797167Y-33020000D01*
X52895773Y-33515728D01*
X53176581Y-33935986D01*
X53596839Y-34216794D01*
X53964872Y-34290000D01*
X53596839Y-34363206D01*
X53176581Y-34644014D01*
X52895773Y-35064272D01*
X52797167Y-35560000D01*
X52895773Y-36055728D01*
X53176581Y-36475986D01*
X53596839Y-36756794D01*
X54092567Y-36855400D01*
X54925662Y-36855400D01*
X54895498Y-36935893D01*
X55880000Y-37920395D01*
X56864502Y-36935893D01*
X56763880Y-36667378D01*
X56148358Y-36438184D01*
X56066699Y-36441145D01*
X56324227Y-36055728D01*
X56422833Y-35560000D01*
X56324227Y-35064272D01*
X56043419Y-34644014D01*
X55623161Y-34363206D01*
X55255128Y-34290000D01*
X55623161Y-34216794D01*
X56043419Y-33935986D01*
X56324227Y-33515728D01*
X56422833Y-33020000D01*
X56324227Y-32524272D01*
X56043419Y-32104014D01*
X55623161Y-31823206D01*
X55255128Y-31750000D01*
X55623161Y-31676794D01*
X56043419Y-31395986D01*
X56324227Y-30975728D01*
X56422833Y-30480000D01*
X56324227Y-29984272D01*
X56043419Y-29564014D01*
X55623161Y-29283206D01*
X55543508Y-29267362D01*
X55754262Y-29205525D01*
X56188191Y-28855986D01*
X56455327Y-28366996D01*
X56472010Y-28287060D01*
X56349852Y-28067000D01*
X54737000Y-28067000D01*
X54737000Y-28087000D01*
X54483000Y-28087000D01*
X54483000Y-28067000D01*
X52870148Y-28067000D01*
X52747990Y-28287060D01*
X49778000Y-28287060D01*
X49778000Y-26918000D01*
X53163418Y-26918000D01*
X53031809Y-27024014D01*
X52764673Y-27513004D01*
X52747990Y-27592940D01*
X52870148Y-27813000D01*
X54483000Y-27813000D01*
X54483000Y-27793000D01*
X54737000Y-27793000D01*
X54737000Y-27813000D01*
X56349852Y-27813000D01*
X56472010Y-27592940D01*
X56455327Y-27513004D01*
X56188191Y-27024014D01*
X56056582Y-26918000D01*
X57419250Y-26918000D01*
X58172000Y-27670750D01*
X58172000Y-27993273D01*
X57762228Y-28267073D01*
X57473162Y-28699692D01*
X57371655Y-29210000D01*
X57473162Y-29720308D01*
X57762228Y-30152927D01*
X58194847Y-30441993D01*
X58385920Y-30480000D01*
X58194847Y-30518007D01*
X57762228Y-30807073D01*
X57473162Y-31239692D01*
X57371655Y-31750000D01*
X57473162Y-32260308D01*
X57762228Y-32692927D01*
X58194847Y-32981993D01*
X58385920Y-33020000D01*
X58194847Y-33058007D01*
X57762228Y-33347073D01*
X57473162Y-33779692D01*
X57371655Y-34290000D01*
X57473162Y-34800308D01*
X57762228Y-35232927D01*
X58194847Y-35521993D01*
X58705155Y-35623500D01*
X59404845Y-35623500D01*
X59915153Y-35521993D01*
X60347772Y-35232927D01*
X60636838Y-34800308D01*
X60731950Y-34322148D01*
X61147399Y-34737596D01*
X61147401Y-34737599D01*
X61782399Y-35372596D01*
X61782401Y-35372599D01*
X61987761Y-35509816D01*
X62027952Y-35517810D01*
X62230000Y-35558001D01*
X62230005Y-35558000D01*
X64134995Y-35558000D01*
X64135000Y-35558001D01*
X64377239Y-35509816D01*
X64582599Y-35372599D01*
X65217596Y-34737601D01*
X65217599Y-34737599D01*
X65354816Y-34532239D01*
X65362810Y-34492048D01*
X65403001Y-34290000D01*
X65403000Y-34289995D01*
X65403000Y-34240641D01*
X65765975Y-34391361D01*
X66311631Y-34391837D01*
X66815934Y-34183464D01*
X67173068Y-33826952D01*
X68083713Y-34737596D01*
X68083715Y-34737599D01*
X68289075Y-34874816D01*
X68322372Y-34881439D01*
X68557228Y-35232927D01*
X68989847Y-35521993D01*
X69180920Y-35560000D01*
X68989847Y-35598007D01*
X68557228Y-35887073D01*
X68268162Y-36319692D01*
X68166655Y-36830000D01*
X68268162Y-37340308D01*
X68557228Y-37772927D01*
X68989847Y-38061993D01*
X69500155Y-38163500D01*
X70199845Y-38163500D01*
X70710153Y-38061993D01*
X71142772Y-37772927D01*
X71431838Y-37340308D01*
X71533345Y-36830000D01*
X71431838Y-36319692D01*
X71142772Y-35887073D01*
X70710153Y-35598007D01*
X70519080Y-35560000D01*
X70710153Y-35521993D01*
X71142772Y-35232927D01*
X71431838Y-34800308D01*
X71533345Y-34290000D01*
X71431838Y-33779692D01*
X71142772Y-33347073D01*
X70938376Y-33210500D01*
X71119310Y-33210500D01*
X71352699Y-33113827D01*
X71531327Y-32935198D01*
X71628000Y-32701809D01*
X71628000Y-32035750D01*
X71469250Y-31877000D01*
X69977000Y-31877000D01*
X69977000Y-31897000D01*
X69723000Y-31897000D01*
X69723000Y-31877000D01*
X68230750Y-31877000D01*
X68072000Y-32035750D01*
X68072000Y-32701809D01*
X68168673Y-32935198D01*
X68347301Y-33113827D01*
X68580690Y-33210500D01*
X68761624Y-33210500D01*
X68557228Y-33347073D01*
X68527731Y-33391219D01*
X67708913Y-32572401D01*
X67503553Y-32435184D01*
X67262631Y-32387261D01*
X67203464Y-32244066D01*
X66817963Y-31857892D01*
X66564452Y-31752625D01*
X66591760Y-31747193D01*
X67036739Y-31449868D01*
X67334064Y-31004889D01*
X67438471Y-30480000D01*
X67334064Y-29955111D01*
X67036739Y-29510132D01*
X67015215Y-29495750D01*
X68072000Y-29495750D01*
X68072000Y-30161809D01*
X68168673Y-30395198D01*
X68253475Y-30480000D01*
X68168673Y-30564802D01*
X68072000Y-30798191D01*
X68072000Y-31464250D01*
X68230750Y-31623000D01*
X69723000Y-31623000D01*
X69723000Y-29337000D01*
X69977000Y-29337000D01*
X69977000Y-31623000D01*
X71469250Y-31623000D01*
X71628000Y-31464250D01*
X71628000Y-30798191D01*
X71531327Y-30564802D01*
X71446525Y-30480000D01*
X71531327Y-30395198D01*
X71628000Y-30161809D01*
X71628000Y-29495750D01*
X71469250Y-29337000D01*
X69977000Y-29337000D01*
X69723000Y-29337000D01*
X68230750Y-29337000D01*
X68072000Y-29495750D01*
X67015215Y-29495750D01*
X66591760Y-29212807D01*
X66577648Y-29210000D01*
X66591760Y-29207193D01*
X67036739Y-28909868D01*
X67334064Y-28464889D01*
X67375178Y-28258191D01*
X68072000Y-28258191D01*
X68072000Y-28924250D01*
X68230750Y-29083000D01*
X69723000Y-29083000D01*
X69723000Y-27908250D01*
X69977000Y-27908250D01*
X69977000Y-29083000D01*
X71469250Y-29083000D01*
X71628000Y-28924250D01*
X71628000Y-28258191D01*
X71531327Y-28024802D01*
X71352699Y-27846173D01*
X71119310Y-27749500D01*
X70135750Y-27749500D01*
X69977000Y-27908250D01*
X69723000Y-27908250D01*
X69564250Y-27749500D01*
X68580690Y-27749500D01*
X68347301Y-27846173D01*
X68168673Y-28024802D01*
X68072000Y-28258191D01*
X67375178Y-28258191D01*
X67438471Y-27940000D01*
X67334064Y-27415111D01*
X67036739Y-26970132D01*
X66591760Y-26672807D01*
X66066871Y-26568400D01*
X66013129Y-26568400D01*
X65488240Y-26672807D01*
X65043261Y-26970132D01*
X64998600Y-27036972D01*
X64998600Y-26950090D01*
X64901927Y-26716701D01*
X64723298Y-26538073D01*
X64489909Y-26441400D01*
X63785750Y-26441400D01*
X63627000Y-26600150D01*
X63627000Y-27813000D01*
X63647000Y-27813000D01*
X63647000Y-28067000D01*
X63627000Y-28067000D01*
X63627000Y-28087000D01*
X63373000Y-28087000D01*
X63373000Y-28067000D01*
X62160150Y-28067000D01*
X62001400Y-28225750D01*
X62001400Y-28929910D01*
X62098073Y-29163299D01*
X62276702Y-29341927D01*
X62510091Y-29438600D01*
X62610316Y-29438600D01*
X62503261Y-29510132D01*
X62205936Y-29955111D01*
X62101529Y-30480000D01*
X62205936Y-31004889D01*
X62503261Y-31449868D01*
X62948240Y-31747193D01*
X62962352Y-31750000D01*
X62948240Y-31752807D01*
X62506631Y-32047881D01*
X61843000Y-31384250D01*
X61843000Y-30797500D01*
X61796714Y-30564802D01*
X61775786Y-30459590D01*
X61584375Y-30173125D01*
X60718918Y-29307668D01*
X60738345Y-29210000D01*
X60636838Y-28699692D01*
X60347772Y-28267073D01*
X59938000Y-27993273D01*
X59938000Y-27305000D01*
X59870786Y-26967091D01*
X59859427Y-26950090D01*
X62001400Y-26950090D01*
X62001400Y-27654250D01*
X62160150Y-27813000D01*
X63373000Y-27813000D01*
X63373000Y-26600150D01*
X63214250Y-26441400D01*
X62510091Y-26441400D01*
X62276702Y-26538073D01*
X62098073Y-26716701D01*
X62001400Y-26950090D01*
X59859427Y-26950090D01*
X59679375Y-26680625D01*
X58981750Y-25983000D01*
X72777531Y-25983000D01*
X72339693Y-26420074D01*
X72033349Y-27157832D01*
X72032652Y-27956664D01*
X72337708Y-28694955D01*
X72902074Y-29260307D01*
X73219300Y-29392031D01*
X73002228Y-29537073D01*
X72713162Y-29969692D01*
X72611655Y-30480000D01*
X72713162Y-30990308D01*
X73002228Y-31422927D01*
X73206624Y-31559500D01*
X73025691Y-31559500D01*
X72792302Y-31656173D01*
X72613673Y-31834801D01*
X72517000Y-32068190D01*
X72517000Y-32734250D01*
X72675750Y-32893000D01*
X74168000Y-32893000D01*
X74168000Y-32873000D01*
X74422000Y-32873000D01*
X74422000Y-32893000D01*
X74442000Y-32893000D01*
X74442000Y-33147000D01*
X74422000Y-33147000D01*
X74422000Y-33167000D01*
X74168000Y-33167000D01*
X74168000Y-33147000D01*
X72675750Y-33147000D01*
X72517000Y-33305750D01*
X72517000Y-33971810D01*
X72613673Y-34205199D01*
X72792302Y-34383827D01*
X73025691Y-34480500D01*
X73206624Y-34480500D01*
X73002228Y-34617073D01*
X72713162Y-35049692D01*
X72611655Y-35560000D01*
X72713162Y-36070308D01*
X73002228Y-36502927D01*
X73219199Y-36647902D01*
X72905045Y-36777708D01*
X72339693Y-37342074D01*
X72033349Y-38079832D01*
X72032652Y-38878664D01*
X72337708Y-39616955D01*
X72776986Y-40057000D01*
X53139051Y-40057000D01*
X53208229Y-40039991D01*
X53377981Y-39553410D01*
X53361464Y-39264107D01*
X54895498Y-39264107D01*
X54996120Y-39532622D01*
X55611642Y-39761816D01*
X56268019Y-39738014D01*
X56763880Y-39532622D01*
X56864502Y-39264107D01*
X55880000Y-38279605D01*
X54895498Y-39264107D01*
X53361464Y-39264107D01*
X53348605Y-39038906D01*
X53208229Y-38700009D01*
X52976558Y-38643047D01*
X52249605Y-39370000D01*
X52263748Y-39384143D01*
X52084143Y-39563748D01*
X52070000Y-39549605D01*
X52055858Y-39563748D01*
X51876253Y-39384143D01*
X51890395Y-39370000D01*
X51163442Y-38643047D01*
X50931771Y-38700009D01*
X50762019Y-39186590D01*
X50791395Y-39701094D01*
X50931771Y-40039991D01*
X51000949Y-40057000D01*
X50495610Y-40057000D01*
X50519943Y-40032709D01*
X50698196Y-39603429D01*
X50698602Y-39138611D01*
X50521099Y-38709019D01*
X50275950Y-38463442D01*
X51343047Y-38463442D01*
X52070000Y-39190395D01*
X52796953Y-38463442D01*
X52739991Y-38231771D01*
X52253410Y-38062019D01*
X51738906Y-38091395D01*
X51400009Y-38231771D01*
X51343047Y-38463442D01*
X50275950Y-38463442D01*
X50192709Y-38380057D01*
X49763429Y-38201804D01*
X49298611Y-38201398D01*
X48869019Y-38378901D01*
X48540057Y-38707291D01*
X48361804Y-39136571D01*
X48361398Y-39601389D01*
X48538901Y-40030981D01*
X48564875Y-40057000D01*
X30234167Y-40057000D01*
X30542026Y-39277654D01*
X30527583Y-38401812D01*
X32130736Y-38401812D01*
X32362262Y-38962149D01*
X32790596Y-39391231D01*
X33350528Y-39623735D01*
X33956812Y-39624264D01*
X34517149Y-39392738D01*
X34946231Y-38964404D01*
X35178735Y-38404472D01*
X35178737Y-38401812D01*
X37210736Y-38401812D01*
X37442262Y-38962149D01*
X37870596Y-39391231D01*
X38430528Y-39623735D01*
X39036812Y-39624264D01*
X39597149Y-39392738D01*
X40026231Y-38964404D01*
X40258735Y-38404472D01*
X40258751Y-38385750D01*
X40614600Y-38385750D01*
X40614600Y-38886710D01*
X40711273Y-39120099D01*
X40889902Y-39298727D01*
X41123291Y-39395400D01*
X41624250Y-39395400D01*
X41783000Y-39236650D01*
X41783000Y-38227000D01*
X42037000Y-38227000D01*
X42037000Y-39236650D01*
X42195750Y-39395400D01*
X42696709Y-39395400D01*
X42930098Y-39298727D01*
X43108727Y-39120099D01*
X43205400Y-38886710D01*
X43205400Y-38385750D01*
X43151039Y-38331389D01*
X43281398Y-38331389D01*
X43458901Y-38760981D01*
X43787291Y-39089943D01*
X44216571Y-39268196D01*
X44681389Y-39268602D01*
X45110981Y-39091099D01*
X45439943Y-38762709D01*
X45618196Y-38333429D01*
X45618602Y-37868611D01*
X45603327Y-37831642D01*
X54218184Y-37831642D01*
X54241986Y-38488019D01*
X54447378Y-38983880D01*
X54715893Y-39084502D01*
X55700395Y-38100000D01*
X56059605Y-38100000D01*
X57044107Y-39084502D01*
X57312622Y-38983880D01*
X57529359Y-38401812D01*
X59435736Y-38401812D01*
X59667262Y-38962149D01*
X60095596Y-39391231D01*
X60655528Y-39623735D01*
X61261812Y-39624264D01*
X61822149Y-39392738D01*
X62251231Y-38964404D01*
X62483735Y-38404472D01*
X62484264Y-37798188D01*
X62252738Y-37237851D01*
X61824404Y-36808769D01*
X61264472Y-36576265D01*
X60658188Y-36575736D01*
X60097851Y-36807262D01*
X59668769Y-37235596D01*
X59436265Y-37795528D01*
X59435736Y-38401812D01*
X57529359Y-38401812D01*
X57541816Y-38368358D01*
X57518014Y-37711981D01*
X57312622Y-37216120D01*
X57044107Y-37115498D01*
X56059605Y-38100000D01*
X55700395Y-38100000D01*
X54715893Y-37115498D01*
X54447378Y-37216120D01*
X54218184Y-37831642D01*
X45603327Y-37831642D01*
X45441099Y-37439019D01*
X45112709Y-37110057D01*
X44683429Y-36931804D01*
X44218611Y-36931398D01*
X43789019Y-37108901D01*
X43460057Y-37437291D01*
X43281804Y-37866571D01*
X43281398Y-38331389D01*
X43151039Y-38331389D01*
X43046650Y-38227000D01*
X42037000Y-38227000D01*
X41783000Y-38227000D01*
X40773350Y-38227000D01*
X40614600Y-38385750D01*
X40258751Y-38385750D01*
X40259264Y-37798188D01*
X40058909Y-37313290D01*
X40614600Y-37313290D01*
X40614600Y-37814250D01*
X40773350Y-37973000D01*
X41783000Y-37973000D01*
X41783000Y-36963350D01*
X42037000Y-36963350D01*
X42037000Y-37973000D01*
X43046650Y-37973000D01*
X43205400Y-37814250D01*
X43205400Y-37313290D01*
X43108727Y-37079901D01*
X42930098Y-36901273D01*
X42696709Y-36804600D01*
X42195750Y-36804600D01*
X42037000Y-36963350D01*
X41783000Y-36963350D01*
X41624250Y-36804600D01*
X41123291Y-36804600D01*
X40889902Y-36901273D01*
X40711273Y-37079901D01*
X40614600Y-37313290D01*
X40058909Y-37313290D01*
X40027738Y-37237851D01*
X39663656Y-36873134D01*
X39719502Y-36724107D01*
X38735000Y-35739605D01*
X37750498Y-36724107D01*
X37806485Y-36873512D01*
X37443769Y-37235596D01*
X37211265Y-37795528D01*
X37210736Y-38401812D01*
X35178737Y-38401812D01*
X35179264Y-37798188D01*
X34947738Y-37237851D01*
X34519404Y-36808769D01*
X33959472Y-36576265D01*
X33353188Y-36575736D01*
X32792851Y-36807262D01*
X32363769Y-37235596D01*
X32131265Y-37795528D01*
X32130736Y-38401812D01*
X30527583Y-38401812D01*
X30527365Y-38388637D01*
X30295104Y-37827908D01*
X30659036Y-37828226D01*
X31139954Y-37629515D01*
X31508222Y-37261890D01*
X31707772Y-36781319D01*
X31708226Y-36260964D01*
X31543300Y-35861812D01*
X34670736Y-35861812D01*
X34902262Y-36422149D01*
X35330596Y-36851231D01*
X35890528Y-37083735D01*
X36496812Y-37084264D01*
X37057149Y-36852738D01*
X37421866Y-36488656D01*
X37570893Y-36544502D01*
X38555395Y-35560000D01*
X38914605Y-35560000D01*
X39899107Y-36544502D01*
X40167622Y-36443880D01*
X40396816Y-35828358D01*
X40373014Y-35171981D01*
X40167622Y-34676120D01*
X39899107Y-34575498D01*
X38914605Y-35560000D01*
X38555395Y-35560000D01*
X37570893Y-34575498D01*
X37421488Y-34631485D01*
X37059404Y-34268769D01*
X36499472Y-34036265D01*
X35893188Y-34035736D01*
X35332851Y-34267262D01*
X34903769Y-34695596D01*
X34671265Y-35255528D01*
X34670736Y-35861812D01*
X31543300Y-35861812D01*
X31509515Y-35780046D01*
X31141890Y-35411778D01*
X30800202Y-35269897D01*
X31139954Y-35129515D01*
X31508222Y-34761890D01*
X31553437Y-34653000D01*
X32654995Y-34653000D01*
X32655000Y-34653001D01*
X32897239Y-34604816D01*
X33102599Y-34467599D01*
X33121545Y-34448653D01*
X33350528Y-34543735D01*
X33956812Y-34544264D01*
X34517149Y-34312738D01*
X34946231Y-33884404D01*
X35178735Y-33324472D01*
X35178737Y-33321812D01*
X37210736Y-33321812D01*
X37442262Y-33882149D01*
X37806344Y-34246866D01*
X37750498Y-34395893D01*
X38735000Y-35380395D01*
X39719502Y-34395893D01*
X39663515Y-34246488D01*
X40026231Y-33884404D01*
X40258735Y-33324472D01*
X40259264Y-32718188D01*
X40027738Y-32157851D01*
X39663656Y-31793134D01*
X39719502Y-31644107D01*
X38735000Y-30659605D01*
X37750498Y-31644107D01*
X37806485Y-31793512D01*
X37443769Y-32155596D01*
X37211265Y-32715528D01*
X37210736Y-33321812D01*
X35178737Y-33321812D01*
X35179264Y-32718188D01*
X34947738Y-32157851D01*
X34519404Y-31728769D01*
X33959472Y-31496265D01*
X33353188Y-31495736D01*
X32792851Y-31727262D01*
X32363769Y-32155596D01*
X32131265Y-32715528D01*
X32130736Y-33321812D01*
X32157671Y-33387000D01*
X31553707Y-33387000D01*
X31509515Y-33280046D01*
X31249792Y-33019869D01*
X31508222Y-32761890D01*
X31707772Y-32281319D01*
X31708226Y-31760964D01*
X31509515Y-31280046D01*
X31141890Y-30911778D01*
X30981668Y-30845248D01*
X31134816Y-30781812D01*
X34670736Y-30781812D01*
X34902262Y-31342149D01*
X35330596Y-31771231D01*
X35890528Y-32003735D01*
X36496812Y-32004264D01*
X37057149Y-31772738D01*
X37421866Y-31408656D01*
X37570893Y-31464502D01*
X38555395Y-30480000D01*
X38914605Y-30480000D01*
X39899107Y-31464502D01*
X40167622Y-31363880D01*
X40396816Y-30748358D01*
X40373014Y-30091981D01*
X40167622Y-29596120D01*
X39899107Y-29495498D01*
X38914605Y-30480000D01*
X38555395Y-30480000D01*
X37570893Y-29495498D01*
X37421488Y-29551485D01*
X37059404Y-29188769D01*
X36499472Y-28956265D01*
X35893188Y-28955736D01*
X35332851Y-29187262D01*
X34903769Y-29615596D01*
X34671265Y-30175528D01*
X34670736Y-30781812D01*
X31134816Y-30781812D01*
X31154005Y-30773864D01*
X31228139Y-30527745D01*
X30400000Y-29699605D01*
X30385858Y-29713748D01*
X30206252Y-29534142D01*
X30220395Y-29520000D01*
X30579605Y-29520000D01*
X31407745Y-30348139D01*
X31653864Y-30274005D01*
X31846965Y-29736777D01*
X31819778Y-29166546D01*
X31653864Y-28765995D01*
X31407745Y-28691861D01*
X30579605Y-29520000D01*
X30220395Y-29520000D01*
X30206253Y-29505858D01*
X30385858Y-29326252D01*
X30400000Y-29340395D01*
X31228139Y-28512255D01*
X31154005Y-28266136D01*
X30616777Y-28073035D01*
X30341148Y-28086176D01*
X30542026Y-27577654D01*
X30527365Y-26688637D01*
X30235081Y-25983000D01*
X34363250Y-25983000D01*
X33930011Y-26416239D01*
X33930011Y-26416239D01*
G37*
X33930011Y-26416239D02*
X33353188Y-26415736D01*
X32792851Y-26647262D01*
X32363769Y-27075596D01*
X32131265Y-27635528D01*
X32130736Y-28241812D01*
X32362262Y-28802149D01*
X32790596Y-29231231D01*
X33350528Y-29463735D01*
X33956812Y-29464264D01*
X34517149Y-29232738D01*
X34946231Y-28804404D01*
X35178735Y-28244472D01*
X35179241Y-27664509D01*
X35925750Y-26918000D01*
X37601640Y-26918000D01*
X37443769Y-27075596D01*
X37211265Y-27635528D01*
X37210736Y-28241812D01*
X37442262Y-28802149D01*
X37806344Y-29166866D01*
X37750498Y-29315893D01*
X38735000Y-30300395D01*
X39719502Y-29315893D01*
X39663515Y-29166488D01*
X40026231Y-28804404D01*
X40258735Y-28244472D01*
X40259264Y-27638188D01*
X40027738Y-27077851D01*
X39868166Y-26918000D01*
X45715242Y-26918000D01*
X45556581Y-27024014D01*
X45275773Y-27444272D01*
X45177167Y-27940000D01*
X45275773Y-28435728D01*
X45556581Y-28855986D01*
X45976839Y-29136794D01*
X46344872Y-29210000D01*
X45976839Y-29283206D01*
X45556581Y-29564014D01*
X45275773Y-29984272D01*
X45177167Y-30480000D01*
X45275773Y-30975728D01*
X45556581Y-31395986D01*
X45976839Y-31676794D01*
X46344872Y-31750000D01*
X45976839Y-31823206D01*
X45556581Y-32104014D01*
X45275773Y-32524272D01*
X45177167Y-33020000D01*
X45275773Y-33515728D01*
X45556581Y-33935986D01*
X45976839Y-34216794D01*
X46344872Y-34290000D01*
X45976839Y-34363206D01*
X45556581Y-34644014D01*
X45275773Y-35064272D01*
X45177167Y-35560000D01*
X45275773Y-36055728D01*
X45556581Y-36475986D01*
X45976839Y-36756794D01*
X46472567Y-36855400D01*
X47507433Y-36855400D01*
X48003161Y-36756794D01*
X48423419Y-36475986D01*
X48473887Y-36400456D01*
X48597910Y-36375786D01*
X48884375Y-36184375D01*
X49519376Y-35549375D01*
X49710786Y-35262910D01*
X49778000Y-34925000D01*
X49778000Y-28287060D01*
X52747990Y-28287060D01*
X52764673Y-28366996D01*
X53031809Y-28855986D01*
X53465738Y-29205525D01*
X53676492Y-29267362D01*
X53596839Y-29283206D01*
X53176581Y-29564014D01*
X52895773Y-29984272D01*
X52797167Y-30480000D01*
X52895773Y-30975728D01*
X53176581Y-31395986D01*
X53596839Y-31676794D01*
X53964872Y-31750000D01*
X53596839Y-31823206D01*
X53176581Y-32104014D01*
X52895773Y-32524272D01*
X52797167Y-33020000D01*
X52895773Y-33515728D01*
X53176581Y-33935986D01*
X53596839Y-34216794D01*
X53964872Y-34290000D01*
X53596839Y-34363206D01*
X53176581Y-34644014D01*
X52895773Y-35064272D01*
X52797167Y-35560000D01*
X52895773Y-36055728D01*
X53176581Y-36475986D01*
X53596839Y-36756794D01*
X54092567Y-36855400D01*
X54925662Y-36855400D01*
X54895498Y-36935893D01*
X55880000Y-37920395D01*
X56864502Y-36935893D01*
X56763880Y-36667378D01*
X56148358Y-36438184D01*
X56066699Y-36441145D01*
X56324227Y-36055728D01*
X56422833Y-35560000D01*
X56324227Y-35064272D01*
X56043419Y-34644014D01*
X55623161Y-34363206D01*
X55255128Y-34290000D01*
X55623161Y-34216794D01*
X56043419Y-33935986D01*
X56324227Y-33515728D01*
X56422833Y-33020000D01*
X56324227Y-32524272D01*
X56043419Y-32104014D01*
X55623161Y-31823206D01*
X55255128Y-31750000D01*
X55623161Y-31676794D01*
X56043419Y-31395986D01*
X56324227Y-30975728D01*
X56422833Y-30480000D01*
X56324227Y-29984272D01*
X56043419Y-29564014D01*
X55623161Y-29283206D01*
X55543508Y-29267362D01*
X55754262Y-29205525D01*
X56188191Y-28855986D01*
X56455327Y-28366996D01*
X56472010Y-28287060D01*
X56349852Y-28067000D01*
X54737000Y-28067000D01*
X54737000Y-28087000D01*
X54483000Y-28087000D01*
X54483000Y-28067000D01*
X52870148Y-28067000D01*
X52747990Y-28287060D01*
X49778000Y-28287060D01*
X49778000Y-26918000D01*
X53163418Y-26918000D01*
X53031809Y-27024014D01*
X52764673Y-27513004D01*
X52747990Y-27592940D01*
X52870148Y-27813000D01*
X54483000Y-27813000D01*
X54483000Y-27793000D01*
X54737000Y-27793000D01*
X54737000Y-27813000D01*
X56349852Y-27813000D01*
X56472010Y-27592940D01*
X56455327Y-27513004D01*
X56188191Y-27024014D01*
X56056582Y-26918000D01*
X57419250Y-26918000D01*
X58172000Y-27670750D01*
X58172000Y-27993273D01*
X57762228Y-28267073D01*
X57473162Y-28699692D01*
X57371655Y-29210000D01*
X57473162Y-29720308D01*
X57762228Y-30152927D01*
X58194847Y-30441993D01*
X58385920Y-30480000D01*
X58194847Y-30518007D01*
X57762228Y-30807073D01*
X57473162Y-31239692D01*
X57371655Y-31750000D01*
X57473162Y-32260308D01*
X57762228Y-32692927D01*
X58194847Y-32981993D01*
X58385920Y-33020000D01*
X58194847Y-33058007D01*
X57762228Y-33347073D01*
X57473162Y-33779692D01*
X57371655Y-34290000D01*
X57473162Y-34800308D01*
X57762228Y-35232927D01*
X58194847Y-35521993D01*
X58705155Y-35623500D01*
X59404845Y-35623500D01*
X59915153Y-35521993D01*
X60347772Y-35232927D01*
X60636838Y-34800308D01*
X60731950Y-34322148D01*
X61147399Y-34737596D01*
X61147401Y-34737599D01*
X61782399Y-35372596D01*
X61782401Y-35372599D01*
X61987761Y-35509816D01*
X62027952Y-35517810D01*
X62230000Y-35558001D01*
X62230005Y-35558000D01*
X64134995Y-35558000D01*
X64135000Y-35558001D01*
X64377239Y-35509816D01*
X64582599Y-35372599D01*
X65217596Y-34737601D01*
X65217599Y-34737599D01*
X65354816Y-34532239D01*
X65362810Y-34492048D01*
X65403001Y-34290000D01*
X65403000Y-34289995D01*
X65403000Y-34240641D01*
X65765975Y-34391361D01*
X66311631Y-34391837D01*
X66815934Y-34183464D01*
X67173068Y-33826952D01*
X68083713Y-34737596D01*
X68083715Y-34737599D01*
X68289075Y-34874816D01*
X68322372Y-34881439D01*
X68557228Y-35232927D01*
X68989847Y-35521993D01*
X69180920Y-35560000D01*
X68989847Y-35598007D01*
X68557228Y-35887073D01*
X68268162Y-36319692D01*
X68166655Y-36830000D01*
X68268162Y-37340308D01*
X68557228Y-37772927D01*
X68989847Y-38061993D01*
X69500155Y-38163500D01*
X70199845Y-38163500D01*
X70710153Y-38061993D01*
X71142772Y-37772927D01*
X71431838Y-37340308D01*
X71533345Y-36830000D01*
X71431838Y-36319692D01*
X71142772Y-35887073D01*
X70710153Y-35598007D01*
X70519080Y-35560000D01*
X70710153Y-35521993D01*
X71142772Y-35232927D01*
X71431838Y-34800308D01*
X71533345Y-34290000D01*
X71431838Y-33779692D01*
X71142772Y-33347073D01*
X70938376Y-33210500D01*
X71119310Y-33210500D01*
X71352699Y-33113827D01*
X71531327Y-32935198D01*
X71628000Y-32701809D01*
X71628000Y-32035750D01*
X71469250Y-31877000D01*
X69977000Y-31877000D01*
X69977000Y-31897000D01*
X69723000Y-31897000D01*
X69723000Y-31877000D01*
X68230750Y-31877000D01*
X68072000Y-32035750D01*
X68072000Y-32701809D01*
X68168673Y-32935198D01*
X68347301Y-33113827D01*
X68580690Y-33210500D01*
X68761624Y-33210500D01*
X68557228Y-33347073D01*
X68527731Y-33391219D01*
X67708913Y-32572401D01*
X67503553Y-32435184D01*
X67262631Y-32387261D01*
X67203464Y-32244066D01*
X66817963Y-31857892D01*
X66564452Y-31752625D01*
X66591760Y-31747193D01*
X67036739Y-31449868D01*
X67334064Y-31004889D01*
X67438471Y-30480000D01*
X67334064Y-29955111D01*
X67036739Y-29510132D01*
X67015215Y-29495750D01*
X68072000Y-29495750D01*
X68072000Y-30161809D01*
X68168673Y-30395198D01*
X68253475Y-30480000D01*
X68168673Y-30564802D01*
X68072000Y-30798191D01*
X68072000Y-31464250D01*
X68230750Y-31623000D01*
X69723000Y-31623000D01*
X69723000Y-29337000D01*
X69977000Y-29337000D01*
X69977000Y-31623000D01*
X71469250Y-31623000D01*
X71628000Y-31464250D01*
X71628000Y-30798191D01*
X71531327Y-30564802D01*
X71446525Y-30480000D01*
X71531327Y-30395198D01*
X71628000Y-30161809D01*
X71628000Y-29495750D01*
X71469250Y-29337000D01*
X69977000Y-29337000D01*
X69723000Y-29337000D01*
X68230750Y-29337000D01*
X68072000Y-29495750D01*
X67015215Y-29495750D01*
X66591760Y-29212807D01*
X66577648Y-29210000D01*
X66591760Y-29207193D01*
X67036739Y-28909868D01*
X67334064Y-28464889D01*
X67375178Y-28258191D01*
X68072000Y-28258191D01*
X68072000Y-28924250D01*
X68230750Y-29083000D01*
X69723000Y-29083000D01*
X69723000Y-27908250D01*
X69977000Y-27908250D01*
X69977000Y-29083000D01*
X71469250Y-29083000D01*
X71628000Y-28924250D01*
X71628000Y-28258191D01*
X71531327Y-28024802D01*
X71352699Y-27846173D01*
X71119310Y-27749500D01*
X70135750Y-27749500D01*
X69977000Y-27908250D01*
X69723000Y-27908250D01*
X69564250Y-27749500D01*
X68580690Y-27749500D01*
X68347301Y-27846173D01*
X68168673Y-28024802D01*
X68072000Y-28258191D01*
X67375178Y-28258191D01*
X67438471Y-27940000D01*
X67334064Y-27415111D01*
X67036739Y-26970132D01*
X66591760Y-26672807D01*
X66066871Y-26568400D01*
X66013129Y-26568400D01*
X65488240Y-26672807D01*
X65043261Y-26970132D01*
X64998600Y-27036972D01*
X64998600Y-26950090D01*
X64901927Y-26716701D01*
X64723298Y-26538073D01*
X64489909Y-26441400D01*
X63785750Y-26441400D01*
X63627000Y-26600150D01*
X63627000Y-27813000D01*
X63647000Y-27813000D01*
X63647000Y-28067000D01*
X63627000Y-28067000D01*
X63627000Y-28087000D01*
X63373000Y-28087000D01*
X63373000Y-28067000D01*
X62160150Y-28067000D01*
X62001400Y-28225750D01*
X62001400Y-28929910D01*
X62098073Y-29163299D01*
X62276702Y-29341927D01*
X62510091Y-29438600D01*
X62610316Y-29438600D01*
X62503261Y-29510132D01*
X62205936Y-29955111D01*
X62101529Y-30480000D01*
X62205936Y-31004889D01*
X62503261Y-31449868D01*
X62948240Y-31747193D01*
X62962352Y-31750000D01*
X62948240Y-31752807D01*
X62506631Y-32047881D01*
X61843000Y-31384250D01*
X61843000Y-30797500D01*
X61796714Y-30564802D01*
X61775786Y-30459590D01*
X61584375Y-30173125D01*
X60718918Y-29307668D01*
X60738345Y-29210000D01*
X60636838Y-28699692D01*
X60347772Y-28267073D01*
X59938000Y-27993273D01*
X59938000Y-27305000D01*
X59870786Y-26967091D01*
X59859427Y-26950090D01*
X62001400Y-26950090D01*
X62001400Y-27654250D01*
X62160150Y-27813000D01*
X63373000Y-27813000D01*
X63373000Y-26600150D01*
X63214250Y-26441400D01*
X62510091Y-26441400D01*
X62276702Y-26538073D01*
X62098073Y-26716701D01*
X62001400Y-26950090D01*
X59859427Y-26950090D01*
X59679375Y-26680625D01*
X58981750Y-25983000D01*
X72777531Y-25983000D01*
X72339693Y-26420074D01*
X72033349Y-27157832D01*
X72032652Y-27956664D01*
X72337708Y-28694955D01*
X72902074Y-29260307D01*
X73219300Y-29392031D01*
X73002228Y-29537073D01*
X72713162Y-29969692D01*
X72611655Y-30480000D01*
X72713162Y-30990308D01*
X73002228Y-31422927D01*
X73206624Y-31559500D01*
X73025691Y-31559500D01*
X72792302Y-31656173D01*
X72613673Y-31834801D01*
X72517000Y-32068190D01*
X72517000Y-32734250D01*
X72675750Y-32893000D01*
X74168000Y-32893000D01*
X74168000Y-32873000D01*
X74422000Y-32873000D01*
X74422000Y-32893000D01*
X74442000Y-32893000D01*
X74442000Y-33147000D01*
X74422000Y-33147000D01*
X74422000Y-33167000D01*
X74168000Y-33167000D01*
X74168000Y-33147000D01*
X72675750Y-33147000D01*
X72517000Y-33305750D01*
X72517000Y-33971810D01*
X72613673Y-34205199D01*
X72792302Y-34383827D01*
X73025691Y-34480500D01*
X73206624Y-34480500D01*
X73002228Y-34617073D01*
X72713162Y-35049692D01*
X72611655Y-35560000D01*
X72713162Y-36070308D01*
X73002228Y-36502927D01*
X73219199Y-36647902D01*
X72905045Y-36777708D01*
X72339693Y-37342074D01*
X72033349Y-38079832D01*
X72032652Y-38878664D01*
X72337708Y-39616955D01*
X72776986Y-40057000D01*
X53139051Y-40057000D01*
X53208229Y-40039991D01*
X53377981Y-39553410D01*
X53361464Y-39264107D01*
X54895498Y-39264107D01*
X54996120Y-39532622D01*
X55611642Y-39761816D01*
X56268019Y-39738014D01*
X56763880Y-39532622D01*
X56864502Y-39264107D01*
X55880000Y-38279605D01*
X54895498Y-39264107D01*
X53361464Y-39264107D01*
X53348605Y-39038906D01*
X53208229Y-38700009D01*
X52976558Y-38643047D01*
X52249605Y-39370000D01*
X52263748Y-39384143D01*
X52084143Y-39563748D01*
X52070000Y-39549605D01*
X52055858Y-39563748D01*
X51876253Y-39384143D01*
X51890395Y-39370000D01*
X51163442Y-38643047D01*
X50931771Y-38700009D01*
X50762019Y-39186590D01*
X50791395Y-39701094D01*
X50931771Y-40039991D01*
X51000949Y-40057000D01*
X50495610Y-40057000D01*
X50519943Y-40032709D01*
X50698196Y-39603429D01*
X50698602Y-39138611D01*
X50521099Y-38709019D01*
X50275950Y-38463442D01*
X51343047Y-38463442D01*
X52070000Y-39190395D01*
X52796953Y-38463442D01*
X52739991Y-38231771D01*
X52253410Y-38062019D01*
X51738906Y-38091395D01*
X51400009Y-38231771D01*
X51343047Y-38463442D01*
X50275950Y-38463442D01*
X50192709Y-38380057D01*
X49763429Y-38201804D01*
X49298611Y-38201398D01*
X48869019Y-38378901D01*
X48540057Y-38707291D01*
X48361804Y-39136571D01*
X48361398Y-39601389D01*
X48538901Y-40030981D01*
X48564875Y-40057000D01*
X30234167Y-40057000D01*
X30542026Y-39277654D01*
X30527583Y-38401812D01*
X32130736Y-38401812D01*
X32362262Y-38962149D01*
X32790596Y-39391231D01*
X33350528Y-39623735D01*
X33956812Y-39624264D01*
X34517149Y-39392738D01*
X34946231Y-38964404D01*
X35178735Y-38404472D01*
X35178737Y-38401812D01*
X37210736Y-38401812D01*
X37442262Y-38962149D01*
X37870596Y-39391231D01*
X38430528Y-39623735D01*
X39036812Y-39624264D01*
X39597149Y-39392738D01*
X40026231Y-38964404D01*
X40258735Y-38404472D01*
X40258751Y-38385750D01*
X40614600Y-38385750D01*
X40614600Y-38886710D01*
X40711273Y-39120099D01*
X40889902Y-39298727D01*
X41123291Y-39395400D01*
X41624250Y-39395400D01*
X41783000Y-39236650D01*
X41783000Y-38227000D01*
X42037000Y-38227000D01*
X42037000Y-39236650D01*
X42195750Y-39395400D01*
X42696709Y-39395400D01*
X42930098Y-39298727D01*
X43108727Y-39120099D01*
X43205400Y-38886710D01*
X43205400Y-38385750D01*
X43151039Y-38331389D01*
X43281398Y-38331389D01*
X43458901Y-38760981D01*
X43787291Y-39089943D01*
X44216571Y-39268196D01*
X44681389Y-39268602D01*
X45110981Y-39091099D01*
X45439943Y-38762709D01*
X45618196Y-38333429D01*
X45618602Y-37868611D01*
X45603327Y-37831642D01*
X54218184Y-37831642D01*
X54241986Y-38488019D01*
X54447378Y-38983880D01*
X54715893Y-39084502D01*
X55700395Y-38100000D01*
X56059605Y-38100000D01*
X57044107Y-39084502D01*
X57312622Y-38983880D01*
X57529359Y-38401812D01*
X59435736Y-38401812D01*
X59667262Y-38962149D01*
X60095596Y-39391231D01*
X60655528Y-39623735D01*
X61261812Y-39624264D01*
X61822149Y-39392738D01*
X62251231Y-38964404D01*
X62483735Y-38404472D01*
X62484264Y-37798188D01*
X62252738Y-37237851D01*
X61824404Y-36808769D01*
X61264472Y-36576265D01*
X60658188Y-36575736D01*
X60097851Y-36807262D01*
X59668769Y-37235596D01*
X59436265Y-37795528D01*
X59435736Y-38401812D01*
X57529359Y-38401812D01*
X57541816Y-38368358D01*
X57518014Y-37711981D01*
X57312622Y-37216120D01*
X57044107Y-37115498D01*
X56059605Y-38100000D01*
X55700395Y-38100000D01*
X54715893Y-37115498D01*
X54447378Y-37216120D01*
X54218184Y-37831642D01*
X45603327Y-37831642D01*
X45441099Y-37439019D01*
X45112709Y-37110057D01*
X44683429Y-36931804D01*
X44218611Y-36931398D01*
X43789019Y-37108901D01*
X43460057Y-37437291D01*
X43281804Y-37866571D01*
X43281398Y-38331389D01*
X43151039Y-38331389D01*
X43046650Y-38227000D01*
X42037000Y-38227000D01*
X41783000Y-38227000D01*
X40773350Y-38227000D01*
X40614600Y-38385750D01*
X40258751Y-38385750D01*
X40259264Y-37798188D01*
X40058909Y-37313290D01*
X40614600Y-37313290D01*
X40614600Y-37814250D01*
X40773350Y-37973000D01*
X41783000Y-37973000D01*
X41783000Y-36963350D01*
X42037000Y-36963350D01*
X42037000Y-37973000D01*
X43046650Y-37973000D01*
X43205400Y-37814250D01*
X43205400Y-37313290D01*
X43108727Y-37079901D01*
X42930098Y-36901273D01*
X42696709Y-36804600D01*
X42195750Y-36804600D01*
X42037000Y-36963350D01*
X41783000Y-36963350D01*
X41624250Y-36804600D01*
X41123291Y-36804600D01*
X40889902Y-36901273D01*
X40711273Y-37079901D01*
X40614600Y-37313290D01*
X40058909Y-37313290D01*
X40027738Y-37237851D01*
X39663656Y-36873134D01*
X39719502Y-36724107D01*
X38735000Y-35739605D01*
X37750498Y-36724107D01*
X37806485Y-36873512D01*
X37443769Y-37235596D01*
X37211265Y-37795528D01*
X37210736Y-38401812D01*
X35178737Y-38401812D01*
X35179264Y-37798188D01*
X34947738Y-37237851D01*
X34519404Y-36808769D01*
X33959472Y-36576265D01*
X33353188Y-36575736D01*
X32792851Y-36807262D01*
X32363769Y-37235596D01*
X32131265Y-37795528D01*
X32130736Y-38401812D01*
X30527583Y-38401812D01*
X30527365Y-38388637D01*
X30295104Y-37827908D01*
X30659036Y-37828226D01*
X31139954Y-37629515D01*
X31508222Y-37261890D01*
X31707772Y-36781319D01*
X31708226Y-36260964D01*
X31543300Y-35861812D01*
X34670736Y-35861812D01*
X34902262Y-36422149D01*
X35330596Y-36851231D01*
X35890528Y-37083735D01*
X36496812Y-37084264D01*
X37057149Y-36852738D01*
X37421866Y-36488656D01*
X37570893Y-36544502D01*
X38555395Y-35560000D01*
X38914605Y-35560000D01*
X39899107Y-36544502D01*
X40167622Y-36443880D01*
X40396816Y-35828358D01*
X40373014Y-35171981D01*
X40167622Y-34676120D01*
X39899107Y-34575498D01*
X38914605Y-35560000D01*
X38555395Y-35560000D01*
X37570893Y-34575498D01*
X37421488Y-34631485D01*
X37059404Y-34268769D01*
X36499472Y-34036265D01*
X35893188Y-34035736D01*
X35332851Y-34267262D01*
X34903769Y-34695596D01*
X34671265Y-35255528D01*
X34670736Y-35861812D01*
X31543300Y-35861812D01*
X31509515Y-35780046D01*
X31141890Y-35411778D01*
X30800202Y-35269897D01*
X31139954Y-35129515D01*
X31508222Y-34761890D01*
X31553437Y-34653000D01*
X32654995Y-34653000D01*
X32655000Y-34653001D01*
X32897239Y-34604816D01*
X33102599Y-34467599D01*
X33121545Y-34448653D01*
X33350528Y-34543735D01*
X33956812Y-34544264D01*
X34517149Y-34312738D01*
X34946231Y-33884404D01*
X35178735Y-33324472D01*
X35178737Y-33321812D01*
X37210736Y-33321812D01*
X37442262Y-33882149D01*
X37806344Y-34246866D01*
X37750498Y-34395893D01*
X38735000Y-35380395D01*
X39719502Y-34395893D01*
X39663515Y-34246488D01*
X40026231Y-33884404D01*
X40258735Y-33324472D01*
X40259264Y-32718188D01*
X40027738Y-32157851D01*
X39663656Y-31793134D01*
X39719502Y-31644107D01*
X38735000Y-30659605D01*
X37750498Y-31644107D01*
X37806485Y-31793512D01*
X37443769Y-32155596D01*
X37211265Y-32715528D01*
X37210736Y-33321812D01*
X35178737Y-33321812D01*
X35179264Y-32718188D01*
X34947738Y-32157851D01*
X34519404Y-31728769D01*
X33959472Y-31496265D01*
X33353188Y-31495736D01*
X32792851Y-31727262D01*
X32363769Y-32155596D01*
X32131265Y-32715528D01*
X32130736Y-33321812D01*
X32157671Y-33387000D01*
X31553707Y-33387000D01*
X31509515Y-33280046D01*
X31249792Y-33019869D01*
X31508222Y-32761890D01*
X31707772Y-32281319D01*
X31708226Y-31760964D01*
X31509515Y-31280046D01*
X31141890Y-30911778D01*
X30981668Y-30845248D01*
X31134816Y-30781812D01*
X34670736Y-30781812D01*
X34902262Y-31342149D01*
X35330596Y-31771231D01*
X35890528Y-32003735D01*
X36496812Y-32004264D01*
X37057149Y-31772738D01*
X37421866Y-31408656D01*
X37570893Y-31464502D01*
X38555395Y-30480000D01*
X38914605Y-30480000D01*
X39899107Y-31464502D01*
X40167622Y-31363880D01*
X40396816Y-30748358D01*
X40373014Y-30091981D01*
X40167622Y-29596120D01*
X39899107Y-29495498D01*
X38914605Y-30480000D01*
X38555395Y-30480000D01*
X37570893Y-29495498D01*
X37421488Y-29551485D01*
X37059404Y-29188769D01*
X36499472Y-28956265D01*
X35893188Y-28955736D01*
X35332851Y-29187262D01*
X34903769Y-29615596D01*
X34671265Y-30175528D01*
X34670736Y-30781812D01*
X31134816Y-30781812D01*
X31154005Y-30773864D01*
X31228139Y-30527745D01*
X30400000Y-29699605D01*
X30385858Y-29713748D01*
X30206252Y-29534142D01*
X30220395Y-29520000D01*
X30579605Y-29520000D01*
X31407745Y-30348139D01*
X31653864Y-30274005D01*
X31846965Y-29736777D01*
X31819778Y-29166546D01*
X31653864Y-28765995D01*
X31407745Y-28691861D01*
X30579605Y-29520000D01*
X30220395Y-29520000D01*
X30206253Y-29505858D01*
X30385858Y-29326252D01*
X30400000Y-29340395D01*
X31228139Y-28512255D01*
X31154005Y-28266136D01*
X30616777Y-28073035D01*
X30341148Y-28086176D01*
X30542026Y-27577654D01*
X30527365Y-26688637D01*
X30235081Y-25983000D01*
X34363250Y-25983000D01*
X33930011Y-26416239D01*
G36*
X26072635Y-27651363D02*
X26384640Y-28404610D01*
X26713798Y-28576597D01*
X28120395Y-27170000D01*
X28106253Y-27155858D01*
X28285858Y-26976253D01*
X28300000Y-26990395D01*
X28314143Y-26976253D01*
X28493748Y-27155858D01*
X28479605Y-27170000D01*
X28493748Y-27184143D01*
X28314143Y-27363748D01*
X28300000Y-27349605D01*
X26893403Y-28756202D01*
X27065390Y-29085360D01*
X27648852Y-29315840D01*
X27485852Y-29383357D01*
X27399446Y-29639841D01*
X28300000Y-30540395D01*
X28314143Y-30526253D01*
X28493748Y-30705858D01*
X28479605Y-30720000D01*
X28493748Y-30734143D01*
X28314143Y-30913748D01*
X28300000Y-30899605D01*
X27399446Y-31800159D01*
X27485852Y-32056643D01*
X28059336Y-32266458D01*
X28669460Y-32240839D01*
X29091960Y-32065834D01*
X29091774Y-32279036D01*
X29290485Y-32759954D01*
X29550208Y-33020131D01*
X29291778Y-33278110D01*
X29092228Y-33758681D01*
X29092039Y-33975268D01*
X28540664Y-33773542D01*
X27930540Y-33799161D01*
X27485852Y-33983357D01*
X27399446Y-34239841D01*
X28300000Y-35140395D01*
X28314143Y-35126253D01*
X28493748Y-35305858D01*
X28479605Y-35320000D01*
X28493748Y-35334143D01*
X28314143Y-35513748D01*
X28300000Y-35499605D01*
X27399446Y-36400159D01*
X27485852Y-36656643D01*
X27644601Y-36714723D01*
X27065390Y-36954640D01*
X26893403Y-37283798D01*
X28300000Y-38690395D01*
X28314143Y-38676253D01*
X28493748Y-38855858D01*
X28479605Y-38870000D01*
X28493748Y-38884143D01*
X28314143Y-39063748D01*
X28300000Y-39049605D01*
X28285858Y-39063748D01*
X28106253Y-38884143D01*
X28120395Y-38870000D01*
X26713798Y-37463403D01*
X26384640Y-37635390D01*
X26057974Y-38462346D01*
X26068622Y-39108033D01*
X25983000Y-38677579D01*
X25983000Y-35079336D01*
X26753542Y-35079336D01*
X26779161Y-35689460D01*
X26963357Y-36134148D01*
X27219841Y-36220554D01*
X28120395Y-35320000D01*
X27219841Y-34419446D01*
X26963357Y-34505852D01*
X26753542Y-35079336D01*
X25983000Y-35079336D01*
X25983000Y-30479336D01*
X26753542Y-30479336D01*
X26779161Y-31089460D01*
X26963357Y-31534148D01*
X27219841Y-31620554D01*
X28120395Y-30720000D01*
X27219841Y-29819446D01*
X26963357Y-29905852D01*
X26753542Y-30479336D01*
X25983000Y-30479336D01*
X25983000Y-27362421D01*
X26061372Y-26968415D01*
X26072635Y-27651363D01*
X26072635Y-27651363D01*
G37*
X26072635Y-27651363D02*
X26384640Y-28404610D01*
X26713798Y-28576597D01*
X28120395Y-27170000D01*
X28106253Y-27155858D01*
X28285858Y-26976253D01*
X28300000Y-26990395D01*
X28314143Y-26976253D01*
X28493748Y-27155858D01*
X28479605Y-27170000D01*
X28493748Y-27184143D01*
X28314143Y-27363748D01*
X28300000Y-27349605D01*
X26893403Y-28756202D01*
X27065390Y-29085360D01*
X27648852Y-29315840D01*
X27485852Y-29383357D01*
X27399446Y-29639841D01*
X28300000Y-30540395D01*
X28314143Y-30526253D01*
X28493748Y-30705858D01*
X28479605Y-30720000D01*
X28493748Y-30734143D01*
X28314143Y-30913748D01*
X28300000Y-30899605D01*
X27399446Y-31800159D01*
X27485852Y-32056643D01*
X28059336Y-32266458D01*
X28669460Y-32240839D01*
X29091960Y-32065834D01*
X29091774Y-32279036D01*
X29290485Y-32759954D01*
X29550208Y-33020131D01*
X29291778Y-33278110D01*
X29092228Y-33758681D01*
X29092039Y-33975268D01*
X28540664Y-33773542D01*
X27930540Y-33799161D01*
X27485852Y-33983357D01*
X27399446Y-34239841D01*
X28300000Y-35140395D01*
X28314143Y-35126253D01*
X28493748Y-35305858D01*
X28479605Y-35320000D01*
X28493748Y-35334143D01*
X28314143Y-35513748D01*
X28300000Y-35499605D01*
X27399446Y-36400159D01*
X27485852Y-36656643D01*
X27644601Y-36714723D01*
X27065390Y-36954640D01*
X26893403Y-37283798D01*
X28300000Y-38690395D01*
X28314143Y-38676253D01*
X28493748Y-38855858D01*
X28479605Y-38870000D01*
X28493748Y-38884143D01*
X28314143Y-39063748D01*
X28300000Y-39049605D01*
X28285858Y-39063748D01*
X28106253Y-38884143D01*
X28120395Y-38870000D01*
X26713798Y-37463403D01*
X26384640Y-37635390D01*
X26057974Y-38462346D01*
X26068622Y-39108033D01*
X25983000Y-38677579D01*
X25983000Y-35079336D01*
X26753542Y-35079336D01*
X26779161Y-35689460D01*
X26963357Y-36134148D01*
X27219841Y-36220554D01*
X28120395Y-35320000D01*
X27219841Y-34419446D01*
X26963357Y-34505852D01*
X26753542Y-35079336D01*
X25983000Y-35079336D01*
X25983000Y-30479336D01*
X26753542Y-30479336D01*
X26779161Y-31089460D01*
X26963357Y-31534148D01*
X27219841Y-31620554D01*
X28120395Y-30720000D01*
X27219841Y-29819446D01*
X26963357Y-29905852D01*
X26753542Y-30479336D01*
X25983000Y-30479336D01*
X25983000Y-27362421D01*
X26061372Y-26968415D01*
X26072635Y-27651363D01*
M02*
