M48
;DRILL file {KiCad 4.0.6-e0-6349~53~ubuntu16.04.1} date Wed Jun 21 13:20:46 2017
;FORMAT={2:4/ absolute / inch / keep zeros}
FMAT,2
INCH,TZ
T1C0.032
T2C0.040
T3C0.047
T4C0.098
T5C0.098
%
G90
G05
M72
T1
X016500Y-015000
X017500Y-015000
X018500Y-011000
X018500Y-012000
X018500Y-013000
X018500Y-014000
X019500Y-015500
X020500Y-015500
X021500Y-011000
X021500Y-012000
X021500Y-013000
X021500Y-014000
T2
X011969Y-011622
X011969Y-012606
X011969Y-013394
X011969Y-014378
X013250Y-011000
X013250Y-013000
X013250Y-015000
X014250Y-012000
X014250Y-014000
X015250Y-011000
X015250Y-012000
X015250Y-013000
X015250Y-014000
X015250Y-015000
X022000Y-015000
X023250Y-011500
X023250Y-012500
X023250Y-013500
X024000Y-015000
X025000Y-011000
X025000Y-012000
X025000Y-013000
X026000Y-011000
X026000Y-012000
X026000Y-013000
X027500Y-011500
X027500Y-012500
X027500Y-013500
X027500Y-014500
X029250Y-012000
X029250Y-013000
X029250Y-014000
T3
X011142Y-012094
X011142Y-013906
T4
X011142Y-010697
X011142Y-015303
T5
X029150Y-010850
X029150Y-015150
T0
M30
