%TF.GenerationSoftware,KiCad,Pcbnew,4.0.5-e0-6337~49~ubuntu16.04.1*%
%TF.CreationDate,2017-02-01T00:08:58+05:30*%
%TF.ProjectId,morseKEY,6D6F7273654B45592E6B696361645F70,rev?*%
%TF.FileFunction,Copper,L1,Top,Signal*%
%FSLAX46Y46*%
G04 Gerber Fmt 4.6, Leading zero omitted, Abs format (unit mm)*
G04 Created by KiCad (PCBNEW 4.0.5-e0-6337~49~ubuntu16.04.1) date Wed Feb  1 00:08:58 2017*
%MOMM*%
%LPD*%
G01*
G04 APERTURE LIST*
%ADD10C,0.101600*%
%ADD11C,1.727200*%
%ADD12O,1.727200X1.727200*%
%ADD13R,1.727200X1.727200*%
%ADD14C,1.320800*%
%ADD15R,1.320800X1.320800*%
%ADD16O,2.540000X1.574800*%
%ADD17O,2.286000X1.651000*%
%ADD18R,2.286000X1.651000*%
%ADD19C,2.032000*%
%ADD20C,3.000000*%
%ADD21C,1.600000*%
%ADD22C,3.200000*%
%ADD23C,1.800000*%
%ADD24C,0.750000*%
%ADD25C,0.250000*%
G04 APERTURE END LIST*
D10*
D11*
X66040000Y-33020000D03*
D12*
X63500000Y-33020000D03*
X66040000Y-30480000D03*
X63500000Y-30480000D03*
X66040000Y-27940000D03*
D13*
X63500000Y-27940000D03*
D14*
X44450000Y-38100000D03*
D15*
X41910000Y-38100000D03*
D16*
X54610000Y-35560000D03*
X54610000Y-33020000D03*
X54610000Y-30480000D03*
X54610000Y-27940000D03*
X46990000Y-27940000D03*
X46990000Y-30480000D03*
X46990000Y-33020000D03*
X46990000Y-35560000D03*
D17*
X69850000Y-36830000D03*
X69850000Y-34290000D03*
D18*
X69850000Y-31750000D03*
X69850000Y-29210000D03*
D17*
X74295000Y-30480000D03*
D18*
X74295000Y-33020000D03*
D17*
X74295000Y-35560000D03*
D14*
X49530000Y-39370000D03*
X52070000Y-39370000D03*
D17*
X59055000Y-29210000D03*
X59055000Y-31750000D03*
X59055000Y-34290000D03*
D19*
X36195000Y-30480000D03*
X38735000Y-30480000D03*
X36195000Y-35560000D03*
X38735000Y-35560000D03*
X33655000Y-27940000D03*
X38735000Y-27940000D03*
X33655000Y-33020000D03*
X38735000Y-33020000D03*
X60960000Y-38100000D03*
X55880000Y-38100000D03*
X33655000Y-38100000D03*
X38735000Y-38100000D03*
D20*
X74041000Y-27559000D03*
X74041000Y-38481000D03*
D21*
X30400000Y-36520000D03*
X30400000Y-34020000D03*
X30400000Y-32020000D03*
X30400000Y-29520000D03*
D22*
X28300000Y-38870000D03*
X28300000Y-27170000D03*
D23*
X28300000Y-30720000D03*
X28300000Y-35320000D03*
D24*
X30400000Y-29520000D02*
X31980000Y-27940000D01*
X31980000Y-27940000D02*
X33655000Y-27940000D01*
X46990000Y-39370000D02*
X45720000Y-39370000D01*
X45720000Y-39370000D02*
X44450000Y-38100000D01*
X46990000Y-35560000D02*
X46990000Y-39370000D01*
X46990000Y-39370000D02*
X49530000Y-39370000D01*
D25*
X38735000Y-27940000D02*
X36830000Y-27940000D01*
X36830000Y-27940000D02*
X36195000Y-28575000D01*
X33655000Y-33020000D02*
X36195000Y-30480000D01*
X36195000Y-30480000D02*
X36195000Y-28575000D01*
X30400000Y-32020000D02*
X32655000Y-32020000D01*
X32655000Y-32020000D02*
X33655000Y-33020000D01*
X30400000Y-34020000D02*
X32115000Y-34020000D01*
X32115000Y-34020000D02*
X33655000Y-35560000D01*
X36195000Y-35560000D02*
X33655000Y-35560000D01*
X33655000Y-35560000D02*
X33655000Y-38100000D01*
X74295000Y-30480000D02*
X73977500Y-30480000D01*
X60960000Y-27305000D02*
X57150000Y-27305000D01*
X73977500Y-30480000D02*
X71437500Y-33020000D01*
X56130000Y-30480000D02*
X54610000Y-30480000D01*
X71437500Y-33020000D02*
X68580000Y-33020000D01*
X68580000Y-33020000D02*
X67310000Y-34290000D01*
X67310000Y-34290000D02*
X62430830Y-34290000D01*
X62430830Y-34290000D02*
X61595000Y-33454170D01*
X56515000Y-30095000D02*
X56130000Y-30480000D01*
X61595000Y-33454170D02*
X61595000Y-27940000D01*
X61595000Y-27940000D02*
X60960000Y-27305000D01*
X56515000Y-27940000D02*
X56515000Y-30095000D01*
X57150000Y-27305000D02*
X56515000Y-27940000D01*
X54610000Y-33020000D02*
X53090000Y-33020000D01*
X53090000Y-33020000D02*
X52705000Y-33405000D01*
X73977500Y-35560000D02*
X74295000Y-35560000D01*
X52705000Y-33405000D02*
X52705000Y-37465000D01*
X52705000Y-37465000D02*
X55245000Y-40005000D01*
X69532500Y-40005000D02*
X73977500Y-35560000D01*
X55245000Y-40005000D02*
X69532500Y-40005000D01*
X69850000Y-36830000D02*
X62865000Y-36830000D01*
X62865000Y-36830000D02*
X61029011Y-34994011D01*
X57785000Y-30480000D02*
X56515000Y-31750000D01*
X52070000Y-30480000D02*
X48510000Y-30480000D01*
X48510000Y-30480000D02*
X46990000Y-30480000D01*
X61029011Y-34994011D02*
X61029011Y-31184011D01*
X53340000Y-31750000D02*
X52070000Y-30480000D01*
X61029011Y-31184011D02*
X60325000Y-30480000D01*
X60325000Y-30480000D02*
X57785000Y-30480000D01*
X56515000Y-31750000D02*
X53340000Y-31750000D01*
X69850000Y-36830000D02*
X69850000Y-34290000D01*
X62230000Y-27305000D02*
X62230000Y-31115000D01*
X64770000Y-31750000D02*
X66040000Y-30480000D01*
X62865000Y-31750000D02*
X64770000Y-31750000D01*
X62230000Y-31115000D02*
X62865000Y-31750000D01*
X43815000Y-33020000D02*
X43815000Y-29845000D01*
X43815000Y-29845000D02*
X44450000Y-29210000D01*
X50315785Y-26670000D02*
X61595000Y-26670000D01*
X61595000Y-26670000D02*
X62230000Y-27305000D01*
X44450000Y-29210000D02*
X47775785Y-29210000D01*
X47775785Y-29210000D02*
X50315785Y-26670000D01*
X38735000Y-38100000D02*
X43815000Y-33020000D01*
X43815000Y-33020000D02*
X46990000Y-33020000D01*
X64770000Y-29210000D02*
X63500000Y-30480000D01*
X47857600Y-26035000D02*
X64135000Y-26035000D01*
X64770000Y-26670000D02*
X64770000Y-29210000D01*
X64135000Y-26035000D02*
X64770000Y-26670000D01*
X46990000Y-27940000D02*
X46990000Y-26902600D01*
X46990000Y-26902600D02*
X47857600Y-26035000D01*
X41910000Y-33020000D02*
X42545000Y-32385000D01*
X41910000Y-33020000D02*
X38735000Y-33020000D01*
X42545000Y-28575000D02*
X42545000Y-32385000D01*
X43180000Y-27940000D02*
X42545000Y-28575000D01*
X46990000Y-27940000D02*
X43180000Y-27940000D01*
X54610000Y-35560000D02*
X56515000Y-35560000D01*
X56515000Y-35560000D02*
X57785000Y-34290000D01*
X57785000Y-34290000D02*
X59055000Y-34290000D01*
X59055000Y-34290000D02*
X59055000Y-37465000D01*
X59690000Y-38100000D02*
X60960000Y-38100000D01*
X59055000Y-37465000D02*
X59690000Y-38100000D01*
X59055000Y-31750000D02*
X59055000Y-34290000D01*
M02*
