  0
SECTION
  2
HEADER
  9
$ACADVER
  1
AC1009
  9
$EXTMIN
 10
0.0
 20
0.0
 30
0.0
  9
$EXTMAX
 10
1000.0
 20
1000.0
 30
0.0
  9
$FILLMODE
 70
 0
  9
$SPLFRAME
 70
 1
  0
ENDSEC
  0
SECTION
  2
TABLES
  0
TABLE
  2
LAYER
 70
1
  0
LAYER
  2
0
 70
     0
 62
     7
  6
CONTINUOUS
  0
ENDTAB
  0
ENDSEC
  0
SECTION
  2
ENTITIES
  0
POLYLINE
  8
0
 62
     0
 66
     1
 10
0
 20
0
 30
0.0
 70
     1
 40
5.78585
 41
5.78585
  0
VERTEX
  8
0
 10
12.008
 20
11.5837
 30
0.0
 40
0.080359
 41
0.080359
  0
VERTEX
  8
0
 10
30.5228
 20
11.5837
 30
0.0
 40
0.080359
 41
0.080359
  0
VERTEX
  8
0
 10
30.5228
 20
6.1836
 30
0.0
 40
0.080359
 41
0.080359
  0
VERTEX
  8
0
 10
12.008
 20
6.1836
 30
0.0
 40
0.080359
 41
0.080359
  0
VERTEX
  8
0
 10
12.008
 20
11.5837
 30
0.0
 40
0.080359
 41
0.080359
  0
SEQEND
 8
0
  0
POLYLINE
  8
0
 62
     0
 66
     1
 10
0
 20
0
 30
0.0
 40
5.78585
 41
5.78585
  0
VERTEX
  8
0
 10
12.008
 20
6.95503
 30
0.0
 40
0.080359
 41
0.080359
  0
VERTEX
  8
0
 10
10.8509
 20
6.95503
 30
0.0
 40
0.080359
 41
0.080359
  0
SEQEND
 8
0
  0
POLYLINE
  8
0
 62
     0
 66
     1
 10
0
 20
0
 30
0.0
 40
5.78585
 41
5.78585
  0
VERTEX
  8
0
 10
12.008
 20
8.49794
 30
0.0
 40
0.080359
 41
0.080359
  0
VERTEX
  8
0
 10
10.8509
 20
8.49794
 30
0.0
 40
0.080359
 41
0.080359
  0
SEQEND
 8
0
  0
POLYLINE
  8
0
 62
     0
 66
     1
 10
0
 20
0
 30
0.0
 40
5.78585
 41
5.78585
  0
VERTEX
  8
0
 10
12.008
 20
7.72651
 30
0.0
 40
0.080359
 41
0.080359
  0
VERTEX
  8
0
 10
10.8509
 20
7.72651
 30
0.0
 40
0.080359
 41
0.080359
  0
SEQEND
 8
0
  0
POLYLINE
  8
0
 62
     0
 66
     1
 10
0
 20
0
 30
0.0
 40
5.78585
 41
5.78585
  0
VERTEX
  8
0
 10
30.5228
 20
6.95503
 30
0.0
 40
0.080359
 41
0.080359
  0
VERTEX
  8
0
 10
31.6799
 20
6.95503
 30
0.0
 40
0.080359
 41
0.080359
  0
SEQEND
 8
0
  0
POLYLINE
  8
0
 62
     0
 66
     1
 10
0
 20
0
 30
0.0
 40
5.78585
 41
5.78585
  0
VERTEX
  8
0
 10
12.008
 20
10.8123
 30
0.0
 40
0.080359
 41
0.080359
  0
VERTEX
  8
0
 10
10.8509
 20
10.8123
 30
0.0
 40
0.080359
 41
0.080359
  0
SEQEND
 8
0
  0
POLYLINE
  8
0
 62
     0
 66
     1
 10
0
 20
0
 30
0.0
 40
5.78585
 41
5.78585
  0
VERTEX
  8
0
 10
12.008
 20
10.0408
 30
0.0
 40
0.080359
 41
0.080359
  0
VERTEX
  8
0
 10
10.8509
 20
10.0408
 30
0.0
 40
0.080359
 41
0.080359
  0
SEQEND
 8
0
  0
POLYLINE
  8
0
 62
     0
 66
     1
 10
0
 20
0
 30
0.0
 40
5.78585
 41
5.78585
  0
VERTEX
  8
0
 10
12.008
 20
9.26938
 30
0.0
 40
0.080359
 41
0.080359
  0
VERTEX
  8
0
 10
10.8509
 20
9.26938
 30
0.0
 40
0.080359
 41
0.080359
  0
SEQEND
 8
0
  0
POLYLINE
  8
0
 62
     0
 66
     1
 10
0
 20
0
 30
0.0
 40
5.78585
 41
5.78585
  0
VERTEX
  8
0
 10
30.5228
 20
10.8123
 30
0.0
 40
0.080359
 41
0.080359
  0
VERTEX
  8
0
 10
31.6799
 20
10.8123
 30
0.0
 40
0.080359
 41
0.080359
  0
SEQEND
 8
0
  0
POLYLINE
  8
0
 62
     0
 66
     1
 10
0
 20
0
 30
0.0
 70
     1
 40
0
 41
0
  0
VERTEX
  8
0
 10
32.6057
 20
12.4323
 30
0.0
 40
0
 41
0
  0
VERTEX
  8
0
 10
33.84
 20
12.4323
 30
0.0
 40
0
 41
0
  0
VERTEX
  8
0
 10
33.84
 20
12.2394
 30
0.0
 40
0
 41
0
  0
VERTEX
  8
0
 10
32.6057
 20
12.2394
 30
0.0
 40
0
 41
0
  0
VERTEX
  8
0
 10
32.6057
 20
12.4323
 30
0.0
 40
0
 41
0
  0
SEQEND
 8
0
  0
POLYLINE
  8
0
 62
     0
 66
     1
 10
0
 20
0
 30
0.0
 70
     1
 40
5.78585
 41
5.78585
  0
VERTEX
  8
0
 10
32.6057
 20
12.4323
 30
0.0
 40
0.080359
 41
0.080359
  0
VERTEX
  8
0
 10
33.84
 20
12.4323
 30
0.0
 40
0.080359
 41
0.080359
  0
VERTEX
  8
0
 10
33.84
 20
12.2394
 30
0.0
 40
0.080359
 41
0.080359
  0
VERTEX
  8
0
 10
32.6057
 20
12.2394
 30
0.0
 40
0.080359
 41
0.080359
  0
VERTEX
  8
0
 10
32.6057
 20
12.4323
 30
0.0
 40
0.080359
 41
0.080359
  0
SEQEND
 8
0
  0
POLYLINE
  8
0
 62
     0
 66
     1
 10
0
 20
0
 30
0.0
 70
     1
 40
0
 41
0
  0
VERTEX
  8
0
 10
32.6057
 20
12.8566
 30
0.0
 40
0
 41
0
  0
VERTEX
  8
0
 10
33.84
 20
12.8566
 30
0.0
 40
0
 41
0
  0
VERTEX
  8
0
 10
33.84
 20
12.6637
 30
0.0
 40
0
 41
0
  0
VERTEX
  8
0
 10
32.6057
 20
12.6637
 30
0.0
 40
0
 41
0
  0
VERTEX
  8
0
 10
32.6057
 20
12.8566
 30
0.0
 40
0
 41
0
  0
SEQEND
 8
0
  0
POLYLINE
  8
0
 62
     0
 66
     1
 10
0
 20
0
 30
0.0
 70
     1
 40
5.78585
 41
5.78585
  0
VERTEX
  8
0
 10
32.6057
 20
12.8566
 30
0.0
 40
0.080359
 41
0.080359
  0
VERTEX
  8
0
 10
33.84
 20
12.8566
 30
0.0
 40
0.080359
 41
0.080359
  0
VERTEX
  8
0
 10
33.84
 20
12.6637
 30
0.0
 40
0.080359
 41
0.080359
  0
VERTEX
  8
0
 10
32.6057
 20
12.6637
 30
0.0
 40
0.080359
 41
0.080359
  0
VERTEX
  8
0
 10
32.6057
 20
12.8566
 30
0.0
 40
0.080359
 41
0.080359
  0
SEQEND
 8
0
  0
POLYLINE
  8
0
 62
     0
 66
     1
 10
0
 20
0
 30
0.0
 40
5.78585
 41
5.78585
  0
VERTEX
  8
0
 10
33.2228
 20
12.8566
 30
0.0
 40
0.080359
 41
0.080359
  0
VERTEX
  8
0
 10
33.2228
 20
13.7052
 30
0.0
 40
0.080359
 41
0.080359
  0
SEQEND
 8
0
  0
POLYLINE
  8
0
 62
     0
 66
     1
 10
0
 20
0
 30
0.0
 40
5.78585
 41
5.78585
  0
VERTEX
  8
0
 10
33.2228
 20
12.2394
 30
0.0
 40
0.080359
 41
0.080359
  0
VERTEX
  8
0
 10
33.2228
 20
11.3908
 30
0.0
 40
0.080359
 41
0.080359
  0
SEQEND
 8
0
  0
POLYLINE
  8
0
 62
     0
 66
     1
 10
0
 20
0
 30
0.0
 70
     1
 40
5.78585
 41
5.78585
  0
VERTEX
  8
0
 10
35.1129
 20
12.8566
 30
0.0
 40
0.080359
 41
0.080359
  0
VERTEX
  8
0
 10
36.3471
 20
12.8566
 30
0.0
 40
0.080359
 41
0.080359
  0
VERTEX
  8
0
 10
36.3471
 20
12.6637
 30
0.0
 40
0.080359
 41
0.080359
  0
VERTEX
  8
0
 10
35.1129
 20
12.6637
 30
0.0
 40
0.080359
 41
0.080359
  0
VERTEX
  8
0
 10
35.1129
 20
12.8566
 30
0.0
 40
0.080359
 41
0.080359
  0
SEQEND
 8
0
  0
POLYLINE
  8
0
 62
     0
 66
     1
 10
0
 20
0
 30
0.0
 70
     1
 40
0
 41
0
  0
VERTEX
  8
0
 10
35.1129
 20
12.4323
 30
0.0
 40
0
 41
0
  0
VERTEX
  8
0
 10
36.3471
 20
12.4323
 30
0.0
 40
0
 41
0
  0
VERTEX
  8
0
 10
36.3471
 20
12.2394
 30
0.0
 40
0
 41
0
  0
VERTEX
  8
0
 10
35.1129
 20
12.2394
 30
0.0
 40
0
 41
0
  0
VERTEX
  8
0
 10
35.1129
 20
12.4323
 30
0.0
 40
0
 41
0
  0
SEQEND
 8
0
  0
POLYLINE
  8
0
 62
     0
 66
     1
 10
0
 20
0
 30
0.0
 70
     1
 40
5.78585
 41
5.78585
  0
VERTEX
  8
0
 10
35.1129
 20
12.4323
 30
0.0
 40
0.080359
 41
0.080359
  0
VERTEX
  8
0
 10
36.3471
 20
12.4323
 30
0.0
 40
0.080359
 41
0.080359
  0
VERTEX
  8
0
 10
36.3471
 20
12.2394
 30
0.0
 40
0.080359
 41
0.080359
  0
VERTEX
  8
0
 10
35.1129
 20
12.2394
 30
0.0
 40
0.080359
 41
0.080359
  0
VERTEX
  8
0
 10
35.1129
 20
12.4323
 30
0.0
 40
0.080359
 41
0.080359
  0
SEQEND
 8
0
  0
POLYLINE
  8
0
 62
     0
 66
     1
 10
0
 20
0
 30
0.0
 40
5.78585
 41
5.78585
  0
VERTEX
  8
0
 10
35.73
 20
12.8566
 30
0.0
 40
0.080359
 41
0.080359
  0
VERTEX
  8
0
 10
35.73
 20
13.7052
 30
0.0
 40
0.080359
 41
0.080359
  0
SEQEND
 8
0
  0
POLYLINE
  8
0
 62
     0
 66
     1
 10
0
 20
0
 30
0.0
 40
5.78585
 41
5.78585
  0
VERTEX
  8
0
 10
35.73
 20
12.2394
 30
0.0
 40
0.080359
 41
0.080359
  0
VERTEX
  8
0
 10
35.73
 20
11.3908
 30
0.0
 40
0.080359
 41
0.080359
  0
SEQEND
 8
0
  0
POLYLINE
  8
0
 62
     0
 66
     1
 10
0
 20
0
 30
0.0
 70
     1
 40
5.78585
 41
5.78585
  0
VERTEX
  8
0
 10
36.8872
 20
10.3494
 30
0.0
 40
0.080359
 41
0.080359
  0
VERTEX
  8
0
 10
38.43
 20
10.3494
 30
0.0
 40
0.080359
 41
0.080359
  0
VERTEX
  8
0
 10
38.43
 20
9.73226
 30
0.0
 40
0.080359
 41
0.080359
  0
VERTEX
  8
0
 10
36.8872
 20
9.73226
 30
0.0
 40
0.080359
 41
0.080359
  0
VERTEX
  8
0
 10
36.8872
 20
10.3494
 30
0.0
 40
0.080359
 41
0.080359
  0
SEQEND
 8
0
  0
POLYLINE
  8
0
 62
     0
 66
     1
 10
0
 20
0
 30
0.0
 40
5.78585
 41
5.78585
  0
VERTEX
  8
0
 10
38.43
 20
10.0408
 30
0.0
 40
0.080359
 41
0.080359
  0
VERTEX
  8
0
 10
38.8157
 20
10.0408
 30
0.0
 40
0.080359
 41
0.080359
  0
SEQEND
 8
0
  0
POLYLINE
  8
0
 62
     0
 66
     1
 10
0
 20
0
 30
0.0
 40
5.78585
 41
5.78585
  0
VERTEX
  8
0
 10
36.8872
 20
10.0408
 30
0.0
 40
0.080359
 41
0.080359
  0
VERTEX
  8
0
 10
36.5014
 20
10.0408
 30
0.0
 40
0.080359
 41
0.080359
  0
SEQEND
 8
0
  0
POLYLINE
  8
0
 62
     0
 66
     1
 10
0
 20
0
 30
0.0
 70
     1
 40
5.78585
 41
5.78585
  0
VERTEX
  8
0
 10
36.8872
 20
9.57796
 30
0.0
 40
0.080359
 41
0.080359
  0
VERTEX
  8
0
 10
38.43
 20
9.57796
 30
0.0
 40
0.080359
 41
0.080359
  0
VERTEX
  8
0
 10
38.43
 20
8.96078
 30
0.0
 40
0.080359
 41
0.080359
  0
VERTEX
  8
0
 10
36.8872
 20
8.96078
 30
0.0
 40
0.080359
 41
0.080359
  0
VERTEX
  8
0
 10
36.8872
 20
9.57796
 30
0.0
 40
0.080359
 41
0.080359
  0
SEQEND
 8
0
  0
POLYLINE
  8
0
 62
     0
 66
     1
 10
0
 20
0
 30
0.0
 40
5.78585
 41
5.78585
  0
VERTEX
  8
0
 10
38.43
 20
9.26938
 30
0.0
 40
0.080359
 41
0.080359
  0
VERTEX
  8
0
 10
38.8157
 20
9.26938
 30
0.0
 40
0.080359
 41
0.080359
  0
SEQEND
 8
0
  0
POLYLINE
  8
0
 62
     0
 66
     1
 10
0
 20
0
 30
0.0
 40
5.78585
 41
5.78585
  0
VERTEX
  8
0
 10
36.8872
 20
9.26938
 30
0.0
 40
0.080359
 41
0.080359
  0
VERTEX
  8
0
 10
36.5014
 20
9.26938
 30
0.0
 40
0.080359
 41
0.080359
  0
SEQEND
 8
0
  0
POLYLINE
  8
0
 62
     0
 66
     1
 10
0
 20
0
 30
0.0
 70
     1
 40
5.78585
 41
5.78585
  0
VERTEX
  8
0
 10
40.8215
 20
13.3194
 30
0.0
 40
0.080359
 41
0.080359
  0
VERTEX
  8
0
 10
41.4388
 20
13.3194
 30
0.0
 40
0.080359
 41
0.080359
  0
VERTEX
  8
0
 10
41.4388
 20
11.7766
 30
0.0
 40
0.080359
 41
0.080359
  0
VERTEX
  8
0
 10
40.8215
 20
11.7766
 30
0.0
 40
0.080359
 41
0.080359
  0
VERTEX
  8
0
 10
40.8215
 20
13.3194
 30
0.0
 40
0.080359
 41
0.080359
  0
SEQEND
 8
0
  0
POLYLINE
  8
0
 62
     0
 66
     1
 10
0
 20
0
 30
0.0
 40
5.78585
 41
5.78585
  0
VERTEX
  8
0
 10
41.1301
 20
13.3194
 30
0.0
 40
0.080359
 41
0.080359
  0
VERTEX
  8
0
 10
41.1301
 20
13.7052
 30
0.0
 40
0.080359
 41
0.080359
  0
SEQEND
 8
0
  0
POLYLINE
  8
0
 62
     0
 66
     1
 10
0
 20
0
 30
0.0
 40
5.78585
 41
5.78585
  0
VERTEX
  8
0
 10
41.1301
 20
11.7766
 30
0.0
 40
0.080359
 41
0.080359
  0
VERTEX
  8
0
 10
41.1301
 20
11.3908
 30
0.0
 40
0.080359
 41
0.080359
  0
SEQEND
 8
0
  0
POLYLINE
  8
0
 62
     0
 66
     1
 10
0
 20
0
 30
0.0
 70
     1
 40
0
 41
0
  0
VERTEX
  8
0
 10
39.8958
 20
4.13926
 30
0.0
 40
0
 41
0
  0
VERTEX
  8
0
 10
39.5872
 20
4.7564
 30
0.0
 40
0
 41
0
  0
VERTEX
  8
0
 10
39.2786
 20
4.13926
 30
0.0
 40
0
 41
0
  0
VERTEX
  8
0
 10
39.8958
 20
4.13926
 30
0.0
 40
0
 41
0
  0
SEQEND
 8
0
  0
POLYLINE
  8
0
 62
     0
 66
     1
 10
0
 20
0
 30
0.0
 70
     1
 40
5.78585
 41
5.78585
  0
VERTEX
  8
0
 10
39.8958
 20
4.13926
 30
0.0
 40
0.080359
 41
0.080359
  0
VERTEX
  8
0
 10
39.5872
 20
4.7564
 30
0.0
 40
0.080359
 41
0.080359
  0
VERTEX
  8
0
 10
39.2786
 20
4.13926
 30
0.0
 40
0.080359
 41
0.080359
  0
VERTEX
  8
0
 10
39.8958
 20
4.13926
 30
0.0
 40
0.080359
 41
0.080359
  0
SEQEND
 8
0
  0
POLYLINE
  8
0
 62
     0
 66
     1
 10
0
 20
0
 30
0.0
 70
     1
 40
5.78585
 41
5.78585
  0
VERTEX
  8
0
 10
39.8958
 20
4.56353
 30
0.0
 40
0.080359
 41
0.080359
  0
VERTEX
  8
0
 10
39.8958
 20
4.71783
 30
0.0
 40
0.080359
 41
0.080359
  0
VERTEX
  8
0
 10
39.2786
 20
4.71783
 30
0.0
 40
0.080359
 41
0.080359
  0
VERTEX
  8
0
 10
39.2786
 20
4.94928
 30
0.0
 40
0.080359
 41
0.080359
  0
VERTEX
  8
0
 10
39.2786
 20
4.79497
 30
0.0
 40
0.080359
 41
0.080359
  0
VERTEX
  8
0
 10
39.8958
 20
4.79497
 30
0.0
 40
0.080359
 41
0.080359
  0
VERTEX
  8
0
 10
39.8958
 20
4.56353
 30
0.0
 40
0.080359
 41
0.080359
  0
SEQEND
 8
0
  0
POLYLINE
  8
0
 62
     0
 66
     1
 10
0
 20
0
 30
0.0
 40
5.78585
 41
5.78585
  0
VERTEX
  8
0
 10
39.5872
 20
4.7564
 30
0.0
 40
0.080359
 41
0.080359
  0
VERTEX
  8
0
 10
39.5872
 20
5.21929
 30
0.0
 40
0.080359
 41
0.080359
  0
SEQEND
 8
0
  0
POLYLINE
  8
0
 62
     0
 66
     1
 10
0
 20
0
 30
0.0
 40
5.78585
 41
5.78585
  0
VERTEX
  8
0
 10
39.5872
 20
4.13926
 30
0.0
 40
0.080359
 41
0.080359
  0
VERTEX
  8
0
 10
39.5872
 20
3.67638
 30
0.0
 40
0.080359
 41
0.080359
  0
SEQEND
 8
0
  0
POLYLINE
  8
0
 62
     0
 66
     1
 10
0
 20
0
 30
0.0
 70
     1
 40
0
 41
0
  0
VERTEX
  8
0
 10
41.4388
 20
4.13926
 30
0.0
 40
0
 41
0
  0
VERTEX
  8
0
 10
41.1301
 20
4.7564
 30
0.0
 40
0
 41
0
  0
VERTEX
  8
0
 10
40.8215
 20
4.13926
 30
0.0
 40
0
 41
0
  0
VERTEX
  8
0
 10
41.4388
 20
4.13926
 30
0.0
 40
0
 41
0
  0
SEQEND
 8
0
  0
POLYLINE
  8
0
 62
     0
 66
     1
 10
0
 20
0
 30
0.0
 70
     1
 40
5.78585
 41
5.78585
  0
VERTEX
  8
0
 10
41.4388
 20
4.13926
 30
0.0
 40
0.080359
 41
0.080359
  0
VERTEX
  8
0
 10
41.1301
 20
4.7564
 30
0.0
 40
0.080359
 41
0.080359
  0
VERTEX
  8
0
 10
40.8215
 20
4.13926
 30
0.0
 40
0.080359
 41
0.080359
  0
VERTEX
  8
0
 10
41.4388
 20
4.13926
 30
0.0
 40
0.080359
 41
0.080359
  0
SEQEND
 8
0
  0
POLYLINE
  8
0
 62
     0
 66
     1
 10
0
 20
0
 30
0.0
 70
     1
 40
5.78585
 41
5.78585
  0
VERTEX
  8
0
 10
41.4388
 20
4.56353
 30
0.0
 40
0.080359
 41
0.080359
  0
VERTEX
  8
0
 10
41.4388
 20
4.71783
 30
0.0
 40
0.080359
 41
0.080359
  0
VERTEX
  8
0
 10
40.8215
 20
4.71783
 30
0.0
 40
0.080359
 41
0.080359
  0
VERTEX
  8
0
 10
40.8215
 20
4.94928
 30
0.0
 40
0.080359
 41
0.080359
  0
VERTEX
  8
0
 10
40.8215
 20
4.79497
 30
0.0
 40
0.080359
 41
0.080359
  0
VERTEX
  8
0
 10
41.4388
 20
4.79497
 30
0.0
 40
0.080359
 41
0.080359
  0
VERTEX
  8
0
 10
41.4388
 20
4.56353
 30
0.0
 40
0.080359
 41
0.080359
  0
SEQEND
 8
0
  0
POLYLINE
  8
0
 62
     0
 66
     1
 10
0
 20
0
 30
0.0
 40
5.78585
 41
5.78585
  0
VERTEX
  8
0
 10
41.1301
 20
4.7564
 30
0.0
 40
0.080359
 41
0.080359
  0
VERTEX
  8
0
 10
41.1301
 20
5.21929
 30
0.0
 40
0.080359
 41
0.080359
  0
SEQEND
 8
0
  0
POLYLINE
  8
0
 62
     0
 66
     1
 10
0
 20
0
 30
0.0
 40
5.78585
 41
5.78585
  0
VERTEX
  8
0
 10
41.1301
 20
4.13926
 30
0.0
 40
0.080359
 41
0.080359
  0
VERTEX
  8
0
 10
41.1301
 20
3.67638
 30
0.0
 40
0.080359
 41
0.080359
  0
SEQEND
 8
0
  0
POLYLINE
  8
0
 62
     0
 66
     1
 10
0
 20
0
 30
0.0
 70
     1
 40
5.78585
 41
5.78585
  0
VERTEX
  8
0
 10
0.0506185
 20
14.2838
 30
0.0
 40
0.080359
 41
0.080359
  0
VERTEX
  8
0
 10
0.629178
 20
14.2838
 30
0.0
 40
0.080359
 41
0.080359
  0
VERTEX
  8
0
 10
0.629178
 20
10.8123
 30
0.0
 40
0.080359
 41
0.080359
  0
VERTEX
  8
0
 10
0.0506185
 20
10.8123
 30
0.0
 40
0.080359
 41
0.080359
  0
VERTEX
  8
0
 10
0.0506185
 20
14.2838
 30
0.0
 40
0.080359
 41
0.080359
  0
SEQEND
 8
0
  0
POLYLINE
  8
0
 62
     0
 66
     1
 10
0
 20
0
 30
0.0
 70
     1
 40
5.78585
 41
5.78585
  0
VERTEX
  8
0
 10
0.629178
 20
13.7052
 30
0.0
 40
0.080359
 41
0.080359
  0
VERTEX
  8
0
 10
2.1721
 20
13.7052
 30
0.0
 40
0.080359
 41
0.080359
  0
VERTEX
  8
0
 10
2.1721
 20
11.3908
 30
0.0
 40
0.080359
 41
0.080359
  0
VERTEX
  8
0
 10
0.629178
 20
11.3908
 30
0.0
 40
0.080359
 41
0.080359
  0
VERTEX
  8
0
 10
0.629178
 20
13.7052
 30
0.0
 40
0.080359
 41
0.080359
  0
SEQEND
 8
0
  0
POLYLINE
  8
0
 62
     0
 66
     1
 10
0
 20
0
 30
0.0
 70
     1
 40
0
 41
0
  0
VERTEX
  8
0
 10
1.20779
 20
14.091
 30
0.0
 40
0
 41
0
  0
VERTEX
  8
0
 10
1.59347
 20
14.091
 30
0.0
 40
0
 41
0
  0
VERTEX
  8
0
 10
1.59347
 20
11.0052
 30
0.0
 40
0
 41
0
  0
VERTEX
  8
0
 10
1.20779
 20
11.0052
 30
0.0
 40
0
 41
0
  0
VERTEX
  8
0
 10
1.20779
 20
14.091
 30
0.0
 40
0
 41
0
  0
SEQEND
 8
0
  0
POLYLINE
  8
0
 62
     0
 66
     1
 10
0
 20
0
 30
0.0
 70
     1
 40
5.78585
 41
5.78585
  0
VERTEX
  8
0
 10
1.20779
 20
14.091
 30
0.0
 40
0.080359
 41
0.080359
  0
VERTEX
  8
0
 10
1.59347
 20
14.091
 30
0.0
 40
0.080359
 41
0.080359
  0
VERTEX
  8
0
 10
1.59347
 20
11.0052
 30
0.0
 40
0.080359
 41
0.080359
  0
VERTEX
  8
0
 10
1.20779
 20
11.0052
 30
0.0
 40
0.080359
 41
0.080359
  0
VERTEX
  8
0
 10
1.20779
 20
14.091
 30
0.0
 40
0.080359
 41
0.080359
  0
SEQEND
 8
0
  0
POLYLINE
  8
0
 62
     0
 66
     1
 10
0
 20
0
 30
0.0
 40
5.78585
 41
5.78585
  0
VERTEX
  8
0
 10
2.1721
 20
13.3194
 30
0.0
 40
0.080359
 41
0.080359
  0
VERTEX
  8
0
 10
3.71496
 20
13.3194
 30
0.0
 40
0.080359
 41
0.080359
  0
SEQEND
 8
0
  0
POLYLINE
  8
0
 62
     0
 66
     1
 10
0
 20
0
 30
0.0
 40
5.78585
 41
5.78585
  0
VERTEX
  8
0
 10
2.1721
 20
12.9337
 30
0.0
 40
0.080359
 41
0.080359
  0
VERTEX
  8
0
 10
3.71496
 20
12.9337
 30
0.0
 40
0.080359
 41
0.080359
  0
SEQEND
 8
0
  0
POLYLINE
  8
0
 62
     0
 66
     1
 10
0
 20
0
 30
0.0
 40
5.78585
 41
5.78585
  0
VERTEX
  8
0
 10
2.1721
 20
12.1623
 30
0.0
 40
0.080359
 41
0.080359
  0
VERTEX
  8
0
 10
3.71496
 20
12.1623
 30
0.0
 40
0.080359
 41
0.080359
  0
SEQEND
 8
0
  0
POLYLINE
  8
0
 62
     0
 66
     1
 10
0
 20
0
 30
0.0
 40
5.78585
 41
5.78585
  0
VERTEX
  8
0
 10
2.1721
 20
11.7766
 30
0.0
 40
0.080359
 41
0.080359
  0
VERTEX
  8
0
 10
3.71496
 20
11.7766
 30
0.0
 40
0.080359
 41
0.080359
  0
SEQEND
 8
0
  0
POLYLINE
  8
0
 62
     0
 66
     1
 10
0
 20
0
 30
0.0
 70
     1
 40
5.78585
 41
5.78585
  0
VERTEX
  8
0
 10
44.0231
 20
11.198
 30
0.0
 40
0.080359
 41
0.080359
  0
VERTEX
  8
0
 10
46.3374
 20
11.198
 30
0.0
 40
0.080359
 41
0.080359
  0
VERTEX
  8
0
 10
46.3374
 20
8.11219
 30
0.0
 40
0.080359
 41
0.080359
  0
VERTEX
  8
0
 10
44.0231
 20
8.11219
 30
0.0
 40
0.080359
 41
0.080359
  0
VERTEX
  8
0
 10
44.0231
 20
11.198
 30
0.0
 40
0.080359
 41
0.080359
  0
SEQEND
 8
0
  0
POLYLINE
  8
0
 62
     0
 66
     1
 10
0
 20
0
 30
0.0
 70
     1
 40
5.78585
 41
5.78585
  0
VERTEX
  8
0
 10
44.0231
 20
10.8509
 30
0.0
 40
0.080359
 41
0.080359
  0
VERTEX
  8
0
 10
44.2544
 20
10.8509
 30
0.0
 40
0.080359
 41
0.080359
  0
VERTEX
  8
0
 10
44.2544
 20
10.7737
 30
0.0
 40
0.080359
 41
0.080359
  0
VERTEX
  8
0
 10
44.0231
 20
10.7737
 30
0.0
 40
0.080359
 41
0.080359
  0
VERTEX
  8
0
 10
44.0231
 20
10.8509
 30
0.0
 40
0.080359
 41
0.080359
  0
SEQEND
 8
0
  0
POLYLINE
  8
0
 62
     0
 66
     1
 10
0
 20
0
 30
0.0
 70
     1
 40
5.78585
 41
5.78585
  0
VERTEX
  8
0
 10
44.0231
 20
10.0794
 30
0.0
 40
0.080359
 41
0.080359
  0
VERTEX
  8
0
 10
44.2544
 20
10.0794
 30
0.0
 40
0.080359
 41
0.080359
  0
VERTEX
  8
0
 10
44.2544
 20
10.0023
 30
0.0
 40
0.080359
 41
0.080359
  0
VERTEX
  8
0
 10
44.0231
 20
10.0023
 30
0.0
 40
0.080359
 41
0.080359
  0
VERTEX
  8
0
 10
44.0231
 20
10.0794
 30
0.0
 40
0.080359
 41
0.080359
  0
SEQEND
 8
0
  0
POLYLINE
  8
0
 62
     0
 66
     1
 10
0
 20
0
 30
0.0
 70
     1
 40
5.78585
 41
5.78585
  0
VERTEX
  8
0
 10
44.0231
 20
9.30794
 30
0.0
 40
0.080359
 41
0.080359
  0
VERTEX
  8
0
 10
44.2544
 20
9.30794
 30
0.0
 40
0.080359
 41
0.080359
  0
VERTEX
  8
0
 10
44.2544
 20
9.23079
 30
0.0
 40
0.080359
 41
0.080359
  0
VERTEX
  8
0
 10
44.0231
 20
9.23079
 30
0.0
 40
0.080359
 41
0.080359
  0
VERTEX
  8
0
 10
44.0231
 20
9.30794
 30
0.0
 40
0.080359
 41
0.080359
  0
SEQEND
 8
0
  0
POLYLINE
  8
0
 62
     0
 66
     1
 10
0
 20
0
 30
0.0
 70
     1
 40
5.78585
 41
5.78585
  0
VERTEX
  8
0
 10
44.0231
 20
8.53651
 30
0.0
 40
0.080359
 41
0.080359
  0
VERTEX
  8
0
 10
44.2544
 20
8.53651
 30
0.0
 40
0.080359
 41
0.080359
  0
VERTEX
  8
0
 10
44.2544
 20
8.45936
 30
0.0
 40
0.080359
 41
0.080359
  0
VERTEX
  8
0
 10
44.0231
 20
8.45936
 30
0.0
 40
0.080359
 41
0.080359
  0
VERTEX
  8
0
 10
44.0231
 20
8.53651
 30
0.0
 40
0.080359
 41
0.080359
  0
SEQEND
 8
0
  0
POLYLINE
  8
0
 62
     0
 66
     1
 10
0
 20
0
 30
0.0
 40
5.78585
 41
5.78585
  0
VERTEX
  8
0
 10
44.0231
 20
10.8123
 30
0.0
 40
0.080359
 41
0.080359
  0
VERTEX
  8
0
 10
42.8658
 20
10.8123
 30
0.0
 40
0.080359
 41
0.080359
  0
SEQEND
 8
0
  0
POLYLINE
  8
0
 62
     0
 66
     1
 10
0
 20
0
 30
0.0
 40
5.78585
 41
5.78585
  0
VERTEX
  8
0
 10
44.0231
 20
10.0408
 30
0.0
 40
0.080359
 41
0.080359
  0
VERTEX
  8
0
 10
42.8658
 20
10.0408
 30
0.0
 40
0.080359
 41
0.080359
  0
SEQEND
 8
0
  0
POLYLINE
  8
0
 62
     0
 66
     1
 10
0
 20
0
 30
0.0
 40
5.78585
 41
5.78585
  0
VERTEX
  8
0
 10
44.0231
 20
9.26938
 30
0.0
 40
0.080359
 41
0.080359
  0
VERTEX
  8
0
 10
42.8658
 20
9.26938
 30
0.0
 40
0.080359
 41
0.080359
  0
SEQEND
 8
0
  0
POLYLINE
  8
0
 62
     0
 66
     1
 10
0
 20
0
 30
0.0
 40
5.78585
 41
5.78585
  0
VERTEX
  8
0
 10
44.0231
 20
8.49794
 30
0.0
 40
0.080359
 41
0.080359
  0
VERTEX
  8
0
 10
42.8658
 20
8.49794
 30
0.0
 40
0.080359
 41
0.080359
  0
SEQEND
 8
0
  0
POLYLINE
  8
0
 62
     0
 66
     1
 10
0
 20
0
 30
0.0
 40
5.78585
 41
5.78585
  0
VERTEX
  8
0
 10
45.9517
 20
8.11219
 30
0.0
 40
0.080359
 41
0.080359
  0
VERTEX
  8
0
 10
45.9517
 20
6.95503
 30
0.0
 40
0.080359
 41
0.080359
  0
SEQEND
 8
0
  0
POLYLINE
  8
0
 62
     0
 66
     1
 10
0
 20
0
 30
0.0
 40
5.78585
 41
5.78585
  0
VERTEX
  8
0
 10
42.8658
 20
10.8123
 30
0.0
 40
0.080359
 41
0.080359
  0
VERTEX
  8
0
 10
42.2872
 20
10.8123
 30
0.0
 40
0.080359
 41
0.080359
  0
SEQEND
 8
0
  0
POLYLINE
  8
0
 62
     0
 66
     1
 10
0
 20
0
 30
0.0
 40
5.78585
 41
5.78585
  0
VERTEX
  8
0
 10
42.2872
 20
15.441
 30
0.0
 40
0.080359
 41
0.080359
  0
VERTEX
  8
0
 10
42.2872
 20
10.8123
 30
0.0
 40
0.080359
 41
0.080359
  0
SEQEND
 8
0
  0
POLYLINE
  8
0
 62
     0
 66
     1
 10
0
 20
0
 30
0.0
 40
5.78585
 41
5.78585
  0
VERTEX
  8
0
 10
6.22217
 20
15.441
 30
0.0
 40
0.080359
 41
0.080359
  0
VERTEX
  8
0
 10
32.0656
 20
15.441
 30
0.0
 40
0.080359
 41
0.080359
  0
SEQEND
 8
0
  0
POLYLINE
  8
0
 62
     0
 66
     1
 10
0
 20
0
 30
0.0
 40
5.78585
 41
5.78585
  0
VERTEX
  8
0
 10
32.0656
 20
15.441
 30
0.0
 40
0.080359
 41
0.080359
  0
VERTEX
  8
0
 10
33.2228
 20
15.441
 30
0.0
 40
0.080359
 41
0.080359
  0
SEQEND
 8
0
  0
POLYLINE
  8
0
 62
     0
 66
     1
 10
0
 20
0
 30
0.0
 40
5.78585
 41
5.78585
  0
VERTEX
  8
0
 10
33.2228
 20
15.441
 30
0.0
 40
0.080359
 41
0.080359
  0
VERTEX
  8
0
 10
35.73
 20
15.441
 30
0.0
 40
0.080359
 41
0.080359
  0
SEQEND
 8
0
  0
POLYLINE
  8
0
 62
     0
 66
     1
 10
0
 20
0
 30
0.0
 40
5.78585
 41
5.78585
  0
VERTEX
  8
0
 10
35.73
 20
15.441
 30
0.0
 40
0.080359
 41
0.080359
  0
VERTEX
  8
0
 10
41.1301
 20
15.441
 30
0.0
 40
0.080359
 41
0.080359
  0
SEQEND
 8
0
  0
POLYLINE
  8
0
 62
     0
 66
     1
 10
0
 20
0
 30
0.0
 40
5.78585
 41
5.78585
  0
VERTEX
  8
0
 10
41.1301
 20
15.441
 30
0.0
 40
0.080359
 41
0.080359
  0
VERTEX
  8
0
 10
42.2872
 20
15.441
 30
0.0
 40
0.080359
 41
0.080359
  0
SEQEND
 8
0
  0
POLYLINE
  8
0
 62
     0
 66
     1
 10
0
 20
0
 30
0.0
 40
5.78585
 41
5.78585
  0
VERTEX
  8
0
 10
32.0656
 20
15.441
 30
0.0
 40
0.080359
 41
0.080359
  0
VERTEX
  8
0
 10
32.0656
 20
10.8123
 30
0.0
 40
0.080359
 41
0.080359
  0
SEQEND
 8
0
  0
POLYLINE
  8
0
 62
     0
 66
     1
 10
0
 20
0
 30
0.0
 40
5.78585
 41
5.78585
  0
VERTEX
  8
0
 10
32.0656
 20
10.8123
 30
0.0
 40
0.080359
 41
0.080359
  0
VERTEX
  8
0
 10
31.6799
 20
10.8123
 30
0.0
 40
0.080359
 41
0.080359
  0
SEQEND
 8
0
  0
POLYLINE
  8
0
 62
     0
 66
     1
 10
0
 20
0
 30
0.0
 40
5.78585
 41
5.78585
  0
VERTEX
  8
0
 10
33.2228
 20
13.7052
 30
0.0
 40
0.080359
 41
0.080359
  0
VERTEX
  8
0
 10
33.2228
 20
15.441
 30
0.0
 40
0.080359
 41
0.080359
  0
SEQEND
 8
0
  0
POLYLINE
  8
0
 62
     0
 66
     1
 10
0
 20
0
 30
0.0
 70
     1
 40
0
 41
0
  0
VERTEX
  8
0
 10
33.3771
 20
15.441
 30
0.0
 40
0
 41
0
  0
VERTEX
  8
0
 10
33.3649
 20
15.381
 30
0.0
 40
0
 41
0
  0
VERTEX
  8
0
 10
33.3318
 20
15.3318
 30
0.0
 40
0
 41
0
  0
VERTEX
  8
0
 10
33.2828
 20
15.2989
 30
0.0
 40
0
 41
0
  0
VERTEX
  8
0
 10
33.2228
 20
15.2867
 30
0.0
 40
0
 41
0
  0
VERTEX
  8
0
 10
33.1626
 20
15.2989
 30
0.0
 40
0
 41
0
  0
VERTEX
  8
0
 10
33.1136
 20
15.3318
 30
0.0
 40
0
 41
0
  0
VERTEX
  8
0
 10
33.0806
 20
15.381
 30
0.0
 40
0
 41
0
  0
VERTEX
  8
0
 10
33.0685
 20
15.441
 30
0.0
 40
0
 41
0
  0
VERTEX
  8
0
 10
33.0806
 20
15.501
 30
0.0
 40
0
 41
0
  0
VERTEX
  8
0
 10
33.1136
 20
15.5501
 30
0.0
 40
0
 41
0
  0
VERTEX
  8
0
 10
33.1626
 20
15.5831
 30
0.0
 40
0
 41
0
  0
VERTEX
  8
0
 10
33.2228
 20
15.5953
 30
0.0
 40
0
 41
0
  0
VERTEX
  8
0
 10
33.2828
 20
15.5831
 30
0.0
 40
0
 41
0
  0
VERTEX
  8
0
 10
33.3318
 20
15.5501
 30
0.0
 40
0
 41
0
  0
VERTEX
  8
0
 10
33.3649
 20
15.501
 30
0.0
 40
0
 41
0
  0
VERTEX
  8
0
 10
33.3771
 20
15.441
 30
0.0
 40
0
 41
0
  0
SEQEND
 8
0
  0
POLYLINE
  8
0
 62
     0
 66
     1
 10
0
 20
0
 30
0.0
 70
     1
 40
5.78585
 41
5.78585
  0
VERTEX
  8
0
 10
33.3771
 20
15.441
 30
0.0
 40
0.080359
 41
0.080359
  0
VERTEX
  8
0
 10
33.3649
 20
15.381
 30
0.0
 40
0.080359
 41
0.080359
  0
VERTEX
  8
0
 10
33.3318
 20
15.3318
 30
0.0
 40
0.080359
 41
0.080359
  0
VERTEX
  8
0
 10
33.2828
 20
15.2989
 30
0.0
 40
0.080359
 41
0.080359
  0
VERTEX
  8
0
 10
33.2228
 20
15.2867
 30
0.0
 40
0.080359
 41
0.080359
  0
VERTEX
  8
0
 10
33.1626
 20
15.2989
 30
0.0
 40
0.080359
 41
0.080359
  0
VERTEX
  8
0
 10
33.1136
 20
15.3318
 30
0.0
 40
0.080359
 41
0.080359
  0
VERTEX
  8
0
 10
33.0806
 20
15.381
 30
0.0
 40
0.080359
 41
0.080359
  0
VERTEX
  8
0
 10
33.0685
 20
15.441
 30
0.0
 40
0.080359
 41
0.080359
  0
VERTEX
  8
0
 10
33.0806
 20
15.501
 30
0.0
 40
0.080359
 41
0.080359
  0
VERTEX
  8
0
 10
33.1136
 20
15.5501
 30
0.0
 40
0.080359
 41
0.080359
  0
VERTEX
  8
0
 10
33.1626
 20
15.5831
 30
0.0
 40
0.080359
 41
0.080359
  0
VERTEX
  8
0
 10
33.2228
 20
15.5953
 30
0.0
 40
0.080359
 41
0.080359
  0
VERTEX
  8
0
 10
33.2828
 20
15.5831
 30
0.0
 40
0.080359
 41
0.080359
  0
VERTEX
  8
0
 10
33.3318
 20
15.5501
 30
0.0
 40
0.080359
 41
0.080359
  0
VERTEX
  8
0
 10
33.3649
 20
15.501
 30
0.0
 40
0.080359
 41
0.080359
  0
VERTEX
  8
0
 10
33.3771
 20
15.441
 30
0.0
 40
0.080359
 41
0.080359
  0
SEQEND
 8
0
  0
POLYLINE
  8
0
 62
     0
 66
     1
 10
0
 20
0
 30
0.0
 40
5.78585
 41
5.78585
  0
VERTEX
  8
0
 10
35.73
 20
13.7052
 30
0.0
 40
0.080359
 41
0.080359
  0
VERTEX
  8
0
 10
35.73
 20
15.441
 30
0.0
 40
0.080359
 41
0.080359
  0
SEQEND
 8
0
  0
POLYLINE
  8
0
 62
     0
 66
     1
 10
0
 20
0
 30
0.0
 70
     1
 40
0
 41
0
  0
VERTEX
  8
0
 10
35.8843
 20
15.441
 30
0.0
 40
0
 41
0
  0
VERTEX
  8
0
 10
35.8721
 20
15.381
 30
0.0
 40
0
 41
0
  0
VERTEX
  8
0
 10
35.839
 20
15.3318
 30
0.0
 40
0
 41
0
  0
VERTEX
  8
0
 10
35.79
 20
15.2989
 30
0.0
 40
0
 41
0
  0
VERTEX
  8
0
 10
35.73
 20
15.2867
 30
0.0
 40
0
 41
0
  0
VERTEX
  8
0
 10
35.6699
 20
15.2989
 30
0.0
 40
0
 41
0
  0
VERTEX
  8
0
 10
35.6208
 20
15.3318
 30
0.0
 40
0
 41
0
  0
VERTEX
  8
0
 10
35.5878
 20
15.381
 30
0.0
 40
0
 41
0
  0
VERTEX
  8
0
 10
35.5757
 20
15.441
 30
0.0
 40
0
 41
0
  0
VERTEX
  8
0
 10
35.5878
 20
15.501
 30
0.0
 40
0
 41
0
  0
VERTEX
  8
0
 10
35.6208
 20
15.5501
 30
0.0
 40
0
 41
0
  0
VERTEX
  8
0
 10
35.6699
 20
15.5831
 30
0.0
 40
0
 41
0
  0
VERTEX
  8
0
 10
35.73
 20
15.5953
 30
0.0
 40
0
 41
0
  0
VERTEX
  8
0
 10
35.79
 20
15.5831
 30
0.0
 40
0
 41
0
  0
VERTEX
  8
0
 10
35.839
 20
15.5501
 30
0.0
 40
0
 41
0
  0
VERTEX
  8
0
 10
35.8721
 20
15.501
 30
0.0
 40
0
 41
0
  0
VERTEX
  8
0
 10
35.8843
 20
15.441
 30
0.0
 40
0
 41
0
  0
SEQEND
 8
0
  0
POLYLINE
  8
0
 62
     0
 66
     1
 10
0
 20
0
 30
0.0
 70
     1
 40
5.78585
 41
5.78585
  0
VERTEX
  8
0
 10
35.8843
 20
15.441
 30
0.0
 40
0.080359
 41
0.080359
  0
VERTEX
  8
0
 10
35.8721
 20
15.381
 30
0.0
 40
0.080359
 41
0.080359
  0
VERTEX
  8
0
 10
35.839
 20
15.3318
 30
0.0
 40
0.080359
 41
0.080359
  0
VERTEX
  8
0
 10
35.79
 20
15.2989
 30
0.0
 40
0.080359
 41
0.080359
  0
VERTEX
  8
0
 10
35.73
 20
15.2867
 30
0.0
 40
0.080359
 41
0.080359
  0
VERTEX
  8
0
 10
35.6699
 20
15.2989
 30
0.0
 40
0.080359
 41
0.080359
  0
VERTEX
  8
0
 10
35.6208
 20
15.3318
 30
0.0
 40
0.080359
 41
0.080359
  0
VERTEX
  8
0
 10
35.5878
 20
15.381
 30
0.0
 40
0.080359
 41
0.080359
  0
VERTEX
  8
0
 10
35.5757
 20
15.441
 30
0.0
 40
0.080359
 41
0.080359
  0
VERTEX
  8
0
 10
35.5878
 20
15.501
 30
0.0
 40
0.080359
 41
0.080359
  0
VERTEX
  8
0
 10
35.6208
 20
15.5501
 30
0.0
 40
0.080359
 41
0.080359
  0
VERTEX
  8
0
 10
35.6699
 20
15.5831
 30
0.0
 40
0.080359
 41
0.080359
  0
VERTEX
  8
0
 10
35.73
 20
15.5953
 30
0.0
 40
0.080359
 41
0.080359
  0
VERTEX
  8
0
 10
35.79
 20
15.5831
 30
0.0
 40
0.080359
 41
0.080359
  0
VERTEX
  8
0
 10
35.839
 20
15.5501
 30
0.0
 40
0.080359
 41
0.080359
  0
VERTEX
  8
0
 10
35.8721
 20
15.501
 30
0.0
 40
0.080359
 41
0.080359
  0
VERTEX
  8
0
 10
35.8843
 20
15.441
 30
0.0
 40
0.080359
 41
0.080359
  0
SEQEND
 8
0
  0
POLYLINE
  8
0
 62
     0
 66
     1
 10
0
 20
0
 30
0.0
 40
5.78585
 41
5.78585
  0
VERTEX
  8
0
 10
41.1301
 20
13.7052
 30
0.0
 40
0.080359
 41
0.080359
  0
VERTEX
  8
0
 10
41.1301
 20
15.441
 30
0.0
 40
0.080359
 41
0.080359
  0
SEQEND
 8
0
  0
POLYLINE
  8
0
 62
     0
 66
     1
 10
0
 20
0
 30
0.0
 70
     1
 40
0
 41
0
  0
VERTEX
  8
0
 10
41.2844
 20
15.441
 30
0.0
 40
0
 41
0
  0
VERTEX
  8
0
 10
41.2722
 20
15.381
 30
0.0
 40
0
 41
0
  0
VERTEX
  8
0
 10
41.2392
 20
15.3318
 30
0.0
 40
0
 41
0
  0
VERTEX
  8
0
 10
41.1901
 20
15.2989
 30
0.0
 40
0
 41
0
  0
VERTEX
  8
0
 10
41.1301
 20
15.2867
 30
0.0
 40
0
 41
0
  0
VERTEX
  8
0
 10
41.07
 20
15.2989
 30
0.0
 40
0
 41
0
  0
VERTEX
  8
0
 10
41.021
 20
15.3318
 30
0.0
 40
0
 41
0
  0
VERTEX
  8
0
 10
40.9879
 20
15.381
 30
0.0
 40
0
 41
0
  0
VERTEX
  8
0
 10
40.9758
 20
15.441
 30
0.0
 40
0
 41
0
  0
VERTEX
  8
0
 10
40.9879
 20
15.501
 30
0.0
 40
0
 41
0
  0
VERTEX
  8
0
 10
41.021
 20
15.5501
 30
0.0
 40
0
 41
0
  0
VERTEX
  8
0
 10
41.07
 20
15.5831
 30
0.0
 40
0
 41
0
  0
VERTEX
  8
0
 10
41.1301
 20
15.5953
 30
0.0
 40
0
 41
0
  0
VERTEX
  8
0
 10
41.1901
 20
15.5831
 30
0.0
 40
0
 41
0
  0
VERTEX
  8
0
 10
41.2392
 20
15.5501
 30
0.0
 40
0
 41
0
  0
VERTEX
  8
0
 10
41.2722
 20
15.501
 30
0.0
 40
0
 41
0
  0
VERTEX
  8
0
 10
41.2844
 20
15.441
 30
0.0
 40
0
 41
0
  0
SEQEND
 8
0
  0
POLYLINE
  8
0
 62
     0
 66
     1
 10
0
 20
0
 30
0.0
 70
     1
 40
5.78585
 41
5.78585
  0
VERTEX
  8
0
 10
41.2844
 20
15.441
 30
0.0
 40
0.080359
 41
0.080359
  0
VERTEX
  8
0
 10
41.2722
 20
15.381
 30
0.0
 40
0.080359
 41
0.080359
  0
VERTEX
  8
0
 10
41.2392
 20
15.3318
 30
0.0
 40
0.080359
 41
0.080359
  0
VERTEX
  8
0
 10
41.1901
 20
15.2989
 30
0.0
 40
0.080359
 41
0.080359
  0
VERTEX
  8
0
 10
41.1301
 20
15.2867
 30
0.0
 40
0.080359
 41
0.080359
  0
VERTEX
  8
0
 10
41.07
 20
15.2989
 30
0.0
 40
0.080359
 41
0.080359
  0
VERTEX
  8
0
 10
41.021
 20
15.3318
 30
0.0
 40
0.080359
 41
0.080359
  0
VERTEX
  8
0
 10
40.9879
 20
15.381
 30
0.0
 40
0.080359
 41
0.080359
  0
VERTEX
  8
0
 10
40.9758
 20
15.441
 30
0.0
 40
0.080359
 41
0.080359
  0
VERTEX
  8
0
 10
40.9879
 20
15.501
 30
0.0
 40
0.080359
 41
0.080359
  0
VERTEX
  8
0
 10
41.021
 20
15.5501
 30
0.0
 40
0.080359
 41
0.080359
  0
VERTEX
  8
0
 10
41.07
 20
15.5831
 30
0.0
 40
0.080359
 41
0.080359
  0
VERTEX
  8
0
 10
41.1301
 20
15.5953
 30
0.0
 40
0.080359
 41
0.080359
  0
VERTEX
  8
0
 10
41.1901
 20
15.5831
 30
0.0
 40
0.080359
 41
0.080359
  0
VERTEX
  8
0
 10
41.2392
 20
15.5501
 30
0.0
 40
0.080359
 41
0.080359
  0
VERTEX
  8
0
 10
41.2722
 20
15.501
 30
0.0
 40
0.080359
 41
0.080359
  0
VERTEX
  8
0
 10
41.2844
 20
15.441
 30
0.0
 40
0.080359
 41
0.080359
  0
SEQEND
 8
0
  0
POLYLINE
  8
0
 62
     0
 66
     1
 10
0
 20
0
 30
0.0
 40
5.78585
 41
5.78585
  0
VERTEX
  8
0
 10
38.8157
 20
10.0408
 30
0.0
 40
0.080359
 41
0.080359
  0
VERTEX
  8
0
 10
39.5872
 20
10.0408
 30
0.0
 40
0.080359
 41
0.080359
  0
SEQEND
 8
0
  0
POLYLINE
  8
0
 62
     0
 66
     1
 10
0
 20
0
 30
0.0
 40
5.78585
 41
5.78585
  0
VERTEX
  8
0
 10
39.5872
 20
10.0408
 30
0.0
 40
0.080359
 41
0.080359
  0
VERTEX
  8
0
 10
41.1301
 20
10.0408
 30
0.0
 40
0.080359
 41
0.080359
  0
SEQEND
 8
0
  0
POLYLINE
  8
0
 62
     0
 66
     1
 10
0
 20
0
 30
0.0
 40
5.78585
 41
5.78585
  0
VERTEX
  8
0
 10
41.1301
 20
10.0408
 30
0.0
 40
0.080359
 41
0.080359
  0
VERTEX
  8
0
 10
42.8658
 20
10.0408
 30
0.0
 40
0.080359
 41
0.080359
  0
SEQEND
 8
0
  0
POLYLINE
  8
0
 62
     0
 66
     1
 10
0
 20
0
 30
0.0
 40
5.78585
 41
5.78585
  0
VERTEX
  8
0
 10
38.8157
 20
9.26938
 30
0.0
 40
0.080359
 41
0.080359
  0
VERTEX
  8
0
 10
41.1301
 20
9.26938
 30
0.0
 40
0.080359
 41
0.080359
  0
SEQEND
 8
0
  0
POLYLINE
  8
0
 62
     0
 66
     1
 10
0
 20
0
 30
0.0
 40
5.78585
 41
5.78585
  0
VERTEX
  8
0
 10
41.1301
 20
9.26938
 30
0.0
 40
0.080359
 41
0.080359
  0
VERTEX
  8
0
 10
42.8658
 20
9.26938
 30
0.0
 40
0.080359
 41
0.080359
  0
SEQEND
 8
0
  0
POLYLINE
  8
0
 62
     0
 66
     1
 10
0
 20
0
 30
0.0
 40
5.78585
 41
5.78585
  0
VERTEX
  8
0
 10
39.5872
 20
5.21929
 30
0.0
 40
0.080359
 41
0.080359
  0
VERTEX
  8
0
 10
39.5872
 20
10.0408
 30
0.0
 40
0.080359
 41
0.080359
  0
SEQEND
 8
0
  0
POLYLINE
  8
0
 62
     0
 66
     1
 10
0
 20
0
 30
0.0
 70
     1
 40
0
 41
0
  0
VERTEX
  8
0
 10
39.7415
 20
10.0408
 30
0.0
 40
0
 41
0
  0
VERTEX
  8
0
 10
39.7293
 20
9.98079
 30
0.0
 40
0
 41
0
  0
VERTEX
  8
0
 10
39.6962
 20
9.93175
 30
0.0
 40
0
 41
0
  0
VERTEX
  8
0
 10
39.6472
 20
9.89871
 30
0.0
 40
0
 41
0
  0
VERTEX
  8
0
 10
39.5872
 20
9.88656
 30
0.0
 40
0
 41
0
  0
VERTEX
  8
0
 10
39.5271
 20
9.89871
 30
0.0
 40
0
 41
0
  0
VERTEX
  8
0
 10
39.4781
 20
9.93175
 30
0.0
 40
0
 41
0
  0
VERTEX
  8
0
 10
39.445
 20
9.98079
 30
0.0
 40
0
 41
0
  0
VERTEX
  8
0
 10
39.4329
 20
10.0408
 30
0.0
 40
0
 41
0
  0
VERTEX
  8
0
 10
39.445
 20
10.1009
 30
0.0
 40
0
 41
0
  0
VERTEX
  8
0
 10
39.4781
 20
10.15
 30
0.0
 40
0
 41
0
  0
VERTEX
  8
0
 10
39.5271
 20
10.183
 30
0.0
 40
0
 41
0
  0
VERTEX
  8
0
 10
39.5872
 20
10.1951
 30
0.0
 40
0
 41
0
  0
VERTEX
  8
0
 10
39.6472
 20
10.183
 30
0.0
 40
0
 41
0
  0
VERTEX
  8
0
 10
39.6962
 20
10.15
 30
0.0
 40
0
 41
0
  0
VERTEX
  8
0
 10
39.7293
 20
10.1009
 30
0.0
 40
0
 41
0
  0
VERTEX
  8
0
 10
39.7415
 20
10.0408
 30
0.0
 40
0
 41
0
  0
SEQEND
 8
0
  0
POLYLINE
  8
0
 62
     0
 66
     1
 10
0
 20
0
 30
0.0
 70
     1
 40
5.78585
 41
5.78585
  0
VERTEX
  8
0
 10
39.7415
 20
10.0408
 30
0.0
 40
0.080359
 41
0.080359
  0
VERTEX
  8
0
 10
39.7293
 20
9.98079
 30
0.0
 40
0.080359
 41
0.080359
  0
VERTEX
  8
0
 10
39.6962
 20
9.93175
 30
0.0
 40
0.080359
 41
0.080359
  0
VERTEX
  8
0
 10
39.6472
 20
9.89871
 30
0.0
 40
0.080359
 41
0.080359
  0
VERTEX
  8
0
 10
39.5872
 20
9.88656
 30
0.0
 40
0.080359
 41
0.080359
  0
VERTEX
  8
0
 10
39.5271
 20
9.89871
 30
0.0
 40
0.080359
 41
0.080359
  0
VERTEX
  8
0
 10
39.4781
 20
9.93175
 30
0.0
 40
0.080359
 41
0.080359
  0
VERTEX
  8
0
 10
39.445
 20
9.98079
 30
0.0
 40
0.080359
 41
0.080359
  0
VERTEX
  8
0
 10
39.4329
 20
10.0408
 30
0.0
 40
0.080359
 41
0.080359
  0
VERTEX
  8
0
 10
39.445
 20
10.1009
 30
0.0
 40
0.080359
 41
0.080359
  0
VERTEX
  8
0
 10
39.4781
 20
10.15
 30
0.0
 40
0.080359
 41
0.080359
  0
VERTEX
  8
0
 10
39.5271
 20
10.183
 30
0.0
 40
0.080359
 41
0.080359
  0
VERTEX
  8
0
 10
39.5872
 20
10.1951
 30
0.0
 40
0.080359
 41
0.080359
  0
VERTEX
  8
0
 10
39.6472
 20
10.183
 30
0.0
 40
0.080359
 41
0.080359
  0
VERTEX
  8
0
 10
39.6962
 20
10.15
 30
0.0
 40
0.080359
 41
0.080359
  0
VERTEX
  8
0
 10
39.7293
 20
10.1009
 30
0.0
 40
0.080359
 41
0.080359
  0
VERTEX
  8
0
 10
39.7415
 20
10.0408
 30
0.0
 40
0.080359
 41
0.080359
  0
SEQEND
 8
0
  0
POLYLINE
  8
0
 62
     0
 66
     1
 10
0
 20
0
 30
0.0
 40
5.78585
 41
5.78585
  0
VERTEX
  8
0
 10
41.1301
 20
5.21929
 30
0.0
 40
0.080359
 41
0.080359
  0
VERTEX
  8
0
 10
41.1301
 20
9.26938
 30
0.0
 40
0.080359
 41
0.080359
  0
SEQEND
 8
0
  0
POLYLINE
  8
0
 62
     0
 66
     1
 10
0
 20
0
 30
0.0
 70
     1
 40
0
 41
0
  0
VERTEX
  8
0
 10
41.2844
 20
9.26938
 30
0.0
 40
0
 41
0
  0
VERTEX
  8
0
 10
41.2722
 20
9.20936
 30
0.0
 40
0
 41
0
  0
VERTEX
  8
0
 10
41.2392
 20
9.16032
 30
0.0
 40
0
 41
0
  0
VERTEX
  8
0
 10
41.1901
 20
9.12722
 30
0.0
 40
0
 41
0
  0
VERTEX
  8
0
 10
41.1301
 20
9.11507
 30
0.0
 40
0
 41
0
  0
VERTEX
  8
0
 10
41.07
 20
9.12722
 30
0.0
 40
0
 41
0
  0
VERTEX
  8
0
 10
41.021
 20
9.16032
 30
0.0
 40
0
 41
0
  0
VERTEX
  8
0
 10
40.9879
 20
9.20936
 30
0.0
 40
0
 41
0
  0
VERTEX
  8
0
 10
40.9758
 20
9.26938
 30
0.0
 40
0
 41
0
  0
VERTEX
  8
0
 10
40.9879
 20
9.32949
 30
0.0
 40
0
 41
0
  0
VERTEX
  8
0
 10
41.021
 20
9.37853
 30
0.0
 40
0
 41
0
  0
VERTEX
  8
0
 10
41.07
 20
9.41157
 30
0.0
 40
0
 41
0
  0
VERTEX
  8
0
 10
41.1301
 20
9.42367
 30
0.0
 40
0
 41
0
  0
VERTEX
  8
0
 10
41.1901
 20
9.41157
 30
0.0
 40
0
 41
0
  0
VERTEX
  8
0
 10
41.2392
 20
9.37853
 30
0.0
 40
0
 41
0
  0
VERTEX
  8
0
 10
41.2722
 20
9.32949
 30
0.0
 40
0
 41
0
  0
VERTEX
  8
0
 10
41.2844
 20
9.26938
 30
0.0
 40
0
 41
0
  0
SEQEND
 8
0
  0
POLYLINE
  8
0
 62
     0
 66
     1
 10
0
 20
0
 30
0.0
 70
     1
 40
5.78585
 41
5.78585
  0
VERTEX
  8
0
 10
41.2844
 20
9.26938
 30
0.0
 40
0.080359
 41
0.080359
  0
VERTEX
  8
0
 10
41.2722
 20
9.20936
 30
0.0
 40
0.080359
 41
0.080359
  0
VERTEX
  8
0
 10
41.2392
 20
9.16032
 30
0.0
 40
0.080359
 41
0.080359
  0
VERTEX
  8
0
 10
41.1901
 20
9.12722
 30
0.0
 40
0.080359
 41
0.080359
  0
VERTEX
  8
0
 10
41.1301
 20
9.11507
 30
0.0
 40
0.080359
 41
0.080359
  0
VERTEX
  8
0
 10
41.07
 20
9.12722
 30
0.0
 40
0.080359
 41
0.080359
  0
VERTEX
  8
0
 10
41.021
 20
9.16032
 30
0.0
 40
0.080359
 41
0.080359
  0
VERTEX
  8
0
 10
40.9879
 20
9.20936
 30
0.0
 40
0.080359
 41
0.080359
  0
VERTEX
  8
0
 10
40.9758
 20
9.26938
 30
0.0
 40
0.080359
 41
0.080359
  0
VERTEX
  8
0
 10
40.9879
 20
9.32949
 30
0.0
 40
0.080359
 41
0.080359
  0
VERTEX
  8
0
 10
41.021
 20
9.37853
 30
0.0
 40
0.080359
 41
0.080359
  0
VERTEX
  8
0
 10
41.07
 20
9.41157
 30
0.0
 40
0.080359
 41
0.080359
  0
VERTEX
  8
0
 10
41.1301
 20
9.42367
 30
0.0
 40
0.080359
 41
0.080359
  0
VERTEX
  8
0
 10
41.1901
 20
9.41157
 30
0.0
 40
0.080359
 41
0.080359
  0
VERTEX
  8
0
 10
41.2392
 20
9.37853
 30
0.0
 40
0.080359
 41
0.080359
  0
VERTEX
  8
0
 10
41.2722
 20
9.32949
 30
0.0
 40
0.080359
 41
0.080359
  0
VERTEX
  8
0
 10
41.2844
 20
9.26938
 30
0.0
 40
0.080359
 41
0.080359
  0
SEQEND
 8
0
  0
POLYLINE
  8
0
 62
     0
 66
     1
 10
0
 20
0
 30
0.0
 40
5.78585
 41
5.78585
  0
VERTEX
  8
0
 10
41.1301
 20
11.3908
 30
0.0
 40
0.080359
 41
0.080359
  0
VERTEX
  8
0
 10
41.1301
 20
10.0408
 30
0.0
 40
0.080359
 41
0.080359
  0
SEQEND
 8
0
  0
POLYLINE
  8
0
 62
     0
 66
     1
 10
0
 20
0
 30
0.0
 70
     1
 40
0
 41
0
  0
VERTEX
  8
0
 10
41.2844
 20
10.0408
 30
0.0
 40
0
 41
0
  0
VERTEX
  8
0
 10
41.2722
 20
9.98079
 30
0.0
 40
0
 41
0
  0
VERTEX
  8
0
 10
41.2392
 20
9.93175
 30
0.0
 40
0
 41
0
  0
VERTEX
  8
0
 10
41.1901
 20
9.89871
 30
0.0
 40
0
 41
0
  0
VERTEX
  8
0
 10
41.1301
 20
9.88656
 30
0.0
 40
0
 41
0
  0
VERTEX
  8
0
 10
41.07
 20
9.89871
 30
0.0
 40
0
 41
0
  0
VERTEX
  8
0
 10
41.021
 20
9.93175
 30
0.0
 40
0
 41
0
  0
VERTEX
  8
0
 10
40.9879
 20
9.98079
 30
0.0
 40
0
 41
0
  0
VERTEX
  8
0
 10
40.9758
 20
10.0408
 30
0.0
 40
0
 41
0
  0
VERTEX
  8
0
 10
40.9879
 20
10.1009
 30
0.0
 40
0
 41
0
  0
VERTEX
  8
0
 10
41.021
 20
10.15
 30
0.0
 40
0
 41
0
  0
VERTEX
  8
0
 10
41.07
 20
10.183
 30
0.0
 40
0
 41
0
  0
VERTEX
  8
0
 10
41.1301
 20
10.1951
 30
0.0
 40
0
 41
0
  0
VERTEX
  8
0
 10
41.1901
 20
10.183
 30
0.0
 40
0
 41
0
  0
VERTEX
  8
0
 10
41.2392
 20
10.15
 30
0.0
 40
0
 41
0
  0
VERTEX
  8
0
 10
41.2722
 20
10.1009
 30
0.0
 40
0
 41
0
  0
VERTEX
  8
0
 10
41.2844
 20
10.0408
 30
0.0
 40
0
 41
0
  0
SEQEND
 8
0
  0
POLYLINE
  8
0
 62
     0
 66
     1
 10
0
 20
0
 30
0.0
 70
     1
 40
5.78585
 41
5.78585
  0
VERTEX
  8
0
 10
41.2844
 20
10.0408
 30
0.0
 40
0.080359
 41
0.080359
  0
VERTEX
  8
0
 10
41.2722
 20
9.98079
 30
0.0
 40
0.080359
 41
0.080359
  0
VERTEX
  8
0
 10
41.2392
 20
9.93175
 30
0.0
 40
0.080359
 41
0.080359
  0
VERTEX
  8
0
 10
41.1901
 20
9.89871
 30
0.0
 40
0.080359
 41
0.080359
  0
VERTEX
  8
0
 10
41.1301
 20
9.88656
 30
0.0
 40
0.080359
 41
0.080359
  0
VERTEX
  8
0
 10
41.07
 20
9.89871
 30
0.0
 40
0.080359
 41
0.080359
  0
VERTEX
  8
0
 10
41.021
 20
9.93175
 30
0.0
 40
0.080359
 41
0.080359
  0
VERTEX
  8
0
 10
40.9879
 20
9.98079
 30
0.0
 40
0.080359
 41
0.080359
  0
VERTEX
  8
0
 10
40.9758
 20
10.0408
 30
0.0
 40
0.080359
 41
0.080359
  0
VERTEX
  8
0
 10
40.9879
 20
10.1009
 30
0.0
 40
0.080359
 41
0.080359
  0
VERTEX
  8
0
 10
41.021
 20
10.15
 30
0.0
 40
0.080359
 41
0.080359
  0
VERTEX
  8
0
 10
41.07
 20
10.183
 30
0.0
 40
0.080359
 41
0.080359
  0
VERTEX
  8
0
 10
41.1301
 20
10.1951
 30
0.0
 40
0.080359
 41
0.080359
  0
VERTEX
  8
0
 10
41.1901
 20
10.183
 30
0.0
 40
0.080359
 41
0.080359
  0
VERTEX
  8
0
 10
41.2392
 20
10.15
 30
0.0
 40
0.080359
 41
0.080359
  0
VERTEX
  8
0
 10
41.2722
 20
10.1009
 30
0.0
 40
0.080359
 41
0.080359
  0
VERTEX
  8
0
 10
41.2844
 20
10.0408
 30
0.0
 40
0.080359
 41
0.080359
  0
SEQEND
 8
0
  0
POLYLINE
  8
0
 62
     0
 66
     1
 10
0
 20
0
 30
0.0
 40
5.78585
 41
5.78585
  0
VERTEX
  8
0
 10
3.71496
 20
13.3194
 30
0.0
 40
0.080359
 41
0.080359
  0
VERTEX
  8
0
 10
4.10069
 20
13.3194
 30
0.0
 40
0.080359
 41
0.080359
  0
SEQEND
 8
0
  0
POLYLINE
  8
0
 62
     0
 66
     1
 10
0
 20
0
 30
0.0
 40
5.78585
 41
5.78585
  0
VERTEX
  8
0
 10
4.10069
 20
13.3194
 30
0.0
 40
0.080359
 41
0.080359
  0
VERTEX
  8
0
 10
4.67925
 20
13.3194
 30
0.0
 40
0.080359
 41
0.080359
  0
SEQEND
 8
0
  0
POLYLINE
  8
0
 62
     0
 66
     1
 10
0
 20
0
 30
0.0
 40
5.78585
 41
5.78585
  0
VERTEX
  8
0
 10
4.67925
 20
13.3194
 30
0.0
 40
0.080359
 41
0.080359
  0
VERTEX
  8
0
 10
4.67925
 20
10.0408
 30
0.0
 40
0.080359
 41
0.080359
  0
SEQEND
 8
0
  0
POLYLINE
  8
0
 62
     0
 66
     1
 10
0
 20
0
 30
0.0
 40
5.78585
 41
5.78585
  0
VERTEX
  8
0
 10
4.67925
 20
10.0408
 30
0.0
 40
0.080359
 41
0.080359
  0
VERTEX
  8
0
 10
10.8509
 20
10.0408
 30
0.0
 40
0.080359
 41
0.080359
  0
SEQEND
 8
0
  0
POLYLINE
  8
0
 62
     0
 66
     1
 10
0
 20
0
 30
0.0
 40
5.78585
 41
5.78585
  0
VERTEX
  8
0
 10
3.71496
 20
11.7766
 30
0.0
 40
0.080359
 41
0.080359
  0
VERTEX
  8
0
 10
4.10069
 20
11.7766
 30
0.0
 40
0.080359
 41
0.080359
  0
SEQEND
 8
0
  0
POLYLINE
  8
0
 62
     0
 66
     1
 10
0
 20
0
 30
0.0
 40
5.78585
 41
5.78585
  0
VERTEX
  8
0
 10
4.10069
 20
12.1623
 30
0.0
 40
0.080359
 41
0.080359
  0
VERTEX
  8
0
 10
4.10069
 20
11.7766
 30
0.0
 40
0.080359
 41
0.080359
  0
SEQEND
 8
0
  0
POLYLINE
  8
0
 62
     0
 66
     1
 10
0
 20
0
 30
0.0
 40
5.78585
 41
5.78585
  0
VERTEX
  8
0
 10
4.10069
 20
11.7766
 30
0.0
 40
0.080359
 41
0.080359
  0
VERTEX
  8
0
 10
4.10069
 20
0.204861
 30
0.0
 40
0.080359
 41
0.080359
  0
SEQEND
 8
0
  0
POLYLINE
  8
0
 62
     0
 66
     1
 10
0
 20
0
 30
0.0
 40
5.78585
 41
5.78585
  0
VERTEX
  8
0
 10
2.75065
 20
0.204861
 30
0.0
 40
0.080359
 41
0.080359
  0
VERTEX
  8
0
 10
4.10069
 20
0.204861
 30
0.0
 40
0.080359
 41
0.080359
  0
SEQEND
 8
0
  0
POLYLINE
  8
0
 62
     0
 66
     1
 10
0
 20
0
 30
0.0
 40
5.78585
 41
5.78585
  0
VERTEX
  8
0
 10
4.10069
 20
0.204861
 30
0.0
 40
0.080359
 41
0.080359
  0
VERTEX
  8
0
 10
6.22217
 20
0.204861
 30
0.0
 40
0.080359
 41
0.080359
  0
SEQEND
 8
0
  0
POLYLINE
  8
0
 62
     0
 66
     1
 10
0
 20
0
 30
0.0
 40
5.78585
 41
5.78585
  0
VERTEX
  8
0
 10
6.22217
 20
0.204861
 30
0.0
 40
0.080359
 41
0.080359
  0
VERTEX
  8
0
 10
32.0656
 20
0.204861
 30
0.0
 40
0.080359
 41
0.080359
  0
SEQEND
 8
0
  0
POLYLINE
  8
0
 62
     0
 66
     1
 10
0
 20
0
 30
0.0
 40
5.78585
 41
5.78585
  0
VERTEX
  8
0
 10
32.0656
 20
0.204861
 30
0.0
 40
0.080359
 41
0.080359
  0
VERTEX
  8
0
 10
33.2228
 20
0.204861
 30
0.0
 40
0.080359
 41
0.080359
  0
SEQEND
 8
0
  0
POLYLINE
  8
0
 62
     0
 66
     1
 10
0
 20
0
 30
0.0
 40
5.78585
 41
5.78585
  0
VERTEX
  8
0
 10
33.2228
 20
0.204861
 30
0.0
 40
0.080359
 41
0.080359
  0
VERTEX
  8
0
 10
35.73
 20
0.204861
 30
0.0
 40
0.080359
 41
0.080359
  0
SEQEND
 8
0
  0
POLYLINE
  8
0
 62
     0
 66
     1
 10
0
 20
0
 30
0.0
 40
5.78585
 41
5.78585
  0
VERTEX
  8
0
 10
35.73
 20
0.204861
 30
0.0
 40
0.080359
 41
0.080359
  0
VERTEX
  8
0
 10
39.5872
 20
0.204861
 30
0.0
 40
0.080359
 41
0.080359
  0
SEQEND
 8
0
  0
POLYLINE
  8
0
 62
     0
 66
     1
 10
0
 20
0
 30
0.0
 40
5.78585
 41
5.78585
  0
VERTEX
  8
0
 10
39.5872
 20
0.204861
 30
0.0
 40
0.080359
 41
0.080359
  0
VERTEX
  8
0
 10
41.1301
 20
0.204861
 30
0.0
 40
0.080359
 41
0.080359
  0
SEQEND
 8
0
  0
POLYLINE
  8
0
 62
     0
 66
     1
 10
0
 20
0
 30
0.0
 40
5.78585
 41
5.78585
  0
VERTEX
  8
0
 10
41.1301
 20
0.204861
 30
0.0
 40
0.080359
 41
0.080359
  0
VERTEX
  8
0
 10
42.2872
 20
0.204861
 30
0.0
 40
0.080359
 41
0.080359
  0
SEQEND
 8
0
  0
POLYLINE
  8
0
 62
     0
 66
     1
 10
0
 20
0
 30
0.0
 40
5.78585
 41
5.78585
  0
VERTEX
  8
0
 10
42.2872
 20
0.204861
 30
0.0
 40
0.080359
 41
0.080359
  0
VERTEX
  8
0
 10
45.9517
 20
0.204861
 30
0.0
 40
0.080359
 41
0.080359
  0
SEQEND
 8
0
  0
POLYLINE
  8
0
 62
     0
 66
     1
 10
0
 20
0
 30
0.0
 40
5.78585
 41
5.78585
  0
VERTEX
  8
0
 10
42.2872
 20
0.204861
 30
0.0
 40
0.080359
 41
0.080359
  0
VERTEX
  8
0
 10
42.2872
 20
8.49794
 30
0.0
 40
0.080359
 41
0.080359
  0
SEQEND
 8
0
  0
POLYLINE
  8
0
 62
     0
 66
     1
 10
0
 20
0
 30
0.0
 40
5.78585
 41
5.78585
  0
VERTEX
  8
0
 10
42.2872
 20
8.49794
 30
0.0
 40
0.080359
 41
0.080359
  0
VERTEX
  8
0
 10
42.8658
 20
8.49794
 30
0.0
 40
0.080359
 41
0.080359
  0
SEQEND
 8
0
  0
POLYLINE
  8
0
 62
     0
 66
     1
 10
0
 20
0
 30
0.0
 40
5.78585
 41
5.78585
  0
VERTEX
  8
0
 10
45.9517
 20
0.204861
 30
0.0
 40
0.080359
 41
0.080359
  0
VERTEX
  8
0
 10
45.9517
 20
6.95503
 30
0.0
 40
0.080359
 41
0.080359
  0
SEQEND
 8
0
  0
POLYLINE
  8
0
 62
     0
 66
     1
 10
0
 20
0
 30
0.0
 70
     1
 40
0
 41
0
  0
VERTEX
  8
0
 10
42.4415
 20
0.204861
 30
0.0
 40
0
 41
0
  0
VERTEX
  8
0
 10
42.4294
 20
0.144857
 30
0.0
 40
0
 41
0
  0
VERTEX
  8
0
 10
42.3964
 20
0.0958117
 30
0.0
 40
0
 41
0
  0
VERTEX
  8
0
 10
42.3474
 20
0.0627712
 30
0.0
 40
0
 41
0
  0
VERTEX
  8
0
 10
42.2872
 20
0.0506185
 30
0.0
 40
0
 41
0
  0
VERTEX
  8
0
 10
42.2272
 20
0.0627712
 30
0.0
 40
0
 41
0
  0
VERTEX
  8
0
 10
42.1781
 20
0.0958117
 30
0.0
 40
0
 41
0
  0
VERTEX
  8
0
 10
42.1451
 20
0.144857
 30
0.0
 40
0
 41
0
  0
VERTEX
  8
0
 10
42.1329
 20
0.204861
 30
0.0
 40
0
 41
0
  0
VERTEX
  8
0
 10
42.1451
 20
0.264974
 30
0.0
 40
0
 41
0
  0
VERTEX
  8
0
 10
42.1781
 20
0.314019
 30
0.0
 40
0
 41
0
  0
VERTEX
  8
0
 10
42.2272
 20
0.34706
 30
0.0
 40
0
 41
0
  0
VERTEX
  8
0
 10
42.2872
 20
0.359158
 30
0.0
 40
0
 41
0
  0
VERTEX
  8
0
 10
42.3474
 20
0.34706
 30
0.0
 40
0
 41
0
  0
VERTEX
  8
0
 10
42.3964
 20
0.314019
 30
0.0
 40
0
 41
0
  0
VERTEX
  8
0
 10
42.4294
 20
0.264974
 30
0.0
 40
0
 41
0
  0
VERTEX
  8
0
 10
42.4415
 20
0.204861
 30
0.0
 40
0
 41
0
  0
SEQEND
 8
0
  0
POLYLINE
  8
0
 62
     0
 66
     1
 10
0
 20
0
 30
0.0
 70
     1
 40
5.78585
 41
5.78585
  0
VERTEX
  8
0
 10
42.4415
 20
0.204861
 30
0.0
 40
0.080359
 41
0.080359
  0
VERTEX
  8
0
 10
42.4294
 20
0.144857
 30
0.0
 40
0.080359
 41
0.080359
  0
VERTEX
  8
0
 10
42.3964
 20
0.0958117
 30
0.0
 40
0.080359
 41
0.080359
  0
VERTEX
  8
0
 10
42.3474
 20
0.0627712
 30
0.0
 40
0.080359
 41
0.080359
  0
VERTEX
  8
0
 10
42.2872
 20
0.0506185
 30
0.0
 40
0.080359
 41
0.080359
  0
VERTEX
  8
0
 10
42.2272
 20
0.0627712
 30
0.0
 40
0.080359
 41
0.080359
  0
VERTEX
  8
0
 10
42.1781
 20
0.0958117
 30
0.0
 40
0.080359
 41
0.080359
  0
VERTEX
  8
0
 10
42.1451
 20
0.144857
 30
0.0
 40
0.080359
 41
0.080359
  0
VERTEX
  8
0
 10
42.1329
 20
0.204861
 30
0.0
 40
0.080359
 41
0.080359
  0
VERTEX
  8
0
 10
42.1451
 20
0.264974
 30
0.0
 40
0.080359
 41
0.080359
  0
VERTEX
  8
0
 10
42.1781
 20
0.314019
 30
0.0
 40
0.080359
 41
0.080359
  0
VERTEX
  8
0
 10
42.2272
 20
0.34706
 30
0.0
 40
0.080359
 41
0.080359
  0
VERTEX
  8
0
 10
42.2872
 20
0.359158
 30
0.0
 40
0.080359
 41
0.080359
  0
VERTEX
  8
0
 10
42.3474
 20
0.34706
 30
0.0
 40
0.080359
 41
0.080359
  0
VERTEX
  8
0
 10
42.3964
 20
0.314019
 30
0.0
 40
0.080359
 41
0.080359
  0
VERTEX
  8
0
 10
42.4294
 20
0.264974
 30
0.0
 40
0.080359
 41
0.080359
  0
VERTEX
  8
0
 10
42.4415
 20
0.204861
 30
0.0
 40
0.080359
 41
0.080359
  0
SEQEND
 8
0
  0
POLYLINE
  8
0
 62
     0
 66
     1
 10
0
 20
0
 30
0.0
 40
5.78585
 41
5.78585
  0
VERTEX
  8
0
 10
41.1301
 20
3.67638
 30
0.0
 40
0.080359
 41
0.080359
  0
VERTEX
  8
0
 10
41.1301
 20
0.204861
 30
0.0
 40
0.080359
 41
0.080359
  0
SEQEND
 8
0
  0
POLYLINE
  8
0
 62
     0
 66
     1
 10
0
 20
0
 30
0.0
 70
     1
 40
0
 41
0
  0
VERTEX
  8
0
 10
41.2844
 20
0.204861
 30
0.0
 40
0
 41
0
  0
VERTEX
  8
0
 10
41.2722
 20
0.144857
 30
0.0
 40
0
 41
0
  0
VERTEX
  8
0
 10
41.2392
 20
0.0958117
 30
0.0
 40
0
 41
0
  0
VERTEX
  8
0
 10
41.1901
 20
0.0627712
 30
0.0
 40
0
 41
0
  0
VERTEX
  8
0
 10
41.1301
 20
0.0506185
 30
0.0
 40
0
 41
0
  0
VERTEX
  8
0
 10
41.07
 20
0.0627712
 30
0.0
 40
0
 41
0
  0
VERTEX
  8
0
 10
41.021
 20
0.0958117
 30
0.0
 40
0
 41
0
  0
VERTEX
  8
0
 10
40.9879
 20
0.144857
 30
0.0
 40
0
 41
0
  0
VERTEX
  8
0
 10
40.9758
 20
0.204861
 30
0.0
 40
0
 41
0
  0
VERTEX
  8
0
 10
40.9879
 20
0.264974
 30
0.0
 40
0
 41
0
  0
VERTEX
  8
0
 10
41.021
 20
0.314019
 30
0.0
 40
0
 41
0
  0
VERTEX
  8
0
 10
41.07
 20
0.34706
 30
0.0
 40
0
 41
0
  0
VERTEX
  8
0
 10
41.1301
 20
0.359158
 30
0.0
 40
0
 41
0
  0
VERTEX
  8
0
 10
41.1901
 20
0.34706
 30
0.0
 40
0
 41
0
  0
VERTEX
  8
0
 10
41.2392
 20
0.314019
 30
0.0
 40
0
 41
0
  0
VERTEX
  8
0
 10
41.2722
 20
0.264974
 30
0.0
 40
0
 41
0
  0
VERTEX
  8
0
 10
41.2844
 20
0.204861
 30
0.0
 40
0
 41
0
  0
SEQEND
 8
0
  0
POLYLINE
  8
0
 62
     0
 66
     1
 10
0
 20
0
 30
0.0
 70
     1
 40
5.78585
 41
5.78585
  0
VERTEX
  8
0
 10
41.2844
 20
0.204861
 30
0.0
 40
0.080359
 41
0.080359
  0
VERTEX
  8
0
 10
41.2722
 20
0.144857
 30
0.0
 40
0.080359
 41
0.080359
  0
VERTEX
  8
0
 10
41.2392
 20
0.0958117
 30
0.0
 40
0.080359
 41
0.080359
  0
VERTEX
  8
0
 10
41.1901
 20
0.0627712
 30
0.0
 40
0.080359
 41
0.080359
  0
VERTEX
  8
0
 10
41.1301
 20
0.0506185
 30
0.0
 40
0.080359
 41
0.080359
  0
VERTEX
  8
0
 10
41.07
 20
0.0627712
 30
0.0
 40
0.080359
 41
0.080359
  0
VERTEX
  8
0
 10
41.021
 20
0.0958117
 30
0.0
 40
0.080359
 41
0.080359
  0
VERTEX
  8
0
 10
40.9879
 20
0.144857
 30
0.0
 40
0.080359
 41
0.080359
  0
VERTEX
  8
0
 10
40.9758
 20
0.204861
 30
0.0
 40
0.080359
 41
0.080359
  0
VERTEX
  8
0
 10
40.9879
 20
0.264974
 30
0.0
 40
0.080359
 41
0.080359
  0
VERTEX
  8
0
 10
41.021
 20
0.314019
 30
0.0
 40
0.080359
 41
0.080359
  0
VERTEX
  8
0
 10
41.07
 20
0.34706
 30
0.0
 40
0.080359
 41
0.080359
  0
VERTEX
  8
0
 10
41.1301
 20
0.359158
 30
0.0
 40
0.080359
 41
0.080359
  0
VERTEX
  8
0
 10
41.1901
 20
0.34706
 30
0.0
 40
0.080359
 41
0.080359
  0
VERTEX
  8
0
 10
41.2392
 20
0.314019
 30
0.0
 40
0.080359
 41
0.080359
  0
VERTEX
  8
0
 10
41.2722
 20
0.264974
 30
0.0
 40
0.080359
 41
0.080359
  0
VERTEX
  8
0
 10
41.2844
 20
0.204861
 30
0.0
 40
0.080359
 41
0.080359
  0
SEQEND
 8
0
  0
POLYLINE
  8
0
 62
     0
 66
     1
 10
0
 20
0
 30
0.0
 40
5.78585
 41
5.78585
  0
VERTEX
  8
0
 10
39.5872
 20
3.67638
 30
0.0
 40
0.080359
 41
0.080359
  0
VERTEX
  8
0
 10
39.5872
 20
0.204861
 30
0.0
 40
0.080359
 41
0.080359
  0
SEQEND
 8
0
  0
POLYLINE
  8
0
 62
     0
 66
     1
 10
0
 20
0
 30
0.0
 70
     1
 40
0
 41
0
  0
VERTEX
  8
0
 10
39.7415
 20
0.204861
 30
0.0
 40
0
 41
0
  0
VERTEX
  8
0
 10
39.7293
 20
0.144857
 30
0.0
 40
0
 41
0
  0
VERTEX
  8
0
 10
39.6962
 20
0.0958117
 30
0.0
 40
0
 41
0
  0
VERTEX
  8
0
 10
39.6472
 20
0.0627712
 30
0.0
 40
0
 41
0
  0
VERTEX
  8
0
 10
39.5872
 20
0.0506185
 30
0.0
 40
0
 41
0
  0
VERTEX
  8
0
 10
39.5271
 20
0.0627712
 30
0.0
 40
0
 41
0
  0
VERTEX
  8
0
 10
39.4781
 20
0.0958117
 30
0.0
 40
0
 41
0
  0
VERTEX
  8
0
 10
39.445
 20
0.144857
 30
0.0
 40
0
 41
0
  0
VERTEX
  8
0
 10
39.4329
 20
0.204861
 30
0.0
 40
0
 41
0
  0
VERTEX
  8
0
 10
39.445
 20
0.264974
 30
0.0
 40
0
 41
0
  0
VERTEX
  8
0
 10
39.4781
 20
0.314019
 30
0.0
 40
0
 41
0
  0
VERTEX
  8
0
 10
39.5271
 20
0.34706
 30
0.0
 40
0
 41
0
  0
VERTEX
  8
0
 10
39.5872
 20
0.359158
 30
0.0
 40
0
 41
0
  0
VERTEX
  8
0
 10
39.6472
 20
0.34706
 30
0.0
 40
0
 41
0
  0
VERTEX
  8
0
 10
39.6962
 20
0.314019
 30
0.0
 40
0
 41
0
  0
VERTEX
  8
0
 10
39.7293
 20
0.264974
 30
0.0
 40
0
 41
0
  0
VERTEX
  8
0
 10
39.7415
 20
0.204861
 30
0.0
 40
0
 41
0
  0
SEQEND
 8
0
  0
POLYLINE
  8
0
 62
     0
 66
     1
 10
0
 20
0
 30
0.0
 70
     1
 40
5.78585
 41
5.78585
  0
VERTEX
  8
0
 10
39.7415
 20
0.204861
 30
0.0
 40
0.080359
 41
0.080359
  0
VERTEX
  8
0
 10
39.7293
 20
0.144857
 30
0.0
 40
0.080359
 41
0.080359
  0
VERTEX
  8
0
 10
39.6962
 20
0.0958117
 30
0.0
 40
0.080359
 41
0.080359
  0
VERTEX
  8
0
 10
39.6472
 20
0.0627712
 30
0.0
 40
0.080359
 41
0.080359
  0
VERTEX
  8
0
 10
39.5872
 20
0.0506185
 30
0.0
 40
0.080359
 41
0.080359
  0
VERTEX
  8
0
 10
39.5271
 20
0.0627712
 30
0.0
 40
0.080359
 41
0.080359
  0
VERTEX
  8
0
 10
39.4781
 20
0.0958117
 30
0.0
 40
0.080359
 41
0.080359
  0
VERTEX
  8
0
 10
39.445
 20
0.144857
 30
0.0
 40
0.080359
 41
0.080359
  0
VERTEX
  8
0
 10
39.4329
 20
0.204861
 30
0.0
 40
0.080359
 41
0.080359
  0
VERTEX
  8
0
 10
39.445
 20
0.264974
 30
0.0
 40
0.080359
 41
0.080359
  0
VERTEX
  8
0
 10
39.4781
 20
0.314019
 30
0.0
 40
0.080359
 41
0.080359
  0
VERTEX
  8
0
 10
39.5271
 20
0.34706
 30
0.0
 40
0.080359
 41
0.080359
  0
VERTEX
  8
0
 10
39.5872
 20
0.359158
 30
0.0
 40
0.080359
 41
0.080359
  0
VERTEX
  8
0
 10
39.6472
 20
0.34706
 30
0.0
 40
0.080359
 41
0.080359
  0
VERTEX
  8
0
 10
39.6962
 20
0.314019
 30
0.0
 40
0.080359
 41
0.080359
  0
VERTEX
  8
0
 10
39.7293
 20
0.264974
 30
0.0
 40
0.080359
 41
0.080359
  0
VERTEX
  8
0
 10
39.7415
 20
0.204861
 30
0.0
 40
0.080359
 41
0.080359
  0
SEQEND
 8
0
  0
POLYLINE
  8
0
 62
     0
 66
     1
 10
0
 20
0
 30
0.0
 40
5.78585
 41
5.78585
  0
VERTEX
  8
0
 10
35.73
 20
11.3908
 30
0.0
 40
0.080359
 41
0.080359
  0
VERTEX
  8
0
 10
35.73
 20
0.204861
 30
0.0
 40
0.080359
 41
0.080359
  0
SEQEND
 8
0
  0
POLYLINE
  8
0
 62
     0
 66
     1
 10
0
 20
0
 30
0.0
 70
     1
 40
0
 41
0
  0
VERTEX
  8
0
 10
35.8843
 20
0.204861
 30
0.0
 40
0
 41
0
  0
VERTEX
  8
0
 10
35.8721
 20
0.144857
 30
0.0
 40
0
 41
0
  0
VERTEX
  8
0
 10
35.839
 20
0.0958117
 30
0.0
 40
0
 41
0
  0
VERTEX
  8
0
 10
35.79
 20
0.0627712
 30
0.0
 40
0
 41
0
  0
VERTEX
  8
0
 10
35.73
 20
0.0506185
 30
0.0
 40
0
 41
0
  0
VERTEX
  8
0
 10
35.6699
 20
0.0627712
 30
0.0
 40
0
 41
0
  0
VERTEX
  8
0
 10
35.6208
 20
0.0958117
 30
0.0
 40
0
 41
0
  0
VERTEX
  8
0
 10
35.5878
 20
0.144857
 30
0.0
 40
0
 41
0
  0
VERTEX
  8
0
 10
35.5757
 20
0.204861
 30
0.0
 40
0
 41
0
  0
VERTEX
  8
0
 10
35.5878
 20
0.264974
 30
0.0
 40
0
 41
0
  0
VERTEX
  8
0
 10
35.6208
 20
0.314019
 30
0.0
 40
0
 41
0
  0
VERTEX
  8
0
 10
35.6699
 20
0.34706
 30
0.0
 40
0
 41
0
  0
VERTEX
  8
0
 10
35.73
 20
0.359158
 30
0.0
 40
0
 41
0
  0
VERTEX
  8
0
 10
35.79
 20
0.34706
 30
0.0
 40
0
 41
0
  0
VERTEX
  8
0
 10
35.839
 20
0.314019
 30
0.0
 40
0
 41
0
  0
VERTEX
  8
0
 10
35.8721
 20
0.264974
 30
0.0
 40
0
 41
0
  0
VERTEX
  8
0
 10
35.8843
 20
0.204861
 30
0.0
 40
0
 41
0
  0
SEQEND
 8
0
  0
POLYLINE
  8
0
 62
     0
 66
     1
 10
0
 20
0
 30
0.0
 70
     1
 40
5.78585
 41
5.78585
  0
VERTEX
  8
0
 10
35.8843
 20
0.204861
 30
0.0
 40
0.080359
 41
0.080359
  0
VERTEX
  8
0
 10
35.8721
 20
0.144857
 30
0.0
 40
0.080359
 41
0.080359
  0
VERTEX
  8
0
 10
35.839
 20
0.0958117
 30
0.0
 40
0.080359
 41
0.080359
  0
VERTEX
  8
0
 10
35.79
 20
0.0627712
 30
0.0
 40
0.080359
 41
0.080359
  0
VERTEX
  8
0
 10
35.73
 20
0.0506185
 30
0.0
 40
0.080359
 41
0.080359
  0
VERTEX
  8
0
 10
35.6699
 20
0.0627712
 30
0.0
 40
0.080359
 41
0.080359
  0
VERTEX
  8
0
 10
35.6208
 20
0.0958117
 30
0.0
 40
0.080359
 41
0.080359
  0
VERTEX
  8
0
 10
35.5878
 20
0.144857
 30
0.0
 40
0.080359
 41
0.080359
  0
VERTEX
  8
0
 10
35.5757
 20
0.204861
 30
0.0
 40
0.080359
 41
0.080359
  0
VERTEX
  8
0
 10
35.5878
 20
0.264974
 30
0.0
 40
0.080359
 41
0.080359
  0
VERTEX
  8
0
 10
35.6208
 20
0.314019
 30
0.0
 40
0.080359
 41
0.080359
  0
VERTEX
  8
0
 10
35.6699
 20
0.34706
 30
0.0
 40
0.080359
 41
0.080359
  0
VERTEX
  8
0
 10
35.73
 20
0.359158
 30
0.0
 40
0.080359
 41
0.080359
  0
VERTEX
  8
0
 10
35.79
 20
0.34706
 30
0.0
 40
0.080359
 41
0.080359
  0
VERTEX
  8
0
 10
35.839
 20
0.314019
 30
0.0
 40
0.080359
 41
0.080359
  0
VERTEX
  8
0
 10
35.8721
 20
0.264974
 30
0.0
 40
0.080359
 41
0.080359
  0
VERTEX
  8
0
 10
35.8843
 20
0.204861
 30
0.0
 40
0.080359
 41
0.080359
  0
SEQEND
 8
0
  0
POLYLINE
  8
0
 62
     0
 66
     1
 10
0
 20
0
 30
0.0
 40
5.78585
 41
5.78585
  0
VERTEX
  8
0
 10
33.2228
 20
11.3908
 30
0.0
 40
0.080359
 41
0.080359
  0
VERTEX
  8
0
 10
33.2228
 20
0.204861
 30
0.0
 40
0.080359
 41
0.080359
  0
SEQEND
 8
0
  0
POLYLINE
  8
0
 62
     0
 66
     1
 10
0
 20
0
 30
0.0
 70
     1
 40
0
 41
0
  0
VERTEX
  8
0
 10
33.3771
 20
0.204861
 30
0.0
 40
0
 41
0
  0
VERTEX
  8
0
 10
33.3649
 20
0.144857
 30
0.0
 40
0
 41
0
  0
VERTEX
  8
0
 10
33.3318
 20
0.0958117
 30
0.0
 40
0
 41
0
  0
VERTEX
  8
0
 10
33.2828
 20
0.0627712
 30
0.0
 40
0
 41
0
  0
VERTEX
  8
0
 10
33.2228
 20
0.0506185
 30
0.0
 40
0
 41
0
  0
VERTEX
  8
0
 10
33.1626
 20
0.0627712
 30
0.0
 40
0
 41
0
  0
VERTEX
  8
0
 10
33.1136
 20
0.0958117
 30
0.0
 40
0
 41
0
  0
VERTEX
  8
0
 10
33.0806
 20
0.144857
 30
0.0
 40
0
 41
0
  0
VERTEX
  8
0
 10
33.0685
 20
0.204861
 30
0.0
 40
0
 41
0
  0
VERTEX
  8
0
 10
33.0806
 20
0.264974
 30
0.0
 40
0
 41
0
  0
VERTEX
  8
0
 10
33.1136
 20
0.314019
 30
0.0
 40
0
 41
0
  0
VERTEX
  8
0
 10
33.1626
 20
0.34706
 30
0.0
 40
0
 41
0
  0
VERTEX
  8
0
 10
33.2228
 20
0.359158
 30
0.0
 40
0
 41
0
  0
VERTEX
  8
0
 10
33.2828
 20
0.34706
 30
0.0
 40
0
 41
0
  0
VERTEX
  8
0
 10
33.3318
 20
0.314019
 30
0.0
 40
0
 41
0
  0
VERTEX
  8
0
 10
33.3649
 20
0.264974
 30
0.0
 40
0
 41
0
  0
VERTEX
  8
0
 10
33.3771
 20
0.204861
 30
0.0
 40
0
 41
0
  0
SEQEND
 8
0
  0
POLYLINE
  8
0
 62
     0
 66
     1
 10
0
 20
0
 30
0.0
 70
     1
 40
5.78585
 41
5.78585
  0
VERTEX
  8
0
 10
33.3771
 20
0.204861
 30
0.0
 40
0.080359
 41
0.080359
  0
VERTEX
  8
0
 10
33.3649
 20
0.144857
 30
0.0
 40
0.080359
 41
0.080359
  0
VERTEX
  8
0
 10
33.3318
 20
0.0958117
 30
0.0
 40
0.080359
 41
0.080359
  0
VERTEX
  8
0
 10
33.2828
 20
0.0627712
 30
0.0
 40
0.080359
 41
0.080359
  0
VERTEX
  8
0
 10
33.2228
 20
0.0506185
 30
0.0
 40
0.080359
 41
0.080359
  0
VERTEX
  8
0
 10
33.1626
 20
0.0627712
 30
0.0
 40
0.080359
 41
0.080359
  0
VERTEX
  8
0
 10
33.1136
 20
0.0958117
 30
0.0
 40
0.080359
 41
0.080359
  0
VERTEX
  8
0
 10
33.0806
 20
0.144857
 30
0.0
 40
0.080359
 41
0.080359
  0
VERTEX
  8
0
 10
33.0685
 20
0.204861
 30
0.0
 40
0.080359
 41
0.080359
  0
VERTEX
  8
0
 10
33.0806
 20
0.264974
 30
0.0
 40
0.080359
 41
0.080359
  0
VERTEX
  8
0
 10
33.1136
 20
0.314019
 30
0.0
 40
0.080359
 41
0.080359
  0
VERTEX
  8
0
 10
33.1626
 20
0.34706
 30
0.0
 40
0.080359
 41
0.080359
  0
VERTEX
  8
0
 10
33.2228
 20
0.359158
 30
0.0
 40
0.080359
 41
0.080359
  0
VERTEX
  8
0
 10
33.2828
 20
0.34706
 30
0.0
 40
0.080359
 41
0.080359
  0
VERTEX
  8
0
 10
33.3318
 20
0.314019
 30
0.0
 40
0.080359
 41
0.080359
  0
VERTEX
  8
0
 10
33.3649
 20
0.264974
 30
0.0
 40
0.080359
 41
0.080359
  0
VERTEX
  8
0
 10
33.3771
 20
0.204861
 30
0.0
 40
0.080359
 41
0.080359
  0
SEQEND
 8
0
  0
POLYLINE
  8
0
 62
     0
 66
     1
 10
0
 20
0
 30
0.0
 40
5.78585
 41
5.78585
  0
VERTEX
  8
0
 10
31.6799
 20
6.95503
 30
0.0
 40
0.080359
 41
0.080359
  0
VERTEX
  8
0
 10
32.0656
 20
6.95503
 30
0.0
 40
0.080359
 41
0.080359
  0
SEQEND
 8
0
  0
POLYLINE
  8
0
 62
     0
 66
     1
 10
0
 20
0
 30
0.0
 40
5.78585
 41
5.78585
  0
VERTEX
  8
0
 10
32.0656
 20
6.95503
 30
0.0
 40
0.080359
 41
0.080359
  0
VERTEX
  8
0
 10
32.0656
 20
0.204861
 30
0.0
 40
0.080359
 41
0.080359
  0
SEQEND
 8
0
  0
POLYLINE
  8
0
 62
     0
 66
     1
 10
0
 20
0
 30
0.0
 70
     1
 40
0
 41
0
  0
VERTEX
  8
0
 10
32.2199
 20
0.204861
 30
0.0
 40
0
 41
0
  0
VERTEX
  8
0
 10
32.2078
 20
0.144857
 30
0.0
 40
0
 41
0
  0
VERTEX
  8
0
 10
32.1747
 20
0.0958117
 30
0.0
 40
0
 41
0
  0
VERTEX
  8
0
 10
32.1257
 20
0.0627712
 30
0.0
 40
0
 41
0
  0
VERTEX
  8
0
 10
32.0656
 20
0.0506185
 30
0.0
 40
0
 41
0
  0
VERTEX
  8
0
 10
32.0056
 20
0.0627712
 30
0.0
 40
0
 41
0
  0
VERTEX
  8
0
 10
31.9565
 20
0.0958117
 30
0.0
 40
0
 41
0
  0
VERTEX
  8
0
 10
31.9235
 20
0.144857
 30
0.0
 40
0
 41
0
  0
VERTEX
  8
0
 10
31.9114
 20
0.204861
 30
0.0
 40
0
 41
0
  0
VERTEX
  8
0
 10
31.9235
 20
0.264974
 30
0.0
 40
0
 41
0
  0
VERTEX
  8
0
 10
31.9565
 20
0.314019
 30
0.0
 40
0
 41
0
  0
VERTEX
  8
0
 10
32.0056
 20
0.34706
 30
0.0
 40
0
 41
0
  0
VERTEX
  8
0
 10
32.0656
 20
0.359158
 30
0.0
 40
0
 41
0
  0
VERTEX
  8
0
 10
32.1257
 20
0.34706
 30
0.0
 40
0
 41
0
  0
VERTEX
  8
0
 10
32.1747
 20
0.314019
 30
0.0
 40
0
 41
0
  0
VERTEX
  8
0
 10
32.2078
 20
0.264974
 30
0.0
 40
0
 41
0
  0
VERTEX
  8
0
 10
32.2199
 20
0.204861
 30
0.0
 40
0
 41
0
  0
SEQEND
 8
0
  0
POLYLINE
  8
0
 62
     0
 66
     1
 10
0
 20
0
 30
0.0
 70
     1
 40
5.78585
 41
5.78585
  0
VERTEX
  8
0
 10
32.2199
 20
0.204861
 30
0.0
 40
0.080359
 41
0.080359
  0
VERTEX
  8
0
 10
32.2078
 20
0.144857
 30
0.0
 40
0.080359
 41
0.080359
  0
VERTEX
  8
0
 10
32.1747
 20
0.0958117
 30
0.0
 40
0.080359
 41
0.080359
  0
VERTEX
  8
0
 10
32.1257
 20
0.0627712
 30
0.0
 40
0.080359
 41
0.080359
  0
VERTEX
  8
0
 10
32.0656
 20
0.0506185
 30
0.0
 40
0.080359
 41
0.080359
  0
VERTEX
  8
0
 10
32.0056
 20
0.0627712
 30
0.0
 40
0.080359
 41
0.080359
  0
VERTEX
  8
0
 10
31.9565
 20
0.0958117
 30
0.0
 40
0.080359
 41
0.080359
  0
VERTEX
  8
0
 10
31.9235
 20
0.144857
 30
0.0
 40
0.080359
 41
0.080359
  0
VERTEX
  8
0
 10
31.9114
 20
0.204861
 30
0.0
 40
0.080359
 41
0.080359
  0
VERTEX
  8
0
 10
31.9235
 20
0.264974
 30
0.0
 40
0.080359
 41
0.080359
  0
VERTEX
  8
0
 10
31.9565
 20
0.314019
 30
0.0
 40
0.080359
 41
0.080359
  0
VERTEX
  8
0
 10
32.0056
 20
0.34706
 30
0.0
 40
0.080359
 41
0.080359
  0
VERTEX
  8
0
 10
32.0656
 20
0.359158
 30
0.0
 40
0.080359
 41
0.080359
  0
VERTEX
  8
0
 10
32.1257
 20
0.34706
 30
0.0
 40
0.080359
 41
0.080359
  0
VERTEX
  8
0
 10
32.1747
 20
0.314019
 30
0.0
 40
0.080359
 41
0.080359
  0
VERTEX
  8
0
 10
32.2078
 20
0.264974
 30
0.0
 40
0.080359
 41
0.080359
  0
VERTEX
  8
0
 10
32.2199
 20
0.204861
 30
0.0
 40
0.080359
 41
0.080359
  0
SEQEND
 8
0
  0
POLYLINE
  8
0
 62
     0
 66
     1
 10
0
 20
0
 30
0.0
 40
5.78585
 41
5.78585
  0
VERTEX
  8
0
 10
2.75065
 20
4.25499
 30
0.0
 40
0.080359
 41
0.080359
  0
VERTEX
  8
0
 10
2.75065
 20
0.204861
 30
0.0
 40
0.080359
 41
0.080359
  0
SEQEND
 8
0
  0
POLYLINE
  8
0
 62
     0
 66
     1
 10
0
 20
0
 30
0.0
 70
     1
 40
0
 41
0
  0
VERTEX
  8
0
 10
4.25499
 20
0.204861
 30
0.0
 40
0
 41
0
  0
VERTEX
  8
0
 10
4.24283
 20
0.144857
 30
0.0
 40
0
 41
0
  0
VERTEX
  8
0
 10
4.20979
 20
0.0958117
 30
0.0
 40
0
 41
0
  0
VERTEX
  8
0
 10
4.16075
 20
0.0627712
 30
0.0
 40
0
 41
0
  0
VERTEX
  8
0
 10
4.10069
 20
0.0506185
 30
0.0
 40
0
 41
0
  0
VERTEX
  8
0
 10
4.04058
 20
0.0627712
 30
0.0
 40
0
 41
0
  0
VERTEX
  8
0
 10
3.99154
 20
0.0958117
 30
0.0
 40
0
 41
0
  0
VERTEX
  8
0
 10
3.9585
 20
0.144857
 30
0.0
 40
0
 41
0
  0
VERTEX
  8
0
 10
3.9464
 20
0.204861
 30
0.0
 40
0
 41
0
  0
VERTEX
  8
0
 10
3.9585
 20
0.264974
 30
0.0
 40
0
 41
0
  0
VERTEX
  8
0
 10
3.99154
 20
0.314019
 30
0.0
 40
0
 41
0
  0
VERTEX
  8
0
 10
4.04058
 20
0.34706
 30
0.0
 40
0
 41
0
  0
VERTEX
  8
0
 10
4.10069
 20
0.359158
 30
0.0
 40
0
 41
0
  0
VERTEX
  8
0
 10
4.16075
 20
0.34706
 30
0.0
 40
0
 41
0
  0
VERTEX
  8
0
 10
4.20979
 20
0.314019
 30
0.0
 40
0
 41
0
  0
VERTEX
  8
0
 10
4.24283
 20
0.264974
 30
0.0
 40
0
 41
0
  0
VERTEX
  8
0
 10
4.25499
 20
0.204861
 30
0.0
 40
0
 41
0
  0
SEQEND
 8
0
  0
POLYLINE
  8
0
 62
     0
 66
     1
 10
0
 20
0
 30
0.0
 70
     1
 40
5.78585
 41
5.78585
  0
VERTEX
  8
0
 10
4.25499
 20
0.204861
 30
0.0
 40
0.080359
 41
0.080359
  0
VERTEX
  8
0
 10
4.24283
 20
0.144857
 30
0.0
 40
0.080359
 41
0.080359
  0
VERTEX
  8
0
 10
4.20979
 20
0.0958117
 30
0.0
 40
0.080359
 41
0.080359
  0
VERTEX
  8
0
 10
4.16075
 20
0.0627712
 30
0.0
 40
0.080359
 41
0.080359
  0
VERTEX
  8
0
 10
4.10069
 20
0.0506185
 30
0.0
 40
0.080359
 41
0.080359
  0
VERTEX
  8
0
 10
4.04058
 20
0.0627712
 30
0.0
 40
0.080359
 41
0.080359
  0
VERTEX
  8
0
 10
3.99154
 20
0.0958117
 30
0.0
 40
0.080359
 41
0.080359
  0
VERTEX
  8
0
 10
3.9585
 20
0.144857
 30
0.0
 40
0.080359
 41
0.080359
  0
VERTEX
  8
0
 10
3.9464
 20
0.204861
 30
0.0
 40
0.080359
 41
0.080359
  0
VERTEX
  8
0
 10
3.9585
 20
0.264974
 30
0.0
 40
0.080359
 41
0.080359
  0
VERTEX
  8
0
 10
3.99154
 20
0.314019
 30
0.0
 40
0.080359
 41
0.080359
  0
VERTEX
  8
0
 10
4.04058
 20
0.34706
 30
0.0
 40
0.080359
 41
0.080359
  0
VERTEX
  8
0
 10
4.10069
 20
0.359158
 30
0.0
 40
0.080359
 41
0.080359
  0
VERTEX
  8
0
 10
4.16075
 20
0.34706
 30
0.0
 40
0.080359
 41
0.080359
  0
VERTEX
  8
0
 10
4.20979
 20
0.314019
 30
0.0
 40
0.080359
 41
0.080359
  0
VERTEX
  8
0
 10
4.24283
 20
0.264974
 30
0.0
 40
0.080359
 41
0.080359
  0
VERTEX
  8
0
 10
4.25499
 20
0.204861
 30
0.0
 40
0.080359
 41
0.080359
  0
SEQEND
 8
0
  0
POLYLINE
  8
0
 62
     0
 66
     1
 10
0
 20
0
 30
0.0
 40
5.78585
 41
5.78585
  0
VERTEX
  8
0
 10
36.5014
 20
10.0408
 30
0.0
 40
0.080359
 41
0.080359
  0
VERTEX
  8
0
 10
33.9943
 20
10.0408
 30
0.0
 40
0.080359
 41
0.080359
  0
SEQEND
 8
0
  0
POLYLINE
  8
0
 62
     0
 66
     1
 10
0
 20
0
 30
0.0
 40
5.78585
 41
5.78585
  0
VERTEX
  8
0
 10
33.9943
 20
10.0408
 30
0.0
 40
0.080359
 41
0.080359
  0
VERTEX
  8
0
 10
33.9943
 20
3.48351
 30
0.0
 40
0.080359
 41
0.080359
  0
SEQEND
 8
0
  0
POLYLINE
  8
0
 62
     0
 66
     1
 10
0
 20
0
 30
0.0
 40
5.78585
 41
5.78585
  0
VERTEX
  8
0
 10
33.9943
 20
3.48351
 30
0.0
 40
0.080359
 41
0.080359
  0
VERTEX
  8
0
 10
7.76508
 20
3.48351
 30
0.0
 40
0.080359
 41
0.080359
  0
SEQEND
 8
0
  0
POLYLINE
  8
0
 62
     0
 66
     1
 10
0
 20
0
 30
0.0
 40
5.78585
 41
5.78585
  0
VERTEX
  8
0
 10
7.76508
 20
3.48351
 30
0.0
 40
0.080359
 41
0.080359
  0
VERTEX
  8
0
 10
7.76508
 20
10.8123
 30
0.0
 40
0.080359
 41
0.080359
  0
SEQEND
 8
0
  0
POLYLINE
  8
0
 62
     0
 66
     1
 10
0
 20
0
 30
0.0
 40
5.78585
 41
5.78585
  0
VERTEX
  8
0
 10
7.76508
 20
10.8123
 30
0.0
 40
0.080359
 41
0.080359
  0
VERTEX
  8
0
 10
10.8509
 20
10.8123
 30
0.0
 40
0.080359
 41
0.080359
  0
SEQEND
 8
0
  0
POLYLINE
  8
0
 62
     0
 66
     1
 10
0
 20
0
 30
0.0
 40
5.78585
 41
5.78585
  0
VERTEX
  8
0
 10
10.8509
 20
9.26938
 30
0.0
 40
0.080359
 41
0.080359
  0
VERTEX
  8
0
 10
8.53651
 20
9.26938
 30
0.0
 40
0.080359
 41
0.080359
  0
SEQEND
 8
0
  0
POLYLINE
  8
0
 62
     0
 66
     1
 10
0
 20
0
 30
0.0
 40
5.78585
 41
5.78585
  0
VERTEX
  8
0
 10
8.53651
 20
9.26938
 30
0.0
 40
0.080359
 41
0.080359
  0
VERTEX
  8
0
 10
8.53651
 20
4.25499
 30
0.0
 40
0.080359
 41
0.080359
  0
SEQEND
 8
0
  0
POLYLINE
  8
0
 62
     0
 66
     1
 10
0
 20
0
 30
0.0
 40
5.78585
 41
5.78585
  0
VERTEX
  8
0
 10
8.53651
 20
4.25499
 30
0.0
 40
0.080359
 41
0.080359
  0
VERTEX
  8
0
 10
34.7657
 20
4.25499
 30
0.0
 40
0.080359
 41
0.080359
  0
SEQEND
 8
0
  0
POLYLINE
  8
0
 62
     0
 66
     1
 10
0
 20
0
 30
0.0
 40
5.78585
 41
5.78585
  0
VERTEX
  8
0
 10
34.7657
 20
4.25499
 30
0.0
 40
0.080359
 41
0.080359
  0
VERTEX
  8
0
 10
34.7657
 20
9.26938
 30
0.0
 40
0.080359
 41
0.080359
  0
SEQEND
 8
0
  0
POLYLINE
  8
0
 62
     0
 66
     1
 10
0
 20
0
 30
0.0
 40
5.78585
 41
5.78585
  0
VERTEX
  8
0
 10
34.7657
 20
9.26938
 30
0.0
 40
0.080359
 41
0.080359
  0
VERTEX
  8
0
 10
36.5014
 20
9.26938
 30
0.0
 40
0.080359
 41
0.080359
  0
SEQEND
 8
0
  0
POLYLINE
  8
0
 62
     0
 66
     1
 10
0
 20
0
 30
0.0
 40
5.78585
 41
5.78585
  0
VERTEX
  8
0
 10
3.13639
 20
3.48351
 30
0.0
 40
0.080359
 41
0.080359
  0
VERTEX
  8
0
 10
3.13639
 20
8.49794
 30
0.0
 40
0.080359
 41
0.080359
  0
SEQEND
 8
0
  0
POLYLINE
  8
0
 62
     0
 66
     1
 10
0
 20
0
 30
0.0
 40
5.78585
 41
5.78585
  0
VERTEX
  8
0
 10
3.13639
 20
8.49794
 30
0.0
 40
0.080359
 41
0.080359
  0
VERTEX
  8
0
 10
10.8509
 20
8.49794
 30
0.0
 40
0.080359
 41
0.080359
  0
SEQEND
 8
0
  0
POLYLINE
  8
0
 62
     0
 66
     1
 10
0
 20
0
 30
0.0
 70
     1
 40
5.78585
 41
5.78585
  0
VERTEX
  8
0
 10
5.91357
 20
13.3194
 30
0.0
 40
0.080359
 41
0.080359
  0
VERTEX
  8
0
 10
6.53076
 20
13.3194
 30
0.0
 40
0.080359
 41
0.080359
  0
VERTEX
  8
0
 10
6.53076
 20
11.7766
 30
0.0
 40
0.080359
 41
0.080359
  0
VERTEX
  8
0
 10
5.91357
 20
11.7766
 30
0.0
 40
0.080359
 41
0.080359
  0
VERTEX
  8
0
 10
5.91357
 20
13.3194
 30
0.0
 40
0.080359
 41
0.080359
  0
SEQEND
 8
0
  0
POLYLINE
  8
0
 62
     0
 66
     1
 10
0
 20
0
 30
0.0
 70
     1
 40
0
 41
0
  0
VERTEX
  8
0
 10
6.53076
 20
12.548
 30
0.0
 40
0
 41
0
  0
VERTEX
  8
0
 10
6.76215
 20
12.6637
 30
0.0
 40
0
 41
0
  0
VERTEX
  8
0
 10
6.76215
 20
12.4323
 30
0.0
 40
0
 41
0
  0
VERTEX
  8
0
 10
6.53076
 20
12.548
 30
0.0
 40
0
 41
0
  0
SEQEND
 8
0
  0
POLYLINE
  8
0
 62
     0
 66
     1
 10
0
 20
0
 30
0.0
 70
     1
 40
5.78585
 41
5.78585
  0
VERTEX
  8
0
 10
6.53076
 20
12.548
 30
0.0
 40
0.080359
 41
0.080359
  0
VERTEX
  8
0
 10
6.76215
 20
12.6637
 30
0.0
 40
0.080359
 41
0.080359
  0
VERTEX
  8
0
 10
6.76215
 20
12.4323
 30
0.0
 40
0.080359
 41
0.080359
  0
VERTEX
  8
0
 10
6.53076
 20
12.548
 30
0.0
 40
0.080359
 41
0.080359
  0
SEQEND
 8
0
  0
POLYLINE
  8
0
 62
     0
 66
     1
 10
0
 20
0
 30
0.0
 40
5.78585
 41
5.78585
  0
VERTEX
  8
0
 10
6.22217
 20
13.3194
 30
0.0
 40
0.080359
 41
0.080359
  0
VERTEX
  8
0
 10
6.22217
 20
13.7052
 30
0.0
 40
0.080359
 41
0.080359
  0
SEQEND
 8
0
  0
POLYLINE
  8
0
 62
     0
 66
     1
 10
0
 20
0
 30
0.0
 40
5.78585
 41
5.78585
  0
VERTEX
  8
0
 10
6.22217
 20
11.7766
 30
0.0
 40
0.080359
 41
0.080359
  0
VERTEX
  8
0
 10
6.22217
 20
11.3908
 30
0.0
 40
0.080359
 41
0.080359
  0
SEQEND
 8
0
  0
POLYLINE
  8
0
 62
     0
 66
     1
 10
0
 20
0
 30
0.0
 40
5.78585
 41
5.78585
  0
VERTEX
  8
0
 10
6.60792
 20
12.548
 30
0.0
 40
0.080359
 41
0.080359
  0
VERTEX
  8
0
 10
6.9936
 20
12.548
 30
0.0
 40
0.080359
 41
0.080359
  0
SEQEND
 8
0
  0
POLYLINE
  8
0
 62
     0
 66
     1
 10
0
 20
0
 30
0.0
 70
     1
 40
5.78585
 41
5.78585
  0
VERTEX
  8
0
 10
5.91357
 20
5.02642
 30
0.0
 40
0.080359
 41
0.080359
  0
VERTEX
  8
0
 10
6.53076
 20
5.02642
 30
0.0
 40
0.080359
 41
0.080359
  0
VERTEX
  8
0
 10
6.53076
 20
3.48351
 30
0.0
 40
0.080359
 41
0.080359
  0
VERTEX
  8
0
 10
5.91357
 20
3.48351
 30
0.0
 40
0.080359
 41
0.080359
  0
VERTEX
  8
0
 10
5.91357
 20
5.02642
 30
0.0
 40
0.080359
 41
0.080359
  0
SEQEND
 8
0
  0
POLYLINE
  8
0
 62
     0
 66
     1
 10
0
 20
0
 30
0.0
 40
5.78585
 41
5.78585
  0
VERTEX
  8
0
 10
6.22217
 20
5.02642
 30
0.0
 40
0.080359
 41
0.080359
  0
VERTEX
  8
0
 10
6.22217
 20
5.41217
 30
0.0
 40
0.080359
 41
0.080359
  0
SEQEND
 8
0
  0
POLYLINE
  8
0
 62
     0
 66
     1
 10
0
 20
0
 30
0.0
 40
5.78585
 41
5.78585
  0
VERTEX
  8
0
 10
6.22217
 20
3.48351
 30
0.0
 40
0.080359
 41
0.080359
  0
VERTEX
  8
0
 10
6.22217
 20
3.09782
 30
0.0
 40
0.080359
 41
0.080359
  0
SEQEND
 8
0
  0
POLYLINE
  8
0
 62
     0
 66
     1
 10
0
 20
0
 30
0.0
 40
5.78585
 41
5.78585
  0
VERTEX
  8
0
 10
6.22217
 20
15.441
 30
0.0
 40
0.080359
 41
0.080359
  0
VERTEX
  8
0
 10
6.22217
 20
13.7052
 30
0.0
 40
0.080359
 41
0.080359
  0
SEQEND
 8
0
  0
POLYLINE
  8
0
 62
     0
 66
     1
 10
0
 20
0
 30
0.0
 70
     1
 40
0
 41
0
  0
VERTEX
  8
0
 10
32.2199
 20
15.441
 30
0.0
 40
0
 41
0
  0
VERTEX
  8
0
 10
32.2078
 20
15.381
 30
0.0
 40
0
 41
0
  0
VERTEX
  8
0
 10
32.1747
 20
15.3318
 30
0.0
 40
0
 41
0
  0
VERTEX
  8
0
 10
32.1257
 20
15.2989
 30
0.0
 40
0
 41
0
  0
VERTEX
  8
0
 10
32.0656
 20
15.2867
 30
0.0
 40
0
 41
0
  0
VERTEX
  8
0
 10
32.0056
 20
15.2989
 30
0.0
 40
0
 41
0
  0
VERTEX
  8
0
 10
31.9565
 20
15.3318
 30
0.0
 40
0
 41
0
  0
VERTEX
  8
0
 10
31.9235
 20
15.381
 30
0.0
 40
0
 41
0
  0
VERTEX
  8
0
 10
31.9114
 20
15.441
 30
0.0
 40
0
 41
0
  0
VERTEX
  8
0
 10
31.9235
 20
15.501
 30
0.0
 40
0
 41
0
  0
VERTEX
  8
0
 10
31.9565
 20
15.5501
 30
0.0
 40
0
 41
0
  0
VERTEX
  8
0
 10
32.0056
 20
15.5831
 30
0.0
 40
0
 41
0
  0
VERTEX
  8
0
 10
32.0656
 20
15.5953
 30
0.0
 40
0
 41
0
  0
VERTEX
  8
0
 10
32.1257
 20
15.5831
 30
0.0
 40
0
 41
0
  0
VERTEX
  8
0
 10
32.1747
 20
15.5501
 30
0.0
 40
0
 41
0
  0
VERTEX
  8
0
 10
32.2078
 20
15.501
 30
0.0
 40
0
 41
0
  0
VERTEX
  8
0
 10
32.2199
 20
15.441
 30
0.0
 40
0
 41
0
  0
SEQEND
 8
0
  0
POLYLINE
  8
0
 62
     0
 66
     1
 10
0
 20
0
 30
0.0
 70
     1
 40
5.78585
 41
5.78585
  0
VERTEX
  8
0
 10
32.2199
 20
15.441
 30
0.0
 40
0.080359
 41
0.080359
  0
VERTEX
  8
0
 10
32.2078
 20
15.381
 30
0.0
 40
0.080359
 41
0.080359
  0
VERTEX
  8
0
 10
32.1747
 20
15.3318
 30
0.0
 40
0.080359
 41
0.080359
  0
VERTEX
  8
0
 10
32.1257
 20
15.2989
 30
0.0
 40
0.080359
 41
0.080359
  0
VERTEX
  8
0
 10
32.0656
 20
15.2867
 30
0.0
 40
0.080359
 41
0.080359
  0
VERTEX
  8
0
 10
32.0056
 20
15.2989
 30
0.0
 40
0.080359
 41
0.080359
  0
VERTEX
  8
0
 10
31.9565
 20
15.3318
 30
0.0
 40
0.080359
 41
0.080359
  0
VERTEX
  8
0
 10
31.9235
 20
15.381
 30
0.0
 40
0.080359
 41
0.080359
  0
VERTEX
  8
0
 10
31.9114
 20
15.441
 30
0.0
 40
0.080359
 41
0.080359
  0
VERTEX
  8
0
 10
31.9235
 20
15.501
 30
0.0
 40
0.080359
 41
0.080359
  0
VERTEX
  8
0
 10
31.9565
 20
15.5501
 30
0.0
 40
0.080359
 41
0.080359
  0
VERTEX
  8
0
 10
32.0056
 20
15.5831
 30
0.0
 40
0.080359
 41
0.080359
  0
VERTEX
  8
0
 10
32.0656
 20
15.5953
 30
0.0
 40
0.080359
 41
0.080359
  0
VERTEX
  8
0
 10
32.1257
 20
15.5831
 30
0.0
 40
0.080359
 41
0.080359
  0
VERTEX
  8
0
 10
32.1747
 20
15.5501
 30
0.0
 40
0.080359
 41
0.080359
  0
VERTEX
  8
0
 10
32.2078
 20
15.501
 30
0.0
 40
0.080359
 41
0.080359
  0
VERTEX
  8
0
 10
32.2199
 20
15.441
 30
0.0
 40
0.080359
 41
0.080359
  0
SEQEND
 8
0
  0
POLYLINE
  8
0
 62
     0
 66
     1
 10
0
 20
0
 30
0.0
 40
5.78585
 41
5.78585
  0
VERTEX
  8
0
 10
6.22217
 20
11.3908
 30
0.0
 40
0.080359
 41
0.080359
  0
VERTEX
  8
0
 10
6.22217
 20
11.0052
 30
0.0
 40
0.080359
 41
0.080359
  0
SEQEND
 8
0
  0
POLYLINE
  8
0
 62
     0
 66
     1
 10
0
 20
0
 30
0.0
 40
5.78585
 41
5.78585
  0
VERTEX
  8
0
 10
6.22217
 20
11.0052
 30
0.0
 40
0.080359
 41
0.080359
  0
VERTEX
  8
0
 10
6.22217
 20
6.95503
 30
0.0
 40
0.080359
 41
0.080359
  0
SEQEND
 8
0
  0
POLYLINE
  8
0
 62
     0
 66
     1
 10
0
 20
0
 30
0.0
 40
5.78585
 41
5.78585
  0
VERTEX
  8
0
 10
6.22217
 20
6.95503
 30
0.0
 40
0.080359
 41
0.080359
  0
VERTEX
  8
0
 10
6.22217
 20
5.41217
 30
0.0
 40
0.080359
 41
0.080359
  0
SEQEND
 8
0
  0
POLYLINE
  8
0
 62
     0
 66
     1
 10
0
 20
0
 30
0.0
 40
5.78585
 41
5.78585
  0
VERTEX
  8
0
 10
6.22217
 20
3.09782
 30
0.0
 40
0.080359
 41
0.080359
  0
VERTEX
  8
0
 10
6.22217
 20
0.204861
 30
0.0
 40
0.080359
 41
0.080359
  0
SEQEND
 8
0
  0
POLYLINE
  8
0
 62
     0
 66
     1
 10
0
 20
0
 30
0.0
 70
     1
 40
0
 41
0
  0
VERTEX
  8
0
 10
6.37646
 20
0.204861
 30
0.0
 40
0
 41
0
  0
VERTEX
  8
0
 10
6.36431
 20
0.144857
 30
0.0
 40
0
 41
0
  0
VERTEX
  8
0
 10
6.33128
 20
0.0958117
 30
0.0
 40
0
 41
0
  0
VERTEX
  8
0
 10
6.28222
 20
0.0627712
 30
0.0
 40
0
 41
0
  0
VERTEX
  8
0
 10
6.22217
 20
0.0506185
 30
0.0
 40
0
 41
0
  0
VERTEX
  8
0
 10
6.16206
 20
0.0627712
 30
0.0
 40
0
 41
0
  0
VERTEX
  8
0
 10
6.11301
 20
0.0958117
 30
0.0
 40
0
 41
0
  0
VERTEX
  8
0
 10
6.07997
 20
0.144857
 30
0.0
 40
0
 41
0
  0
VERTEX
  8
0
 10
6.06787
 20
0.204861
 30
0.0
 40
0
 41
0
  0
VERTEX
  8
0
 10
6.07997
 20
0.264974
 30
0.0
 40
0
 41
0
  0
VERTEX
  8
0
 10
6.11301
 20
0.314019
 30
0.0
 40
0
 41
0
  0
VERTEX
  8
0
 10
6.16206
 20
0.34706
 30
0.0
 40
0
 41
0
  0
VERTEX
  8
0
 10
6.22217
 20
0.359158
 30
0.0
 40
0
 41
0
  0
VERTEX
  8
0
 10
6.28222
 20
0.34706
 30
0.0
 40
0
 41
0
  0
VERTEX
  8
0
 10
6.33128
 20
0.314019
 30
0.0
 40
0
 41
0
  0
VERTEX
  8
0
 10
6.36431
 20
0.264974
 30
0.0
 40
0
 41
0
  0
VERTEX
  8
0
 10
6.37646
 20
0.204861
 30
0.0
 40
0
 41
0
  0
SEQEND
 8
0
  0
POLYLINE
  8
0
 62
     0
 66
     1
 10
0
 20
0
 30
0.0
 70
     1
 40
5.78585
 41
5.78585
  0
VERTEX
  8
0
 10
6.37646
 20
0.204861
 30
0.0
 40
0.080359
 41
0.080359
  0
VERTEX
  8
0
 10
6.36431
 20
0.144857
 30
0.0
 40
0.080359
 41
0.080359
  0
VERTEX
  8
0
 10
6.33128
 20
0.0958117
 30
0.0
 40
0.080359
 41
0.080359
  0
VERTEX
  8
0
 10
6.28222
 20
0.0627712
 30
0.0
 40
0.080359
 41
0.080359
  0
VERTEX
  8
0
 10
6.22217
 20
0.0506185
 30
0.0
 40
0.080359
 41
0.080359
  0
VERTEX
  8
0
 10
6.16206
 20
0.0627712
 30
0.0
 40
0.080359
 41
0.080359
  0
VERTEX
  8
0
 10
6.11301
 20
0.0958117
 30
0.0
 40
0.080359
 41
0.080359
  0
VERTEX
  8
0
 10
6.07997
 20
0.144857
 30
0.0
 40
0.080359
 41
0.080359
  0
VERTEX
  8
0
 10
6.06787
 20
0.204861
 30
0.0
 40
0.080359
 41
0.080359
  0
VERTEX
  8
0
 10
6.07997
 20
0.264974
 30
0.0
 40
0.080359
 41
0.080359
  0
VERTEX
  8
0
 10
6.11301
 20
0.314019
 30
0.0
 40
0.080359
 41
0.080359
  0
VERTEX
  8
0
 10
6.16206
 20
0.34706
 30
0.0
 40
0.080359
 41
0.080359
  0
VERTEX
  8
0
 10
6.22217
 20
0.359158
 30
0.0
 40
0.080359
 41
0.080359
  0
VERTEX
  8
0
 10
6.28222
 20
0.34706
 30
0.0
 40
0.080359
 41
0.080359
  0
VERTEX
  8
0
 10
6.33128
 20
0.314019
 30
0.0
 40
0.080359
 41
0.080359
  0
VERTEX
  8
0
 10
6.36431
 20
0.264974
 30
0.0
 40
0.080359
 41
0.080359
  0
VERTEX
  8
0
 10
6.37646
 20
0.204861
 30
0.0
 40
0.080359
 41
0.080359
  0
SEQEND
 8
0
  0
POLYLINE
  8
0
 62
     0
 66
     1
 10
0
 20
0
 30
0.0
 40
5.78585
 41
5.78585
  0
VERTEX
  8
0
 10
10.8509
 20
6.95503
 30
0.0
 40
0.080359
 41
0.080359
  0
VERTEX
  8
0
 10
6.22217
 20
6.95503
 30
0.0
 40
0.080359
 41
0.080359
  0
SEQEND
 8
0
  0
POLYLINE
  8
0
 62
     0
 66
     1
 10
0
 20
0
 30
0.0
 70
     1
 40
0
 41
0
  0
VERTEX
  8
0
 10
6.37646
 20
6.95503
 30
0.0
 40
0
 41
0
  0
VERTEX
  8
0
 10
6.36431
 20
6.89501
 30
0.0
 40
0
 41
0
  0
VERTEX
  8
0
 10
6.33128
 20
6.84597
 30
0.0
 40
0
 41
0
  0
VERTEX
  8
0
 10
6.28222
 20
6.81288
 30
0.0
 40
0
 41
0
  0
VERTEX
  8
0
 10
6.22217
 20
6.80072
 30
0.0
 40
0
 41
0
  0
VERTEX
  8
0
 10
6.16206
 20
6.81288
 30
0.0
 40
0
 41
0
  0
VERTEX
  8
0
 10
6.11301
 20
6.84597
 30
0.0
 40
0
 41
0
  0
VERTEX
  8
0
 10
6.07997
 20
6.89501
 30
0.0
 40
0
 41
0
  0
VERTEX
  8
0
 10
6.06787
 20
6.95503
 30
0.0
 40
0
 41
0
  0
VERTEX
  8
0
 10
6.07997
 20
7.01514
 30
0.0
 40
0
 41
0
  0
VERTEX
  8
0
 10
6.11301
 20
7.06418
 30
0.0
 40
0
 41
0
  0
VERTEX
  8
0
 10
6.16206
 20
7.09722
 30
0.0
 40
0
 41
0
  0
VERTEX
  8
0
 10
6.22217
 20
7.10932
 30
0.0
 40
0
 41
0
  0
VERTEX
  8
0
 10
6.28222
 20
7.09722
 30
0.0
 40
0
 41
0
  0
VERTEX
  8
0
 10
6.33128
 20
7.06418
 30
0.0
 40
0
 41
0
  0
VERTEX
  8
0
 10
6.36431
 20
7.01514
 30
0.0
 40
0
 41
0
  0
VERTEX
  8
0
 10
6.37646
 20
6.95503
 30
0.0
 40
0
 41
0
  0
SEQEND
 8
0
  0
POLYLINE
  8
0
 62
     0
 66
     1
 10
0
 20
0
 30
0.0
 70
     1
 40
5.78585
 41
5.78585
  0
VERTEX
  8
0
 10
6.37646
 20
6.95503
 30
0.0
 40
0.080359
 41
0.080359
  0
VERTEX
  8
0
 10
6.36431
 20
6.89501
 30
0.0
 40
0.080359
 41
0.080359
  0
VERTEX
  8
0
 10
6.33128
 20
6.84597
 30
0.0
 40
0.080359
 41
0.080359
  0
VERTEX
  8
0
 10
6.28222
 20
6.81288
 30
0.0
 40
0.080359
 41
0.080359
  0
VERTEX
  8
0
 10
6.22217
 20
6.80072
 30
0.0
 40
0.080359
 41
0.080359
  0
VERTEX
  8
0
 10
6.16206
 20
6.81288
 30
0.0
 40
0.080359
 41
0.080359
  0
VERTEX
  8
0
 10
6.11301
 20
6.84597
 30
0.0
 40
0.080359
 41
0.080359
  0
VERTEX
  8
0
 10
6.07997
 20
6.89501
 30
0.0
 40
0.080359
 41
0.080359
  0
VERTEX
  8
0
 10
6.06787
 20
6.95503
 30
0.0
 40
0.080359
 41
0.080359
  0
VERTEX
  8
0
 10
6.07997
 20
7.01514
 30
0.0
 40
0.080359
 41
0.080359
  0
VERTEX
  8
0
 10
6.11301
 20
7.06418
 30
0.0
 40
0.080359
 41
0.080359
  0
VERTEX
  8
0
 10
6.16206
 20
7.09722
 30
0.0
 40
0.080359
 41
0.080359
  0
VERTEX
  8
0
 10
6.22217
 20
7.10932
 30
0.0
 40
0.080359
 41
0.080359
  0
VERTEX
  8
0
 10
6.28222
 20
7.09722
 30
0.0
 40
0.080359
 41
0.080359
  0
VERTEX
  8
0
 10
6.33128
 20
7.06418
 30
0.0
 40
0.080359
 41
0.080359
  0
VERTEX
  8
0
 10
6.36431
 20
7.01514
 30
0.0
 40
0.080359
 41
0.080359
  0
VERTEX
  8
0
 10
6.37646
 20
6.95503
 30
0.0
 40
0.080359
 41
0.080359
  0
SEQEND
 8
0
  0
POLYLINE
  8
0
 62
     0
 66
     1
 10
0
 20
0
 30
0.0
 40
5.78585
 41
5.78585
  0
VERTEX
  8
0
 10
6.9936
 20
12.548
 30
0.0
 40
0.080359
 41
0.080359
  0
VERTEX
  8
0
 10
7.18647
 20
12.548
 30
0.0
 40
0.080359
 41
0.080359
  0
SEQEND
 8
0
  0
POLYLINE
  8
0
 62
     0
 66
     1
 10
0
 20
0
 30
0.0
 40
5.78585
 41
5.78585
  0
VERTEX
  8
0
 10
7.18647
 20
12.548
 30
0.0
 40
0.080359
 41
0.080359
  0
VERTEX
  8
0
 10
7.18647
 20
11.0052
 30
0.0
 40
0.080359
 41
0.080359
  0
SEQEND
 8
0
  0
POLYLINE
  8
0
 62
     0
 66
     1
 10
0
 20
0
 30
0.0
 40
5.78585
 41
5.78585
  0
VERTEX
  8
0
 10
7.18647
 20
11.0052
 30
0.0
 40
0.080359
 41
0.080359
  0
VERTEX
  8
0
 10
6.22217
 20
11.0052
 30
0.0
 40
0.080359
 41
0.080359
  0
SEQEND
 8
0
  0
POLYLINE
  8
0
 62
     0
 66
     1
 10
0
 20
0
 30
0.0
 70
     1
 40
0
 41
0
  0
VERTEX
  8
0
 10
6.37646
 20
11.0052
 30
0.0
 40
0
 41
0
  0
VERTEX
  8
0
 10
6.36431
 20
10.9451
 30
0.0
 40
0
 41
0
  0
VERTEX
  8
0
 10
6.33128
 20
10.8961
 30
0.0
 40
0
 41
0
  0
VERTEX
  8
0
 10
6.28222
 20
10.863
 30
0.0
 40
0
 41
0
  0
VERTEX
  8
0
 10
6.22217
 20
10.8509
 30
0.0
 40
0
 41
0
  0
VERTEX
  8
0
 10
6.16206
 20
10.863
 30
0.0
 40
0
 41
0
  0
VERTEX
  8
0
 10
6.11301
 20
10.8961
 30
0.0
 40
0
 41
0
  0
VERTEX
  8
0
 10
6.07997
 20
10.9451
 30
0.0
 40
0
 41
0
  0
VERTEX
  8
0
 10
6.06787
 20
11.0052
 30
0.0
 40
0
 41
0
  0
VERTEX
  8
0
 10
6.07997
 20
11.0652
 30
0.0
 40
0
 41
0
  0
VERTEX
  8
0
 10
6.11301
 20
11.1143
 30
0.0
 40
0
 41
0
  0
VERTEX
  8
0
 10
6.16206
 20
11.1473
 30
0.0
 40
0
 41
0
  0
VERTEX
  8
0
 10
6.22217
 20
11.1594
 30
0.0
 40
0
 41
0
  0
VERTEX
  8
0
 10
6.28222
 20
11.1473
 30
0.0
 40
0
 41
0
  0
VERTEX
  8
0
 10
6.33128
 20
11.1143
 30
0.0
 40
0
 41
0
  0
VERTEX
  8
0
 10
6.36431
 20
11.0652
 30
0.0
 40
0
 41
0
  0
VERTEX
  8
0
 10
6.37646
 20
11.0052
 30
0.0
 40
0
 41
0
  0
SEQEND
 8
0
  0
POLYLINE
  8
0
 62
     0
 66
     1
 10
0
 20
0
 30
0.0
 70
     1
 40
5.78585
 41
5.78585
  0
VERTEX
  8
0
 10
6.37646
 20
11.0052
 30
0.0
 40
0.080359
 41
0.080359
  0
VERTEX
  8
0
 10
6.36431
 20
10.9451
 30
0.0
 40
0.080359
 41
0.080359
  0
VERTEX
  8
0
 10
6.33128
 20
10.8961
 30
0.0
 40
0.080359
 41
0.080359
  0
VERTEX
  8
0
 10
6.28222
 20
10.863
 30
0.0
 40
0.080359
 41
0.080359
  0
VERTEX
  8
0
 10
6.22217
 20
10.8509
 30
0.0
 40
0.080359
 41
0.080359
  0
VERTEX
  8
0
 10
6.16206
 20
10.863
 30
0.0
 40
0.080359
 41
0.080359
  0
VERTEX
  8
0
 10
6.11301
 20
10.8961
 30
0.0
 40
0.080359
 41
0.080359
  0
VERTEX
  8
0
 10
6.07997
 20
10.9451
 30
0.0
 40
0.080359
 41
0.080359
  0
VERTEX
  8
0
 10
6.06787
 20
11.0052
 30
0.0
 40
0.080359
 41
0.080359
  0
VERTEX
  8
0
 10
6.07997
 20
11.0652
 30
0.0
 40
0.080359
 41
0.080359
  0
VERTEX
  8
0
 10
6.11301
 20
11.1143
 30
0.0
 40
0.080359
 41
0.080359
  0
VERTEX
  8
0
 10
6.16206
 20
11.1473
 30
0.0
 40
0.080359
 41
0.080359
  0
VERTEX
  8
0
 10
6.22217
 20
11.1594
 30
0.0
 40
0.080359
 41
0.080359
  0
VERTEX
  8
0
 10
6.28222
 20
11.1473
 30
0.0
 40
0.080359
 41
0.080359
  0
VERTEX
  8
0
 10
6.33128
 20
11.1143
 30
0.0
 40
0.080359
 41
0.080359
  0
VERTEX
  8
0
 10
6.36431
 20
11.0652
 30
0.0
 40
0.080359
 41
0.080359
  0
VERTEX
  8
0
 10
6.37646
 20
11.0052
 30
0.0
 40
0.080359
 41
0.080359
  0
SEQEND
 8
0
  0
POLYLINE
  8
0
 62
     0
 66
     1
 10
0
 20
0
 30
0.0
 40
5.78585
 41
5.78585
  0
VERTEX
  8
0
 10
3.71496
 20
12.9337
 30
0.0
 40
0.080359
 41
0.080359
  0
VERTEX
  8
0
 10
4.10069
 20
12.9337
 30
0.0
 40
0.080359
 41
0.080359
  0
SEQEND
 8
0
  0
POLYLINE
  8
0
 62
     0
 66
     1
 10
0
 20
0
 30
0.0
 40
5.78585
 41
5.78585
  0
VERTEX
  8
0
 10
4.10069
 20
12.9337
 30
0.0
 40
0.080359
 41
0.080359
  0
VERTEX
  8
0
 10
4.10069
 20
13.3194
 30
0.0
 40
0.080359
 41
0.080359
  0
SEQEND
 8
0
  0
POLYLINE
  8
0
 62
     0
 66
     1
 10
0
 20
0
 30
0.0
 70
     1
 40
0
 41
0
  0
VERTEX
  8
0
 10
4.25499
 20
13.3194
 30
0.0
 40
0
 41
0
  0
VERTEX
  8
0
 10
4.24283
 20
13.2594
 30
0.0
 40
0
 41
0
  0
VERTEX
  8
0
 10
4.20979
 20
13.2104
 30
0.0
 40
0
 41
0
  0
VERTEX
  8
0
 10
4.16075
 20
13.1774
 30
0.0
 40
0
 41
0
  0
VERTEX
  8
0
 10
4.10069
 20
13.1652
 30
0.0
 40
0
 41
0
  0
VERTEX
  8
0
 10
4.04058
 20
13.1774
 30
0.0
 40
0
 41
0
  0
VERTEX
  8
0
 10
3.99154
 20
13.2104
 30
0.0
 40
0
 41
0
  0
VERTEX
  8
0
 10
3.9585
 20
13.2594
 30
0.0
 40
0
 41
0
  0
VERTEX
  8
0
 10
3.9464
 20
13.3194
 30
0.0
 40
0
 41
0
  0
VERTEX
  8
0
 10
3.9585
 20
13.3796
 30
0.0
 40
0
 41
0
  0
VERTEX
  8
0
 10
3.99154
 20
13.4286
 30
0.0
 40
0
 41
0
  0
VERTEX
  8
0
 10
4.04058
 20
13.4616
 30
0.0
 40
0
 41
0
  0
VERTEX
  8
0
 10
4.10069
 20
13.4737
 30
0.0
 40
0
 41
0
  0
VERTEX
  8
0
 10
4.16075
 20
13.4616
 30
0.0
 40
0
 41
0
  0
VERTEX
  8
0
 10
4.20979
 20
13.4286
 30
0.0
 40
0
 41
0
  0
VERTEX
  8
0
 10
4.24283
 20
13.3796
 30
0.0
 40
0
 41
0
  0
VERTEX
  8
0
 10
4.25499
 20
13.3194
 30
0.0
 40
0
 41
0
  0
SEQEND
 8
0
  0
POLYLINE
  8
0
 62
     0
 66
     1
 10
0
 20
0
 30
0.0
 70
     1
 40
5.78585
 41
5.78585
  0
VERTEX
  8
0
 10
4.25499
 20
13.3194
 30
0.0
 40
0.080359
 41
0.080359
  0
VERTEX
  8
0
 10
4.24283
 20
13.2594
 30
0.0
 40
0.080359
 41
0.080359
  0
VERTEX
  8
0
 10
4.20979
 20
13.2104
 30
0.0
 40
0.080359
 41
0.080359
  0
VERTEX
  8
0
 10
4.16075
 20
13.1774
 30
0.0
 40
0.080359
 41
0.080359
  0
VERTEX
  8
0
 10
4.10069
 20
13.1652
 30
0.0
 40
0.080359
 41
0.080359
  0
VERTEX
  8
0
 10
4.04058
 20
13.1774
 30
0.0
 40
0.080359
 41
0.080359
  0
VERTEX
  8
0
 10
3.99154
 20
13.2104
 30
0.0
 40
0.080359
 41
0.080359
  0
VERTEX
  8
0
 10
3.9585
 20
13.2594
 30
0.0
 40
0.080359
 41
0.080359
  0
VERTEX
  8
0
 10
3.9464
 20
13.3194
 30
0.0
 40
0.080359
 41
0.080359
  0
VERTEX
  8
0
 10
3.9585
 20
13.3796
 30
0.0
 40
0.080359
 41
0.080359
  0
VERTEX
  8
0
 10
3.99154
 20
13.4286
 30
0.0
 40
0.080359
 41
0.080359
  0
VERTEX
  8
0
 10
4.04058
 20
13.4616
 30
0.0
 40
0.080359
 41
0.080359
  0
VERTEX
  8
0
 10
4.10069
 20
13.4737
 30
0.0
 40
0.080359
 41
0.080359
  0
VERTEX
  8
0
 10
4.16075
 20
13.4616
 30
0.0
 40
0.080359
 41
0.080359
  0
VERTEX
  8
0
 10
4.20979
 20
13.4286
 30
0.0
 40
0.080359
 41
0.080359
  0
VERTEX
  8
0
 10
4.24283
 20
13.3796
 30
0.0
 40
0.080359
 41
0.080359
  0
VERTEX
  8
0
 10
4.25499
 20
13.3194
 30
0.0
 40
0.080359
 41
0.080359
  0
SEQEND
 8
0
  0
POLYLINE
  8
0
 62
     0
 66
     1
 10
0
 20
0
 30
0.0
 40
5.78585
 41
5.78585
  0
VERTEX
  8
0
 10
3.71496
 20
12.1623
 30
0.0
 40
0.080359
 41
0.080359
  0
VERTEX
  8
0
 10
4.10069
 20
12.1623
 30
0.0
 40
0.080359
 41
0.080359
  0
SEQEND
 8
0
  0
POLYLINE
  8
0
 62
     0
 66
     1
 10
0
 20
0
 30
0.0
 70
     1
 40
0
 41
0
  0
VERTEX
  8
0
 10
4.25499
 20
11.7766
 30
0.0
 40
0
 41
0
  0
VERTEX
  8
0
 10
4.24283
 20
11.7165
 30
0.0
 40
0
 41
0
  0
VERTEX
  8
0
 10
4.20979
 20
11.6675
 30
0.0
 40
0
 41
0
  0
VERTEX
  8
0
 10
4.16075
 20
11.6344
 30
0.0
 40
0
 41
0
  0
VERTEX
  8
0
 10
4.10069
 20
11.6223
 30
0.0
 40
0
 41
0
  0
VERTEX
  8
0
 10
4.04058
 20
11.6344
 30
0.0
 40
0
 41
0
  0
VERTEX
  8
0
 10
3.99154
 20
11.6675
 30
0.0
 40
0
 41
0
  0
VERTEX
  8
0
 10
3.9585
 20
11.7165
 30
0.0
 40
0
 41
0
  0
VERTEX
  8
0
 10
3.9464
 20
11.7766
 30
0.0
 40
0
 41
0
  0
VERTEX
  8
0
 10
3.9585
 20
11.8367
 30
0.0
 40
0
 41
0
  0
VERTEX
  8
0
 10
3.99154
 20
11.8857
 30
0.0
 40
0
 41
0
  0
VERTEX
  8
0
 10
4.04058
 20
11.9188
 30
0.0
 40
0
 41
0
  0
VERTEX
  8
0
 10
4.10069
 20
11.9309
 30
0.0
 40
0
 41
0
  0
VERTEX
  8
0
 10
4.16075
 20
11.9188
 30
0.0
 40
0
 41
0
  0
VERTEX
  8
0
 10
4.20979
 20
11.8857
 30
0.0
 40
0
 41
0
  0
VERTEX
  8
0
 10
4.24283
 20
11.8367
 30
0.0
 40
0
 41
0
  0
VERTEX
  8
0
 10
4.25499
 20
11.7766
 30
0.0
 40
0
 41
0
  0
SEQEND
 8
0
  0
POLYLINE
  8
0
 62
     0
 66
     1
 10
0
 20
0
 30
0.0
 70
     1
 40
5.78585
 41
5.78585
  0
VERTEX
  8
0
 10
4.25499
 20
11.7766
 30
0.0
 40
0.080359
 41
0.080359
  0
VERTEX
  8
0
 10
4.24283
 20
11.7165
 30
0.0
 40
0.080359
 41
0.080359
  0
VERTEX
  8
0
 10
4.20979
 20
11.6675
 30
0.0
 40
0.080359
 41
0.080359
  0
VERTEX
  8
0
 10
4.16075
 20
11.6344
 30
0.0
 40
0.080359
 41
0.080359
  0
VERTEX
  8
0
 10
4.10069
 20
11.6223
 30
0.0
 40
0.080359
 41
0.080359
  0
VERTEX
  8
0
 10
4.04058
 20
11.6344
 30
0.0
 40
0.080359
 41
0.080359
  0
VERTEX
  8
0
 10
3.99154
 20
11.6675
 30
0.0
 40
0.080359
 41
0.080359
  0
VERTEX
  8
0
 10
3.9585
 20
11.7165
 30
0.0
 40
0.080359
 41
0.080359
  0
VERTEX
  8
0
 10
3.9464
 20
11.7766
 30
0.0
 40
0.080359
 41
0.080359
  0
VERTEX
  8
0
 10
3.9585
 20
11.8367
 30
0.0
 40
0.080359
 41
0.080359
  0
VERTEX
  8
0
 10
3.99154
 20
11.8857
 30
0.0
 40
0.080359
 41
0.080359
  0
VERTEX
  8
0
 10
4.04058
 20
11.9188
 30
0.0
 40
0.080359
 41
0.080359
  0
VERTEX
  8
0
 10
4.10069
 20
11.9309
 30
0.0
 40
0.080359
 41
0.080359
  0
VERTEX
  8
0
 10
4.16075
 20
11.9188
 30
0.0
 40
0.080359
 41
0.080359
  0
VERTEX
  8
0
 10
4.20979
 20
11.8857
 30
0.0
 40
0.080359
 41
0.080359
  0
VERTEX
  8
0
 10
4.24283
 20
11.8367
 30
0.0
 40
0.080359
 41
0.080359
  0
VERTEX
  8
0
 10
4.25499
 20
11.7766
 30
0.0
 40
0.080359
 41
0.080359
  0
SEQEND
 8
0
  0
POLYLINE
  8
0
 62
     0
 66
     1
 10
0
 20
0
 30
0.0
 40
5.78585
 41
5.78585
  0
VERTEX
  8
0
 10
10.8509
 20
7.72651
 30
0.0
 40
0.080359
 41
0.080359
  0
VERTEX
  8
0
 10
2.75065
 20
7.72651
 30
0.0
 40
0.080359
 41
0.080359
  0
SEQEND
 8
0
  0
POLYLINE
  8
0
 62
     0
 66
     1
 10
0
 20
0
 30
0.0
 40
5.78585
 41
5.78585
  0
VERTEX
  8
0
 10
2.75065
 20
7.72651
 30
0.0
 40
0.080359
 41
0.080359
  0
VERTEX
  8
0
 10
2.75065
 20
5.02642
 30
0.0
 40
0.080359
 41
0.080359
  0
SEQEND
 8
0
  0
POLYLINE
  8
0
 62
     0
 66
     1
 10
0
 20
0
 30
0.0
 40
5.78585
 41
5.78585
  0
VERTEX
  8
0
 10
2.75065
 20
5.02642
 30
0.0
 40
0.080359
 41
0.080359
  0
VERTEX
  8
0
 10
1.97922
 20
5.02642
 30
0.0
 40
0.080359
 41
0.080359
  0
SEQEND
 8
0
  0
POLYLINE
  8
0
 62
     0
 66
     1
 10
0
 20
0
 30
0.0
 40
5.78585
 41
5.78585
  0
VERTEX
  8
0
 10
1.97922
 20
3.48351
 30
0.0
 40
0.080359
 41
0.080359
  0
VERTEX
  8
0
 10
3.13639
 20
3.48351
 30
0.0
 40
0.080359
 41
0.080359
  0
SEQEND
 8
0
  0
POLYLINE
  8
0
 62
     0
 66
     1
 10
0
 20
0
 30
0.0
 40
5.78585
 41
5.78585
  0
VERTEX
  8
0
 10
1.97922
 20
4.25499
 30
0.0
 40
0.080359
 41
0.080359
  0
VERTEX
  8
0
 10
2.75065
 20
4.25499
 30
0.0
 40
0.080359
 41
0.080359
  0
SEQEND
 8
0
  0
POLYLINE
  8
0
 62
     0
 66
     1
 10
0
 20
0
 30
0.0
 70
     1
 40
5.78585
 41
5.78585
  0
VERTEX
  8
0
 10
0.0506185
 20
5.41217
 30
0.0
 40
0.080359
 41
0.080359
  0
VERTEX
  8
0
 10
0.822049
 20
5.41217
 30
0.0
 40
0.080359
 41
0.080359
  0
VERTEX
  8
0
 10
0.822049
 20
3.09782
 30
0.0
 40
0.080359
 41
0.080359
  0
VERTEX
  8
0
 10
0.0506185
 20
3.09782
 30
0.0
 40
0.080359
 41
0.080359
  0
VERTEX
  8
0
 10
0.0506185
 20
5.41217
 30
0.0
 40
0.080359
 41
0.080359
  0
SEQEND
 8
0
  0
POLYLINE
  8
0
 62
     0
 66
     1
 10
0
 20
0
 30
0.0
 70
     1
 40
5.78585
 41
5.78585
  0
VERTEX
  8
0
 10
0.359158
 20
3.52208
 30
0.0
 40
0.080359
 41
0.080359
  0
VERTEX
  8
0
 10
0.822049
 20
3.52208
 30
0.0
 40
0.080359
 41
0.080359
  0
VERTEX
  8
0
 10
0.822049
 20
3.44493
 30
0.0
 40
0.080359
 41
0.080359
  0
VERTEX
  8
0
 10
0.359158
 20
3.44493
 30
0.0
 40
0.080359
 41
0.080359
  0
VERTEX
  8
0
 10
0.359158
 20
3.52208
 30
0.0
 40
0.080359
 41
0.080359
  0
SEQEND
 8
0
  0
POLYLINE
  8
0
 62
     0
 66
     1
 10
0
 20
0
 30
0.0
 70
     1
 40
5.78585
 41
5.78585
  0
VERTEX
  8
0
 10
0.359158
 20
4.29357
 30
0.0
 40
0.080359
 41
0.080359
  0
VERTEX
  8
0
 10
0.822049
 20
4.29357
 30
0.0
 40
0.080359
 41
0.080359
  0
VERTEX
  8
0
 10
0.822049
 20
4.21642
 30
0.0
 40
0.080359
 41
0.080359
  0
VERTEX
  8
0
 10
0.359158
 20
4.21642
 30
0.0
 40
0.080359
 41
0.080359
  0
VERTEX
  8
0
 10
0.359158
 20
4.29357
 30
0.0
 40
0.080359
 41
0.080359
  0
SEQEND
 8
0
  0
POLYLINE
  8
0
 62
     0
 66
     1
 10
0
 20
0
 30
0.0
 70
     1
 40
5.78585
 41
5.78585
  0
VERTEX
  8
0
 10
0.359158
 20
5.065
 30
0.0
 40
0.080359
 41
0.080359
  0
VERTEX
  8
0
 10
0.822049
 20
5.065
 30
0.0
 40
0.080359
 41
0.080359
  0
VERTEX
  8
0
 10
0.822049
 20
4.98785
 30
0.0
 40
0.080359
 41
0.080359
  0
VERTEX
  8
0
 10
0.359158
 20
4.98785
 30
0.0
 40
0.080359
 41
0.080359
  0
VERTEX
  8
0
 10
0.359158
 20
5.065
 30
0.0
 40
0.080359
 41
0.080359
  0
SEQEND
 8
0
  0
POLYLINE
  8
0
 62
     0
 66
     1
 10
0
 20
0
 30
0.0
 40
5.78585
 41
5.78585
  0
VERTEX
  8
0
 10
0.822049
 20
5.02642
 30
0.0
 40
0.080359
 41
0.080359
  0
VERTEX
  8
0
 10
1.97922
 20
5.02642
 30
0.0
 40
0.080359
 41
0.080359
  0
SEQEND
 8
0
  0
POLYLINE
  8
0
 62
     0
 66
     1
 10
0
 20
0
 30
0.0
 40
5.78585
 41
5.78585
  0
VERTEX
  8
0
 10
0.822049
 20
4.25499
 30
0.0
 40
0.080359
 41
0.080359
  0
VERTEX
  8
0
 10
1.97922
 20
4.25499
 30
0.0
 40
0.080359
 41
0.080359
  0
SEQEND
 8
0
  0
POLYLINE
  8
0
 62
     0
 66
     1
 10
0
 20
0
 30
0.0
 40
5.78585
 41
5.78585
  0
VERTEX
  8
0
 10
0.822049
 20
3.48351
 30
0.0
 40
0.080359
 41
0.080359
  0
VERTEX
  8
0
 10
1.97922
 20
3.48351
 30
0.0
 40
0.080359
 41
0.080359
  0
SEQEND
 8
0
  0
ENDSEC
  0
EOF
